%TF.GenerationSoftware,KiCad,Pcbnew,10.0.4*%
%TF.CreationDate,2026-07-09T12:11:49+02:00*%
%TF.ProjectId,i2c_bus_board,6932635f-6275-4735-9f62-6f6172642e6b,rev?*%
%TF.SameCoordinates,Original*%
%TF.FileFunction,Copper,L1,Top*%
%TF.FilePolarity,Positive*%
%FSLAX46Y46*%
G04 Gerber Fmt 4.6, Leading zero omitted, Abs format (unit mm)*
G04 Created by KiCad (PCBNEW 10.0.4) date 2026-07-09 12:11:49*
%MOMM*%
%LPD*%
G01*
G04 APERTURE LIST*
G04 Aperture macros list*
%AMRoundRect*
0 Rectangle with rounded corners*
0 $1 Rounding radius*
0 $2 $3 $4 $5 $6 $7 $8 $9 X,Y pos of 4 corners*
0 Add a 4 corners polygon primitive as box body*
4,1,4,$2,$3,$4,$5,$6,$7,$8,$9,$2,$3,0*
0 Add four circle primitives for the rounded corners*
1,1,$1+$1,$2,$3*
1,1,$1+$1,$4,$5*
1,1,$1+$1,$6,$7*
1,1,$1+$1,$8,$9*
0 Add four rect primitives between the rounded corners*
20,1,$1+$1,$2,$3,$4,$5,0*
20,1,$1+$1,$4,$5,$6,$7,0*
20,1,$1+$1,$6,$7,$8,$9,0*
20,1,$1+$1,$8,$9,$2,$3,0*%
G04 Aperture macros list end*
%TA.AperFunction,ComponentPad*%
%ADD10C,1.900000*%
%TD*%
%TA.AperFunction,ComponentPad*%
%ADD11R,1.700000X1.700000*%
%TD*%
%TA.AperFunction,ComponentPad*%
%ADD12C,1.700000*%
%TD*%
%TA.AperFunction,ComponentPad*%
%ADD13RoundRect,0.250000X-1.050000X1.050000X-1.050000X-1.050000X1.050000X-1.050000X1.050000X1.050000X0*%
%TD*%
%TA.AperFunction,ComponentPad*%
%ADD14C,2.600000*%
%TD*%
%TA.AperFunction,ComponentPad*%
%ADD15R,1.900000X1.900000*%
%TD*%
%TA.AperFunction,Conductor*%
%ADD16C,0.800000*%
%TD*%
%TA.AperFunction,Conductor*%
%ADD17C,1.000000*%
%TD*%
%TA.AperFunction,Conductor*%
%ADD18C,0.600000*%
%TD*%
G04 APERTURE END LIST*
D10*
%TO.P,R3,1*%
%TO.N,3V3*%
X55000000Y-28540000D03*
%TO.P,R3,2*%
%TO.N,LED_A*%
X55000000Y-23460000D03*
%TD*%
D11*
%TO.P,J5,1*%
%TO.N,GND*%
X80000000Y-26000000D03*
D12*
%TO.P,J5,2*%
%TO.N,3V3*%
X80000000Y-28540000D03*
%TO.P,J5,3*%
%TO.N,SDA*%
X80000000Y-31080000D03*
%TO.P,J5,4*%
%TO.N,SCL*%
X80000000Y-33620000D03*
%TD*%
D10*
%TO.P,C1,1*%
%TO.N,GND*%
X45000000Y-26000000D03*
%TO.P,C1,2*%
%TO.N,3V3*%
X45000000Y-28500000D03*
%TD*%
D11*
%TO.P,J7,1*%
%TO.N,SCL*%
X50000000Y-50000000D03*
D12*
%TO.P,J7,2*%
%TO.N,SDA*%
X50000000Y-52540000D03*
%TO.P,J7,3*%
%TO.N,3V3*%
X50000000Y-55080000D03*
%TO.P,J7,4*%
%TO.N,GND*%
X50000000Y-57620000D03*
%TD*%
D11*
%TO.P,J4,1*%
%TO.N,GND*%
X70000000Y-26000000D03*
D12*
%TO.P,J4,2*%
%TO.N,3V3*%
X70000000Y-28540000D03*
%TO.P,J4,3*%
%TO.N,SDA*%
X70000000Y-31080000D03*
%TO.P,J4,4*%
%TO.N,SCL*%
X70000000Y-33620000D03*
%TD*%
D11*
%TO.P,J9,1*%
%TO.N,SCL*%
X70000000Y-50000000D03*
D12*
%TO.P,J9,2*%
%TO.N,SDA*%
X70000000Y-52540000D03*
%TO.P,J9,3*%
%TO.N,3V3*%
X70000000Y-55080000D03*
%TO.P,J9,4*%
%TO.N,GND*%
X70000000Y-57620000D03*
%TD*%
D13*
%TO.P,J_LJ,1*%
%TO.N,GND*%
X14000000Y-34190000D03*
D14*
%TO.P,J_LJ,2*%
%TO.N,3V3*%
X14000000Y-39270000D03*
%TO.P,J_LJ,3*%
%TO.N,SDA*%
X14000000Y-44350000D03*
%TO.P,J_LJ,4*%
%TO.N,SCL*%
X14000000Y-49430000D03*
%TD*%
D10*
%TO.P,R2,1*%
%TO.N,3V3*%
X34000000Y-28540000D03*
%TO.P,R2,2*%
%TO.N,SCL*%
X34000000Y-33620000D03*
%TD*%
D11*
%TO.P,J10,1*%
%TO.N,SCL*%
X80000000Y-50000000D03*
D12*
%TO.P,J10,2*%
%TO.N,SDA*%
X80000000Y-52540000D03*
%TO.P,J10,3*%
%TO.N,3V3*%
X80000000Y-55080000D03*
%TO.P,J10,4*%
%TO.N,GND*%
X80000000Y-57620000D03*
%TD*%
D11*
%TO.P,J3,1*%
%TO.N,GND*%
X60000000Y-26000000D03*
D12*
%TO.P,J3,2*%
%TO.N,3V3*%
X60000000Y-28540000D03*
%TO.P,J3,3*%
%TO.N,SDA*%
X60000000Y-31080000D03*
%TO.P,J3,4*%
%TO.N,SCL*%
X60000000Y-33620000D03*
%TD*%
D15*
%TO.P,D1,1*%
%TO.N,GND*%
X65000000Y-26000000D03*
D10*
%TO.P,D1,2*%
%TO.N,LED_A*%
X65000000Y-23460000D03*
%TD*%
D11*
%TO.P,J1,1*%
%TO.N,GND*%
X40000000Y-26000000D03*
D12*
%TO.P,J1,2*%
%TO.N,3V3*%
X40000000Y-28540000D03*
%TO.P,J1,3*%
%TO.N,SDA*%
X40000000Y-31080000D03*
%TO.P,J1,4*%
%TO.N,SCL*%
X40000000Y-33620000D03*
%TD*%
D11*
%TO.P,J6,1*%
%TO.N,SCL*%
X40000000Y-50000000D03*
D12*
%TO.P,J6,2*%
%TO.N,SDA*%
X40000000Y-52540000D03*
%TO.P,J6,3*%
%TO.N,3V3*%
X40000000Y-55080000D03*
%TO.P,J6,4*%
%TO.N,GND*%
X40000000Y-57620000D03*
%TD*%
D11*
%TO.P,J8,1*%
%TO.N,SCL*%
X60000000Y-50000000D03*
D12*
%TO.P,J8,2*%
%TO.N,SDA*%
X60000000Y-52540000D03*
%TO.P,J8,3*%
%TO.N,3V3*%
X60000000Y-55080000D03*
%TO.P,J8,4*%
%TO.N,GND*%
X60000000Y-57620000D03*
%TD*%
D10*
%TO.P,R1,1*%
%TO.N,3V3*%
X30000000Y-28540000D03*
%TO.P,R1,2*%
%TO.N,SDA*%
X30000000Y-31080000D03*
%TD*%
D11*
%TO.P,J2,1*%
%TO.N,GND*%
X50000000Y-26000000D03*
D12*
%TO.P,J2,2*%
%TO.N,3V3*%
X50000000Y-28540000D03*
%TO.P,J2,3*%
%TO.N,SDA*%
X50000000Y-31080000D03*
%TO.P,J2,4*%
%TO.N,SCL*%
X50000000Y-33620000D03*
%TD*%
%TO.N,GND*%
D16*
X16500000Y-34190000D02*
X16500000Y-26000000D01*
X14000000Y-34190000D02*
X16500000Y-34190000D01*
D17*
X38000000Y-57620000D02*
X91500000Y-57620000D01*
D16*
X16500000Y-26000000D02*
X22000000Y-26000000D01*
D17*
X22000000Y-26000000D02*
X91500000Y-26000000D01*
X91500000Y-26000000D02*
X91500000Y-57620000D01*
%TO.N,3V3*%
X22000000Y-28540000D02*
X89000000Y-28540000D01*
D16*
X18000000Y-39270000D02*
X18000000Y-28540000D01*
X14000000Y-39270000D02*
X18000000Y-39270000D01*
X18000000Y-28540000D02*
X22000000Y-28540000D01*
D17*
X89000000Y-28540000D02*
X89000000Y-55080000D01*
X38000000Y-55080000D02*
X89000000Y-55080000D01*
%TO.N,SDA*%
D16*
X14000000Y-44350000D02*
X19500000Y-44350000D01*
X19500000Y-31080000D02*
X22000000Y-31080000D01*
D17*
X38000000Y-52540000D02*
X86500000Y-52540000D01*
D16*
X19500000Y-44350000D02*
X19500000Y-31080000D01*
D17*
X86500000Y-31080000D02*
X86500000Y-52540000D01*
X22000000Y-31080000D02*
X86500000Y-31080000D01*
%TO.N,SCL*%
X84000000Y-33620000D02*
X84000000Y-50000000D01*
X22000000Y-33620000D02*
X84000000Y-33620000D01*
D16*
X21000000Y-33620000D02*
X22000000Y-33620000D01*
D17*
X38000000Y-50000000D02*
X84000000Y-50000000D01*
D16*
X14000000Y-49430000D02*
X21000000Y-49430000D01*
X21000000Y-49430000D02*
X21000000Y-33620000D01*
%TO.N,LED_A*%
D18*
X55000000Y-23460000D02*
X65000000Y-23460000D01*
%TD*%
M02*
