%TF.GenerationSoftware,KiCad,Pcbnew,10.0.4*%
%TF.CreationDate,2026-07-09T12:11:49+02:00*%
%TF.ProjectId,i2c_bus_board,6932635f-6275-4735-9f62-6f6172642e6b,rev?*%
%TF.SameCoordinates,Original*%
%TF.FileFunction,Legend,Top*%
%TF.FilePolarity,Positive*%
%FSLAX46Y46*%
G04 Gerber Fmt 4.6, Leading zero omitted, Abs format (unit mm)*
G04 Created by KiCad (PCBNEW 10.0.4) date 2026-07-09 12:11:49*
%MOMM*%
%LPD*%
G01*
G04 APERTURE LIST*
%ADD10C,0.150000*%
%ADD11C,0.120000*%
G04 APERTURE END LIST*
D10*
X41765350Y-26049366D02*
X42298684Y-26049366D01*
X41765350Y-28589366D02*
X42298684Y-28589366D01*
X42032017Y-28856033D02*
X42032017Y-28322700D01*
X41732017Y-31362700D02*
X41832017Y-31396033D01*
X41832017Y-31396033D02*
X41998684Y-31396033D01*
X41998684Y-31396033D02*
X42065350Y-31362700D01*
X42065350Y-31362700D02*
X42098684Y-31329366D01*
X42098684Y-31329366D02*
X42132017Y-31262700D01*
X42132017Y-31262700D02*
X42132017Y-31196033D01*
X42132017Y-31196033D02*
X42098684Y-31129366D01*
X42098684Y-31129366D02*
X42065350Y-31096033D01*
X42065350Y-31096033D02*
X41998684Y-31062700D01*
X41998684Y-31062700D02*
X41865350Y-31029366D01*
X41865350Y-31029366D02*
X41798684Y-30996033D01*
X41798684Y-30996033D02*
X41765350Y-30962700D01*
X41765350Y-30962700D02*
X41732017Y-30896033D01*
X41732017Y-30896033D02*
X41732017Y-30829366D01*
X41732017Y-30829366D02*
X41765350Y-30762700D01*
X41765350Y-30762700D02*
X41798684Y-30729366D01*
X41798684Y-30729366D02*
X41865350Y-30696033D01*
X41865350Y-30696033D02*
X42032017Y-30696033D01*
X42032017Y-30696033D02*
X42132017Y-30729366D01*
X42432017Y-31396033D02*
X42432017Y-30696033D01*
X42432017Y-30696033D02*
X42598684Y-30696033D01*
X42598684Y-30696033D02*
X42698684Y-30729366D01*
X42698684Y-30729366D02*
X42765351Y-30796033D01*
X42765351Y-30796033D02*
X42798684Y-30862700D01*
X42798684Y-30862700D02*
X42832017Y-30996033D01*
X42832017Y-30996033D02*
X42832017Y-31096033D01*
X42832017Y-31096033D02*
X42798684Y-31229366D01*
X42798684Y-31229366D02*
X42765351Y-31296033D01*
X42765351Y-31296033D02*
X42698684Y-31362700D01*
X42698684Y-31362700D02*
X42598684Y-31396033D01*
X42598684Y-31396033D02*
X42432017Y-31396033D01*
X43098684Y-31196033D02*
X43432017Y-31196033D01*
X43032017Y-31396033D02*
X43265351Y-30696033D01*
X43265351Y-30696033D02*
X43498684Y-31396033D01*
X41732017Y-33902700D02*
X41832017Y-33936033D01*
X41832017Y-33936033D02*
X41998684Y-33936033D01*
X41998684Y-33936033D02*
X42065350Y-33902700D01*
X42065350Y-33902700D02*
X42098684Y-33869366D01*
X42098684Y-33869366D02*
X42132017Y-33802700D01*
X42132017Y-33802700D02*
X42132017Y-33736033D01*
X42132017Y-33736033D02*
X42098684Y-33669366D01*
X42098684Y-33669366D02*
X42065350Y-33636033D01*
X42065350Y-33636033D02*
X41998684Y-33602700D01*
X41998684Y-33602700D02*
X41865350Y-33569366D01*
X41865350Y-33569366D02*
X41798684Y-33536033D01*
X41798684Y-33536033D02*
X41765350Y-33502700D01*
X41765350Y-33502700D02*
X41732017Y-33436033D01*
X41732017Y-33436033D02*
X41732017Y-33369366D01*
X41732017Y-33369366D02*
X41765350Y-33302700D01*
X41765350Y-33302700D02*
X41798684Y-33269366D01*
X41798684Y-33269366D02*
X41865350Y-33236033D01*
X41865350Y-33236033D02*
X42032017Y-33236033D01*
X42032017Y-33236033D02*
X42132017Y-33269366D01*
X42832017Y-33869366D02*
X42798684Y-33902700D01*
X42798684Y-33902700D02*
X42698684Y-33936033D01*
X42698684Y-33936033D02*
X42632017Y-33936033D01*
X42632017Y-33936033D02*
X42532017Y-33902700D01*
X42532017Y-33902700D02*
X42465351Y-33836033D01*
X42465351Y-33836033D02*
X42432017Y-33769366D01*
X42432017Y-33769366D02*
X42398684Y-33636033D01*
X42398684Y-33636033D02*
X42398684Y-33536033D01*
X42398684Y-33536033D02*
X42432017Y-33402700D01*
X42432017Y-33402700D02*
X42465351Y-33336033D01*
X42465351Y-33336033D02*
X42532017Y-33269366D01*
X42532017Y-33269366D02*
X42632017Y-33236033D01*
X42632017Y-33236033D02*
X42698684Y-33236033D01*
X42698684Y-33236033D02*
X42798684Y-33269366D01*
X42798684Y-33269366D02*
X42832017Y-33302700D01*
X43465351Y-33936033D02*
X43132017Y-33936033D01*
X43132017Y-33936033D02*
X43132017Y-33236033D01*
X41732017Y-50282700D02*
X41832017Y-50316033D01*
X41832017Y-50316033D02*
X41998684Y-50316033D01*
X41998684Y-50316033D02*
X42065350Y-50282700D01*
X42065350Y-50282700D02*
X42098684Y-50249366D01*
X42098684Y-50249366D02*
X42132017Y-50182700D01*
X42132017Y-50182700D02*
X42132017Y-50116033D01*
X42132017Y-50116033D02*
X42098684Y-50049366D01*
X42098684Y-50049366D02*
X42065350Y-50016033D01*
X42065350Y-50016033D02*
X41998684Y-49982700D01*
X41998684Y-49982700D02*
X41865350Y-49949366D01*
X41865350Y-49949366D02*
X41798684Y-49916033D01*
X41798684Y-49916033D02*
X41765350Y-49882700D01*
X41765350Y-49882700D02*
X41732017Y-49816033D01*
X41732017Y-49816033D02*
X41732017Y-49749366D01*
X41732017Y-49749366D02*
X41765350Y-49682700D01*
X41765350Y-49682700D02*
X41798684Y-49649366D01*
X41798684Y-49649366D02*
X41865350Y-49616033D01*
X41865350Y-49616033D02*
X42032017Y-49616033D01*
X42032017Y-49616033D02*
X42132017Y-49649366D01*
X42832017Y-50249366D02*
X42798684Y-50282700D01*
X42798684Y-50282700D02*
X42698684Y-50316033D01*
X42698684Y-50316033D02*
X42632017Y-50316033D01*
X42632017Y-50316033D02*
X42532017Y-50282700D01*
X42532017Y-50282700D02*
X42465351Y-50216033D01*
X42465351Y-50216033D02*
X42432017Y-50149366D01*
X42432017Y-50149366D02*
X42398684Y-50016033D01*
X42398684Y-50016033D02*
X42398684Y-49916033D01*
X42398684Y-49916033D02*
X42432017Y-49782700D01*
X42432017Y-49782700D02*
X42465351Y-49716033D01*
X42465351Y-49716033D02*
X42532017Y-49649366D01*
X42532017Y-49649366D02*
X42632017Y-49616033D01*
X42632017Y-49616033D02*
X42698684Y-49616033D01*
X42698684Y-49616033D02*
X42798684Y-49649366D01*
X42798684Y-49649366D02*
X42832017Y-49682700D01*
X43465351Y-50316033D02*
X43132017Y-50316033D01*
X43132017Y-50316033D02*
X43132017Y-49616033D01*
X41732017Y-52822700D02*
X41832017Y-52856033D01*
X41832017Y-52856033D02*
X41998684Y-52856033D01*
X41998684Y-52856033D02*
X42065350Y-52822700D01*
X42065350Y-52822700D02*
X42098684Y-52789366D01*
X42098684Y-52789366D02*
X42132017Y-52722700D01*
X42132017Y-52722700D02*
X42132017Y-52656033D01*
X42132017Y-52656033D02*
X42098684Y-52589366D01*
X42098684Y-52589366D02*
X42065350Y-52556033D01*
X42065350Y-52556033D02*
X41998684Y-52522700D01*
X41998684Y-52522700D02*
X41865350Y-52489366D01*
X41865350Y-52489366D02*
X41798684Y-52456033D01*
X41798684Y-52456033D02*
X41765350Y-52422700D01*
X41765350Y-52422700D02*
X41732017Y-52356033D01*
X41732017Y-52356033D02*
X41732017Y-52289366D01*
X41732017Y-52289366D02*
X41765350Y-52222700D01*
X41765350Y-52222700D02*
X41798684Y-52189366D01*
X41798684Y-52189366D02*
X41865350Y-52156033D01*
X41865350Y-52156033D02*
X42032017Y-52156033D01*
X42032017Y-52156033D02*
X42132017Y-52189366D01*
X42432017Y-52856033D02*
X42432017Y-52156033D01*
X42432017Y-52156033D02*
X42598684Y-52156033D01*
X42598684Y-52156033D02*
X42698684Y-52189366D01*
X42698684Y-52189366D02*
X42765351Y-52256033D01*
X42765351Y-52256033D02*
X42798684Y-52322700D01*
X42798684Y-52322700D02*
X42832017Y-52456033D01*
X42832017Y-52456033D02*
X42832017Y-52556033D01*
X42832017Y-52556033D02*
X42798684Y-52689366D01*
X42798684Y-52689366D02*
X42765351Y-52756033D01*
X42765351Y-52756033D02*
X42698684Y-52822700D01*
X42698684Y-52822700D02*
X42598684Y-52856033D01*
X42598684Y-52856033D02*
X42432017Y-52856033D01*
X43098684Y-52656033D02*
X43432017Y-52656033D01*
X43032017Y-52856033D02*
X43265351Y-52156033D01*
X43265351Y-52156033D02*
X43498684Y-52856033D01*
X41765350Y-55129366D02*
X42298684Y-55129366D01*
X42032017Y-55396033D02*
X42032017Y-54862700D01*
X41765350Y-57669366D02*
X42298684Y-57669366D01*
X51765350Y-26049366D02*
X52298684Y-26049366D01*
X51765350Y-28589366D02*
X52298684Y-28589366D01*
X52032017Y-28856033D02*
X52032017Y-28322700D01*
X51732017Y-31362700D02*
X51832017Y-31396033D01*
X51832017Y-31396033D02*
X51998684Y-31396033D01*
X51998684Y-31396033D02*
X52065350Y-31362700D01*
X52065350Y-31362700D02*
X52098684Y-31329366D01*
X52098684Y-31329366D02*
X52132017Y-31262700D01*
X52132017Y-31262700D02*
X52132017Y-31196033D01*
X52132017Y-31196033D02*
X52098684Y-31129366D01*
X52098684Y-31129366D02*
X52065350Y-31096033D01*
X52065350Y-31096033D02*
X51998684Y-31062700D01*
X51998684Y-31062700D02*
X51865350Y-31029366D01*
X51865350Y-31029366D02*
X51798684Y-30996033D01*
X51798684Y-30996033D02*
X51765350Y-30962700D01*
X51765350Y-30962700D02*
X51732017Y-30896033D01*
X51732017Y-30896033D02*
X51732017Y-30829366D01*
X51732017Y-30829366D02*
X51765350Y-30762700D01*
X51765350Y-30762700D02*
X51798684Y-30729366D01*
X51798684Y-30729366D02*
X51865350Y-30696033D01*
X51865350Y-30696033D02*
X52032017Y-30696033D01*
X52032017Y-30696033D02*
X52132017Y-30729366D01*
X52432017Y-31396033D02*
X52432017Y-30696033D01*
X52432017Y-30696033D02*
X52598684Y-30696033D01*
X52598684Y-30696033D02*
X52698684Y-30729366D01*
X52698684Y-30729366D02*
X52765351Y-30796033D01*
X52765351Y-30796033D02*
X52798684Y-30862700D01*
X52798684Y-30862700D02*
X52832017Y-30996033D01*
X52832017Y-30996033D02*
X52832017Y-31096033D01*
X52832017Y-31096033D02*
X52798684Y-31229366D01*
X52798684Y-31229366D02*
X52765351Y-31296033D01*
X52765351Y-31296033D02*
X52698684Y-31362700D01*
X52698684Y-31362700D02*
X52598684Y-31396033D01*
X52598684Y-31396033D02*
X52432017Y-31396033D01*
X53098684Y-31196033D02*
X53432017Y-31196033D01*
X53032017Y-31396033D02*
X53265351Y-30696033D01*
X53265351Y-30696033D02*
X53498684Y-31396033D01*
X51732017Y-33902700D02*
X51832017Y-33936033D01*
X51832017Y-33936033D02*
X51998684Y-33936033D01*
X51998684Y-33936033D02*
X52065350Y-33902700D01*
X52065350Y-33902700D02*
X52098684Y-33869366D01*
X52098684Y-33869366D02*
X52132017Y-33802700D01*
X52132017Y-33802700D02*
X52132017Y-33736033D01*
X52132017Y-33736033D02*
X52098684Y-33669366D01*
X52098684Y-33669366D02*
X52065350Y-33636033D01*
X52065350Y-33636033D02*
X51998684Y-33602700D01*
X51998684Y-33602700D02*
X51865350Y-33569366D01*
X51865350Y-33569366D02*
X51798684Y-33536033D01*
X51798684Y-33536033D02*
X51765350Y-33502700D01*
X51765350Y-33502700D02*
X51732017Y-33436033D01*
X51732017Y-33436033D02*
X51732017Y-33369366D01*
X51732017Y-33369366D02*
X51765350Y-33302700D01*
X51765350Y-33302700D02*
X51798684Y-33269366D01*
X51798684Y-33269366D02*
X51865350Y-33236033D01*
X51865350Y-33236033D02*
X52032017Y-33236033D01*
X52032017Y-33236033D02*
X52132017Y-33269366D01*
X52832017Y-33869366D02*
X52798684Y-33902700D01*
X52798684Y-33902700D02*
X52698684Y-33936033D01*
X52698684Y-33936033D02*
X52632017Y-33936033D01*
X52632017Y-33936033D02*
X52532017Y-33902700D01*
X52532017Y-33902700D02*
X52465351Y-33836033D01*
X52465351Y-33836033D02*
X52432017Y-33769366D01*
X52432017Y-33769366D02*
X52398684Y-33636033D01*
X52398684Y-33636033D02*
X52398684Y-33536033D01*
X52398684Y-33536033D02*
X52432017Y-33402700D01*
X52432017Y-33402700D02*
X52465351Y-33336033D01*
X52465351Y-33336033D02*
X52532017Y-33269366D01*
X52532017Y-33269366D02*
X52632017Y-33236033D01*
X52632017Y-33236033D02*
X52698684Y-33236033D01*
X52698684Y-33236033D02*
X52798684Y-33269366D01*
X52798684Y-33269366D02*
X52832017Y-33302700D01*
X53465351Y-33936033D02*
X53132017Y-33936033D01*
X53132017Y-33936033D02*
X53132017Y-33236033D01*
X51732017Y-50282700D02*
X51832017Y-50316033D01*
X51832017Y-50316033D02*
X51998684Y-50316033D01*
X51998684Y-50316033D02*
X52065350Y-50282700D01*
X52065350Y-50282700D02*
X52098684Y-50249366D01*
X52098684Y-50249366D02*
X52132017Y-50182700D01*
X52132017Y-50182700D02*
X52132017Y-50116033D01*
X52132017Y-50116033D02*
X52098684Y-50049366D01*
X52098684Y-50049366D02*
X52065350Y-50016033D01*
X52065350Y-50016033D02*
X51998684Y-49982700D01*
X51998684Y-49982700D02*
X51865350Y-49949366D01*
X51865350Y-49949366D02*
X51798684Y-49916033D01*
X51798684Y-49916033D02*
X51765350Y-49882700D01*
X51765350Y-49882700D02*
X51732017Y-49816033D01*
X51732017Y-49816033D02*
X51732017Y-49749366D01*
X51732017Y-49749366D02*
X51765350Y-49682700D01*
X51765350Y-49682700D02*
X51798684Y-49649366D01*
X51798684Y-49649366D02*
X51865350Y-49616033D01*
X51865350Y-49616033D02*
X52032017Y-49616033D01*
X52032017Y-49616033D02*
X52132017Y-49649366D01*
X52832017Y-50249366D02*
X52798684Y-50282700D01*
X52798684Y-50282700D02*
X52698684Y-50316033D01*
X52698684Y-50316033D02*
X52632017Y-50316033D01*
X52632017Y-50316033D02*
X52532017Y-50282700D01*
X52532017Y-50282700D02*
X52465351Y-50216033D01*
X52465351Y-50216033D02*
X52432017Y-50149366D01*
X52432017Y-50149366D02*
X52398684Y-50016033D01*
X52398684Y-50016033D02*
X52398684Y-49916033D01*
X52398684Y-49916033D02*
X52432017Y-49782700D01*
X52432017Y-49782700D02*
X52465351Y-49716033D01*
X52465351Y-49716033D02*
X52532017Y-49649366D01*
X52532017Y-49649366D02*
X52632017Y-49616033D01*
X52632017Y-49616033D02*
X52698684Y-49616033D01*
X52698684Y-49616033D02*
X52798684Y-49649366D01*
X52798684Y-49649366D02*
X52832017Y-49682700D01*
X53465351Y-50316033D02*
X53132017Y-50316033D01*
X53132017Y-50316033D02*
X53132017Y-49616033D01*
X51732017Y-52822700D02*
X51832017Y-52856033D01*
X51832017Y-52856033D02*
X51998684Y-52856033D01*
X51998684Y-52856033D02*
X52065350Y-52822700D01*
X52065350Y-52822700D02*
X52098684Y-52789366D01*
X52098684Y-52789366D02*
X52132017Y-52722700D01*
X52132017Y-52722700D02*
X52132017Y-52656033D01*
X52132017Y-52656033D02*
X52098684Y-52589366D01*
X52098684Y-52589366D02*
X52065350Y-52556033D01*
X52065350Y-52556033D02*
X51998684Y-52522700D01*
X51998684Y-52522700D02*
X51865350Y-52489366D01*
X51865350Y-52489366D02*
X51798684Y-52456033D01*
X51798684Y-52456033D02*
X51765350Y-52422700D01*
X51765350Y-52422700D02*
X51732017Y-52356033D01*
X51732017Y-52356033D02*
X51732017Y-52289366D01*
X51732017Y-52289366D02*
X51765350Y-52222700D01*
X51765350Y-52222700D02*
X51798684Y-52189366D01*
X51798684Y-52189366D02*
X51865350Y-52156033D01*
X51865350Y-52156033D02*
X52032017Y-52156033D01*
X52032017Y-52156033D02*
X52132017Y-52189366D01*
X52432017Y-52856033D02*
X52432017Y-52156033D01*
X52432017Y-52156033D02*
X52598684Y-52156033D01*
X52598684Y-52156033D02*
X52698684Y-52189366D01*
X52698684Y-52189366D02*
X52765351Y-52256033D01*
X52765351Y-52256033D02*
X52798684Y-52322700D01*
X52798684Y-52322700D02*
X52832017Y-52456033D01*
X52832017Y-52456033D02*
X52832017Y-52556033D01*
X52832017Y-52556033D02*
X52798684Y-52689366D01*
X52798684Y-52689366D02*
X52765351Y-52756033D01*
X52765351Y-52756033D02*
X52698684Y-52822700D01*
X52698684Y-52822700D02*
X52598684Y-52856033D01*
X52598684Y-52856033D02*
X52432017Y-52856033D01*
X53098684Y-52656033D02*
X53432017Y-52656033D01*
X53032017Y-52856033D02*
X53265351Y-52156033D01*
X53265351Y-52156033D02*
X53498684Y-52856033D01*
X51765350Y-55129366D02*
X52298684Y-55129366D01*
X52032017Y-55396033D02*
X52032017Y-54862700D01*
X51765350Y-57669366D02*
X52298684Y-57669366D01*
X61765350Y-26049366D02*
X62298684Y-26049366D01*
X61765350Y-28589366D02*
X62298684Y-28589366D01*
X62032017Y-28856033D02*
X62032017Y-28322700D01*
X61732017Y-31362700D02*
X61832017Y-31396033D01*
X61832017Y-31396033D02*
X61998684Y-31396033D01*
X61998684Y-31396033D02*
X62065350Y-31362700D01*
X62065350Y-31362700D02*
X62098684Y-31329366D01*
X62098684Y-31329366D02*
X62132017Y-31262700D01*
X62132017Y-31262700D02*
X62132017Y-31196033D01*
X62132017Y-31196033D02*
X62098684Y-31129366D01*
X62098684Y-31129366D02*
X62065350Y-31096033D01*
X62065350Y-31096033D02*
X61998684Y-31062700D01*
X61998684Y-31062700D02*
X61865350Y-31029366D01*
X61865350Y-31029366D02*
X61798684Y-30996033D01*
X61798684Y-30996033D02*
X61765350Y-30962700D01*
X61765350Y-30962700D02*
X61732017Y-30896033D01*
X61732017Y-30896033D02*
X61732017Y-30829366D01*
X61732017Y-30829366D02*
X61765350Y-30762700D01*
X61765350Y-30762700D02*
X61798684Y-30729366D01*
X61798684Y-30729366D02*
X61865350Y-30696033D01*
X61865350Y-30696033D02*
X62032017Y-30696033D01*
X62032017Y-30696033D02*
X62132017Y-30729366D01*
X62432017Y-31396033D02*
X62432017Y-30696033D01*
X62432017Y-30696033D02*
X62598684Y-30696033D01*
X62598684Y-30696033D02*
X62698684Y-30729366D01*
X62698684Y-30729366D02*
X62765351Y-30796033D01*
X62765351Y-30796033D02*
X62798684Y-30862700D01*
X62798684Y-30862700D02*
X62832017Y-30996033D01*
X62832017Y-30996033D02*
X62832017Y-31096033D01*
X62832017Y-31096033D02*
X62798684Y-31229366D01*
X62798684Y-31229366D02*
X62765351Y-31296033D01*
X62765351Y-31296033D02*
X62698684Y-31362700D01*
X62698684Y-31362700D02*
X62598684Y-31396033D01*
X62598684Y-31396033D02*
X62432017Y-31396033D01*
X63098684Y-31196033D02*
X63432017Y-31196033D01*
X63032017Y-31396033D02*
X63265351Y-30696033D01*
X63265351Y-30696033D02*
X63498684Y-31396033D01*
X61732017Y-33902700D02*
X61832017Y-33936033D01*
X61832017Y-33936033D02*
X61998684Y-33936033D01*
X61998684Y-33936033D02*
X62065350Y-33902700D01*
X62065350Y-33902700D02*
X62098684Y-33869366D01*
X62098684Y-33869366D02*
X62132017Y-33802700D01*
X62132017Y-33802700D02*
X62132017Y-33736033D01*
X62132017Y-33736033D02*
X62098684Y-33669366D01*
X62098684Y-33669366D02*
X62065350Y-33636033D01*
X62065350Y-33636033D02*
X61998684Y-33602700D01*
X61998684Y-33602700D02*
X61865350Y-33569366D01*
X61865350Y-33569366D02*
X61798684Y-33536033D01*
X61798684Y-33536033D02*
X61765350Y-33502700D01*
X61765350Y-33502700D02*
X61732017Y-33436033D01*
X61732017Y-33436033D02*
X61732017Y-33369366D01*
X61732017Y-33369366D02*
X61765350Y-33302700D01*
X61765350Y-33302700D02*
X61798684Y-33269366D01*
X61798684Y-33269366D02*
X61865350Y-33236033D01*
X61865350Y-33236033D02*
X62032017Y-33236033D01*
X62032017Y-33236033D02*
X62132017Y-33269366D01*
X62832017Y-33869366D02*
X62798684Y-33902700D01*
X62798684Y-33902700D02*
X62698684Y-33936033D01*
X62698684Y-33936033D02*
X62632017Y-33936033D01*
X62632017Y-33936033D02*
X62532017Y-33902700D01*
X62532017Y-33902700D02*
X62465351Y-33836033D01*
X62465351Y-33836033D02*
X62432017Y-33769366D01*
X62432017Y-33769366D02*
X62398684Y-33636033D01*
X62398684Y-33636033D02*
X62398684Y-33536033D01*
X62398684Y-33536033D02*
X62432017Y-33402700D01*
X62432017Y-33402700D02*
X62465351Y-33336033D01*
X62465351Y-33336033D02*
X62532017Y-33269366D01*
X62532017Y-33269366D02*
X62632017Y-33236033D01*
X62632017Y-33236033D02*
X62698684Y-33236033D01*
X62698684Y-33236033D02*
X62798684Y-33269366D01*
X62798684Y-33269366D02*
X62832017Y-33302700D01*
X63465351Y-33936033D02*
X63132017Y-33936033D01*
X63132017Y-33936033D02*
X63132017Y-33236033D01*
X61732017Y-50282700D02*
X61832017Y-50316033D01*
X61832017Y-50316033D02*
X61998684Y-50316033D01*
X61998684Y-50316033D02*
X62065350Y-50282700D01*
X62065350Y-50282700D02*
X62098684Y-50249366D01*
X62098684Y-50249366D02*
X62132017Y-50182700D01*
X62132017Y-50182700D02*
X62132017Y-50116033D01*
X62132017Y-50116033D02*
X62098684Y-50049366D01*
X62098684Y-50049366D02*
X62065350Y-50016033D01*
X62065350Y-50016033D02*
X61998684Y-49982700D01*
X61998684Y-49982700D02*
X61865350Y-49949366D01*
X61865350Y-49949366D02*
X61798684Y-49916033D01*
X61798684Y-49916033D02*
X61765350Y-49882700D01*
X61765350Y-49882700D02*
X61732017Y-49816033D01*
X61732017Y-49816033D02*
X61732017Y-49749366D01*
X61732017Y-49749366D02*
X61765350Y-49682700D01*
X61765350Y-49682700D02*
X61798684Y-49649366D01*
X61798684Y-49649366D02*
X61865350Y-49616033D01*
X61865350Y-49616033D02*
X62032017Y-49616033D01*
X62032017Y-49616033D02*
X62132017Y-49649366D01*
X62832017Y-50249366D02*
X62798684Y-50282700D01*
X62798684Y-50282700D02*
X62698684Y-50316033D01*
X62698684Y-50316033D02*
X62632017Y-50316033D01*
X62632017Y-50316033D02*
X62532017Y-50282700D01*
X62532017Y-50282700D02*
X62465351Y-50216033D01*
X62465351Y-50216033D02*
X62432017Y-50149366D01*
X62432017Y-50149366D02*
X62398684Y-50016033D01*
X62398684Y-50016033D02*
X62398684Y-49916033D01*
X62398684Y-49916033D02*
X62432017Y-49782700D01*
X62432017Y-49782700D02*
X62465351Y-49716033D01*
X62465351Y-49716033D02*
X62532017Y-49649366D01*
X62532017Y-49649366D02*
X62632017Y-49616033D01*
X62632017Y-49616033D02*
X62698684Y-49616033D01*
X62698684Y-49616033D02*
X62798684Y-49649366D01*
X62798684Y-49649366D02*
X62832017Y-49682700D01*
X63465351Y-50316033D02*
X63132017Y-50316033D01*
X63132017Y-50316033D02*
X63132017Y-49616033D01*
X61732017Y-52822700D02*
X61832017Y-52856033D01*
X61832017Y-52856033D02*
X61998684Y-52856033D01*
X61998684Y-52856033D02*
X62065350Y-52822700D01*
X62065350Y-52822700D02*
X62098684Y-52789366D01*
X62098684Y-52789366D02*
X62132017Y-52722700D01*
X62132017Y-52722700D02*
X62132017Y-52656033D01*
X62132017Y-52656033D02*
X62098684Y-52589366D01*
X62098684Y-52589366D02*
X62065350Y-52556033D01*
X62065350Y-52556033D02*
X61998684Y-52522700D01*
X61998684Y-52522700D02*
X61865350Y-52489366D01*
X61865350Y-52489366D02*
X61798684Y-52456033D01*
X61798684Y-52456033D02*
X61765350Y-52422700D01*
X61765350Y-52422700D02*
X61732017Y-52356033D01*
X61732017Y-52356033D02*
X61732017Y-52289366D01*
X61732017Y-52289366D02*
X61765350Y-52222700D01*
X61765350Y-52222700D02*
X61798684Y-52189366D01*
X61798684Y-52189366D02*
X61865350Y-52156033D01*
X61865350Y-52156033D02*
X62032017Y-52156033D01*
X62032017Y-52156033D02*
X62132017Y-52189366D01*
X62432017Y-52856033D02*
X62432017Y-52156033D01*
X62432017Y-52156033D02*
X62598684Y-52156033D01*
X62598684Y-52156033D02*
X62698684Y-52189366D01*
X62698684Y-52189366D02*
X62765351Y-52256033D01*
X62765351Y-52256033D02*
X62798684Y-52322700D01*
X62798684Y-52322700D02*
X62832017Y-52456033D01*
X62832017Y-52456033D02*
X62832017Y-52556033D01*
X62832017Y-52556033D02*
X62798684Y-52689366D01*
X62798684Y-52689366D02*
X62765351Y-52756033D01*
X62765351Y-52756033D02*
X62698684Y-52822700D01*
X62698684Y-52822700D02*
X62598684Y-52856033D01*
X62598684Y-52856033D02*
X62432017Y-52856033D01*
X63098684Y-52656033D02*
X63432017Y-52656033D01*
X63032017Y-52856033D02*
X63265351Y-52156033D01*
X63265351Y-52156033D02*
X63498684Y-52856033D01*
X61765350Y-55129366D02*
X62298684Y-55129366D01*
X62032017Y-55396033D02*
X62032017Y-54862700D01*
X61765350Y-57669366D02*
X62298684Y-57669366D01*
X71765350Y-26049366D02*
X72298684Y-26049366D01*
X71765350Y-28589366D02*
X72298684Y-28589366D01*
X72032017Y-28856033D02*
X72032017Y-28322700D01*
X71732017Y-31362700D02*
X71832017Y-31396033D01*
X71832017Y-31396033D02*
X71998684Y-31396033D01*
X71998684Y-31396033D02*
X72065350Y-31362700D01*
X72065350Y-31362700D02*
X72098684Y-31329366D01*
X72098684Y-31329366D02*
X72132017Y-31262700D01*
X72132017Y-31262700D02*
X72132017Y-31196033D01*
X72132017Y-31196033D02*
X72098684Y-31129366D01*
X72098684Y-31129366D02*
X72065350Y-31096033D01*
X72065350Y-31096033D02*
X71998684Y-31062700D01*
X71998684Y-31062700D02*
X71865350Y-31029366D01*
X71865350Y-31029366D02*
X71798684Y-30996033D01*
X71798684Y-30996033D02*
X71765350Y-30962700D01*
X71765350Y-30962700D02*
X71732017Y-30896033D01*
X71732017Y-30896033D02*
X71732017Y-30829366D01*
X71732017Y-30829366D02*
X71765350Y-30762700D01*
X71765350Y-30762700D02*
X71798684Y-30729366D01*
X71798684Y-30729366D02*
X71865350Y-30696033D01*
X71865350Y-30696033D02*
X72032017Y-30696033D01*
X72032017Y-30696033D02*
X72132017Y-30729366D01*
X72432017Y-31396033D02*
X72432017Y-30696033D01*
X72432017Y-30696033D02*
X72598684Y-30696033D01*
X72598684Y-30696033D02*
X72698684Y-30729366D01*
X72698684Y-30729366D02*
X72765351Y-30796033D01*
X72765351Y-30796033D02*
X72798684Y-30862700D01*
X72798684Y-30862700D02*
X72832017Y-30996033D01*
X72832017Y-30996033D02*
X72832017Y-31096033D01*
X72832017Y-31096033D02*
X72798684Y-31229366D01*
X72798684Y-31229366D02*
X72765351Y-31296033D01*
X72765351Y-31296033D02*
X72698684Y-31362700D01*
X72698684Y-31362700D02*
X72598684Y-31396033D01*
X72598684Y-31396033D02*
X72432017Y-31396033D01*
X73098684Y-31196033D02*
X73432017Y-31196033D01*
X73032017Y-31396033D02*
X73265351Y-30696033D01*
X73265351Y-30696033D02*
X73498684Y-31396033D01*
X71732017Y-33902700D02*
X71832017Y-33936033D01*
X71832017Y-33936033D02*
X71998684Y-33936033D01*
X71998684Y-33936033D02*
X72065350Y-33902700D01*
X72065350Y-33902700D02*
X72098684Y-33869366D01*
X72098684Y-33869366D02*
X72132017Y-33802700D01*
X72132017Y-33802700D02*
X72132017Y-33736033D01*
X72132017Y-33736033D02*
X72098684Y-33669366D01*
X72098684Y-33669366D02*
X72065350Y-33636033D01*
X72065350Y-33636033D02*
X71998684Y-33602700D01*
X71998684Y-33602700D02*
X71865350Y-33569366D01*
X71865350Y-33569366D02*
X71798684Y-33536033D01*
X71798684Y-33536033D02*
X71765350Y-33502700D01*
X71765350Y-33502700D02*
X71732017Y-33436033D01*
X71732017Y-33436033D02*
X71732017Y-33369366D01*
X71732017Y-33369366D02*
X71765350Y-33302700D01*
X71765350Y-33302700D02*
X71798684Y-33269366D01*
X71798684Y-33269366D02*
X71865350Y-33236033D01*
X71865350Y-33236033D02*
X72032017Y-33236033D01*
X72032017Y-33236033D02*
X72132017Y-33269366D01*
X72832017Y-33869366D02*
X72798684Y-33902700D01*
X72798684Y-33902700D02*
X72698684Y-33936033D01*
X72698684Y-33936033D02*
X72632017Y-33936033D01*
X72632017Y-33936033D02*
X72532017Y-33902700D01*
X72532017Y-33902700D02*
X72465351Y-33836033D01*
X72465351Y-33836033D02*
X72432017Y-33769366D01*
X72432017Y-33769366D02*
X72398684Y-33636033D01*
X72398684Y-33636033D02*
X72398684Y-33536033D01*
X72398684Y-33536033D02*
X72432017Y-33402700D01*
X72432017Y-33402700D02*
X72465351Y-33336033D01*
X72465351Y-33336033D02*
X72532017Y-33269366D01*
X72532017Y-33269366D02*
X72632017Y-33236033D01*
X72632017Y-33236033D02*
X72698684Y-33236033D01*
X72698684Y-33236033D02*
X72798684Y-33269366D01*
X72798684Y-33269366D02*
X72832017Y-33302700D01*
X73465351Y-33936033D02*
X73132017Y-33936033D01*
X73132017Y-33936033D02*
X73132017Y-33236033D01*
X71732017Y-50282700D02*
X71832017Y-50316033D01*
X71832017Y-50316033D02*
X71998684Y-50316033D01*
X71998684Y-50316033D02*
X72065350Y-50282700D01*
X72065350Y-50282700D02*
X72098684Y-50249366D01*
X72098684Y-50249366D02*
X72132017Y-50182700D01*
X72132017Y-50182700D02*
X72132017Y-50116033D01*
X72132017Y-50116033D02*
X72098684Y-50049366D01*
X72098684Y-50049366D02*
X72065350Y-50016033D01*
X72065350Y-50016033D02*
X71998684Y-49982700D01*
X71998684Y-49982700D02*
X71865350Y-49949366D01*
X71865350Y-49949366D02*
X71798684Y-49916033D01*
X71798684Y-49916033D02*
X71765350Y-49882700D01*
X71765350Y-49882700D02*
X71732017Y-49816033D01*
X71732017Y-49816033D02*
X71732017Y-49749366D01*
X71732017Y-49749366D02*
X71765350Y-49682700D01*
X71765350Y-49682700D02*
X71798684Y-49649366D01*
X71798684Y-49649366D02*
X71865350Y-49616033D01*
X71865350Y-49616033D02*
X72032017Y-49616033D01*
X72032017Y-49616033D02*
X72132017Y-49649366D01*
X72832017Y-50249366D02*
X72798684Y-50282700D01*
X72798684Y-50282700D02*
X72698684Y-50316033D01*
X72698684Y-50316033D02*
X72632017Y-50316033D01*
X72632017Y-50316033D02*
X72532017Y-50282700D01*
X72532017Y-50282700D02*
X72465351Y-50216033D01*
X72465351Y-50216033D02*
X72432017Y-50149366D01*
X72432017Y-50149366D02*
X72398684Y-50016033D01*
X72398684Y-50016033D02*
X72398684Y-49916033D01*
X72398684Y-49916033D02*
X72432017Y-49782700D01*
X72432017Y-49782700D02*
X72465351Y-49716033D01*
X72465351Y-49716033D02*
X72532017Y-49649366D01*
X72532017Y-49649366D02*
X72632017Y-49616033D01*
X72632017Y-49616033D02*
X72698684Y-49616033D01*
X72698684Y-49616033D02*
X72798684Y-49649366D01*
X72798684Y-49649366D02*
X72832017Y-49682700D01*
X73465351Y-50316033D02*
X73132017Y-50316033D01*
X73132017Y-50316033D02*
X73132017Y-49616033D01*
X71732017Y-52822700D02*
X71832017Y-52856033D01*
X71832017Y-52856033D02*
X71998684Y-52856033D01*
X71998684Y-52856033D02*
X72065350Y-52822700D01*
X72065350Y-52822700D02*
X72098684Y-52789366D01*
X72098684Y-52789366D02*
X72132017Y-52722700D01*
X72132017Y-52722700D02*
X72132017Y-52656033D01*
X72132017Y-52656033D02*
X72098684Y-52589366D01*
X72098684Y-52589366D02*
X72065350Y-52556033D01*
X72065350Y-52556033D02*
X71998684Y-52522700D01*
X71998684Y-52522700D02*
X71865350Y-52489366D01*
X71865350Y-52489366D02*
X71798684Y-52456033D01*
X71798684Y-52456033D02*
X71765350Y-52422700D01*
X71765350Y-52422700D02*
X71732017Y-52356033D01*
X71732017Y-52356033D02*
X71732017Y-52289366D01*
X71732017Y-52289366D02*
X71765350Y-52222700D01*
X71765350Y-52222700D02*
X71798684Y-52189366D01*
X71798684Y-52189366D02*
X71865350Y-52156033D01*
X71865350Y-52156033D02*
X72032017Y-52156033D01*
X72032017Y-52156033D02*
X72132017Y-52189366D01*
X72432017Y-52856033D02*
X72432017Y-52156033D01*
X72432017Y-52156033D02*
X72598684Y-52156033D01*
X72598684Y-52156033D02*
X72698684Y-52189366D01*
X72698684Y-52189366D02*
X72765351Y-52256033D01*
X72765351Y-52256033D02*
X72798684Y-52322700D01*
X72798684Y-52322700D02*
X72832017Y-52456033D01*
X72832017Y-52456033D02*
X72832017Y-52556033D01*
X72832017Y-52556033D02*
X72798684Y-52689366D01*
X72798684Y-52689366D02*
X72765351Y-52756033D01*
X72765351Y-52756033D02*
X72698684Y-52822700D01*
X72698684Y-52822700D02*
X72598684Y-52856033D01*
X72598684Y-52856033D02*
X72432017Y-52856033D01*
X73098684Y-52656033D02*
X73432017Y-52656033D01*
X73032017Y-52856033D02*
X73265351Y-52156033D01*
X73265351Y-52156033D02*
X73498684Y-52856033D01*
X71765350Y-55129366D02*
X72298684Y-55129366D01*
X72032017Y-55396033D02*
X72032017Y-54862700D01*
X71765350Y-57669366D02*
X72298684Y-57669366D01*
X81765350Y-26049366D02*
X82298684Y-26049366D01*
X81765350Y-28589366D02*
X82298684Y-28589366D01*
X82032017Y-28856033D02*
X82032017Y-28322700D01*
X81732017Y-31362700D02*
X81832017Y-31396033D01*
X81832017Y-31396033D02*
X81998684Y-31396033D01*
X81998684Y-31396033D02*
X82065350Y-31362700D01*
X82065350Y-31362700D02*
X82098684Y-31329366D01*
X82098684Y-31329366D02*
X82132017Y-31262700D01*
X82132017Y-31262700D02*
X82132017Y-31196033D01*
X82132017Y-31196033D02*
X82098684Y-31129366D01*
X82098684Y-31129366D02*
X82065350Y-31096033D01*
X82065350Y-31096033D02*
X81998684Y-31062700D01*
X81998684Y-31062700D02*
X81865350Y-31029366D01*
X81865350Y-31029366D02*
X81798684Y-30996033D01*
X81798684Y-30996033D02*
X81765350Y-30962700D01*
X81765350Y-30962700D02*
X81732017Y-30896033D01*
X81732017Y-30896033D02*
X81732017Y-30829366D01*
X81732017Y-30829366D02*
X81765350Y-30762700D01*
X81765350Y-30762700D02*
X81798684Y-30729366D01*
X81798684Y-30729366D02*
X81865350Y-30696033D01*
X81865350Y-30696033D02*
X82032017Y-30696033D01*
X82032017Y-30696033D02*
X82132017Y-30729366D01*
X82432017Y-31396033D02*
X82432017Y-30696033D01*
X82432017Y-30696033D02*
X82598684Y-30696033D01*
X82598684Y-30696033D02*
X82698684Y-30729366D01*
X82698684Y-30729366D02*
X82765351Y-30796033D01*
X82765351Y-30796033D02*
X82798684Y-30862700D01*
X82798684Y-30862700D02*
X82832017Y-30996033D01*
X82832017Y-30996033D02*
X82832017Y-31096033D01*
X82832017Y-31096033D02*
X82798684Y-31229366D01*
X82798684Y-31229366D02*
X82765351Y-31296033D01*
X82765351Y-31296033D02*
X82698684Y-31362700D01*
X82698684Y-31362700D02*
X82598684Y-31396033D01*
X82598684Y-31396033D02*
X82432017Y-31396033D01*
X83098684Y-31196033D02*
X83432017Y-31196033D01*
X83032017Y-31396033D02*
X83265351Y-30696033D01*
X83265351Y-30696033D02*
X83498684Y-31396033D01*
X81732017Y-33902700D02*
X81832017Y-33936033D01*
X81832017Y-33936033D02*
X81998684Y-33936033D01*
X81998684Y-33936033D02*
X82065350Y-33902700D01*
X82065350Y-33902700D02*
X82098684Y-33869366D01*
X82098684Y-33869366D02*
X82132017Y-33802700D01*
X82132017Y-33802700D02*
X82132017Y-33736033D01*
X82132017Y-33736033D02*
X82098684Y-33669366D01*
X82098684Y-33669366D02*
X82065350Y-33636033D01*
X82065350Y-33636033D02*
X81998684Y-33602700D01*
X81998684Y-33602700D02*
X81865350Y-33569366D01*
X81865350Y-33569366D02*
X81798684Y-33536033D01*
X81798684Y-33536033D02*
X81765350Y-33502700D01*
X81765350Y-33502700D02*
X81732017Y-33436033D01*
X81732017Y-33436033D02*
X81732017Y-33369366D01*
X81732017Y-33369366D02*
X81765350Y-33302700D01*
X81765350Y-33302700D02*
X81798684Y-33269366D01*
X81798684Y-33269366D02*
X81865350Y-33236033D01*
X81865350Y-33236033D02*
X82032017Y-33236033D01*
X82032017Y-33236033D02*
X82132017Y-33269366D01*
X82832017Y-33869366D02*
X82798684Y-33902700D01*
X82798684Y-33902700D02*
X82698684Y-33936033D01*
X82698684Y-33936033D02*
X82632017Y-33936033D01*
X82632017Y-33936033D02*
X82532017Y-33902700D01*
X82532017Y-33902700D02*
X82465351Y-33836033D01*
X82465351Y-33836033D02*
X82432017Y-33769366D01*
X82432017Y-33769366D02*
X82398684Y-33636033D01*
X82398684Y-33636033D02*
X82398684Y-33536033D01*
X82398684Y-33536033D02*
X82432017Y-33402700D01*
X82432017Y-33402700D02*
X82465351Y-33336033D01*
X82465351Y-33336033D02*
X82532017Y-33269366D01*
X82532017Y-33269366D02*
X82632017Y-33236033D01*
X82632017Y-33236033D02*
X82698684Y-33236033D01*
X82698684Y-33236033D02*
X82798684Y-33269366D01*
X82798684Y-33269366D02*
X82832017Y-33302700D01*
X83465351Y-33936033D02*
X83132017Y-33936033D01*
X83132017Y-33936033D02*
X83132017Y-33236033D01*
X81732017Y-50282700D02*
X81832017Y-50316033D01*
X81832017Y-50316033D02*
X81998684Y-50316033D01*
X81998684Y-50316033D02*
X82065350Y-50282700D01*
X82065350Y-50282700D02*
X82098684Y-50249366D01*
X82098684Y-50249366D02*
X82132017Y-50182700D01*
X82132017Y-50182700D02*
X82132017Y-50116033D01*
X82132017Y-50116033D02*
X82098684Y-50049366D01*
X82098684Y-50049366D02*
X82065350Y-50016033D01*
X82065350Y-50016033D02*
X81998684Y-49982700D01*
X81998684Y-49982700D02*
X81865350Y-49949366D01*
X81865350Y-49949366D02*
X81798684Y-49916033D01*
X81798684Y-49916033D02*
X81765350Y-49882700D01*
X81765350Y-49882700D02*
X81732017Y-49816033D01*
X81732017Y-49816033D02*
X81732017Y-49749366D01*
X81732017Y-49749366D02*
X81765350Y-49682700D01*
X81765350Y-49682700D02*
X81798684Y-49649366D01*
X81798684Y-49649366D02*
X81865350Y-49616033D01*
X81865350Y-49616033D02*
X82032017Y-49616033D01*
X82032017Y-49616033D02*
X82132017Y-49649366D01*
X82832017Y-50249366D02*
X82798684Y-50282700D01*
X82798684Y-50282700D02*
X82698684Y-50316033D01*
X82698684Y-50316033D02*
X82632017Y-50316033D01*
X82632017Y-50316033D02*
X82532017Y-50282700D01*
X82532017Y-50282700D02*
X82465351Y-50216033D01*
X82465351Y-50216033D02*
X82432017Y-50149366D01*
X82432017Y-50149366D02*
X82398684Y-50016033D01*
X82398684Y-50016033D02*
X82398684Y-49916033D01*
X82398684Y-49916033D02*
X82432017Y-49782700D01*
X82432017Y-49782700D02*
X82465351Y-49716033D01*
X82465351Y-49716033D02*
X82532017Y-49649366D01*
X82532017Y-49649366D02*
X82632017Y-49616033D01*
X82632017Y-49616033D02*
X82698684Y-49616033D01*
X82698684Y-49616033D02*
X82798684Y-49649366D01*
X82798684Y-49649366D02*
X82832017Y-49682700D01*
X83465351Y-50316033D02*
X83132017Y-50316033D01*
X83132017Y-50316033D02*
X83132017Y-49616033D01*
X81732017Y-52822700D02*
X81832017Y-52856033D01*
X81832017Y-52856033D02*
X81998684Y-52856033D01*
X81998684Y-52856033D02*
X82065350Y-52822700D01*
X82065350Y-52822700D02*
X82098684Y-52789366D01*
X82098684Y-52789366D02*
X82132017Y-52722700D01*
X82132017Y-52722700D02*
X82132017Y-52656033D01*
X82132017Y-52656033D02*
X82098684Y-52589366D01*
X82098684Y-52589366D02*
X82065350Y-52556033D01*
X82065350Y-52556033D02*
X81998684Y-52522700D01*
X81998684Y-52522700D02*
X81865350Y-52489366D01*
X81865350Y-52489366D02*
X81798684Y-52456033D01*
X81798684Y-52456033D02*
X81765350Y-52422700D01*
X81765350Y-52422700D02*
X81732017Y-52356033D01*
X81732017Y-52356033D02*
X81732017Y-52289366D01*
X81732017Y-52289366D02*
X81765350Y-52222700D01*
X81765350Y-52222700D02*
X81798684Y-52189366D01*
X81798684Y-52189366D02*
X81865350Y-52156033D01*
X81865350Y-52156033D02*
X82032017Y-52156033D01*
X82032017Y-52156033D02*
X82132017Y-52189366D01*
X82432017Y-52856033D02*
X82432017Y-52156033D01*
X82432017Y-52156033D02*
X82598684Y-52156033D01*
X82598684Y-52156033D02*
X82698684Y-52189366D01*
X82698684Y-52189366D02*
X82765351Y-52256033D01*
X82765351Y-52256033D02*
X82798684Y-52322700D01*
X82798684Y-52322700D02*
X82832017Y-52456033D01*
X82832017Y-52456033D02*
X82832017Y-52556033D01*
X82832017Y-52556033D02*
X82798684Y-52689366D01*
X82798684Y-52689366D02*
X82765351Y-52756033D01*
X82765351Y-52756033D02*
X82698684Y-52822700D01*
X82698684Y-52822700D02*
X82598684Y-52856033D01*
X82598684Y-52856033D02*
X82432017Y-52856033D01*
X83098684Y-52656033D02*
X83432017Y-52656033D01*
X83032017Y-52856033D02*
X83265351Y-52156033D01*
X83265351Y-52156033D02*
X83498684Y-52856033D01*
X81765350Y-55129366D02*
X82298684Y-55129366D01*
X82032017Y-55396033D02*
X82032017Y-54862700D01*
X81765350Y-57669366D02*
X82298684Y-57669366D01*
X24276190Y-20762295D02*
X24009523Y-20381342D01*
X23819047Y-20762295D02*
X23819047Y-19962295D01*
X23819047Y-19962295D02*
X24123809Y-19962295D01*
X24123809Y-19962295D02*
X24199999Y-20000390D01*
X24199999Y-20000390D02*
X24238094Y-20038485D01*
X24238094Y-20038485D02*
X24276190Y-20114676D01*
X24276190Y-20114676D02*
X24276190Y-20228961D01*
X24276190Y-20228961D02*
X24238094Y-20305152D01*
X24238094Y-20305152D02*
X24199999Y-20343247D01*
X24199999Y-20343247D02*
X24123809Y-20381342D01*
X24123809Y-20381342D02*
X23819047Y-20381342D01*
X25038094Y-20762295D02*
X24580951Y-20762295D01*
X24809523Y-20762295D02*
X24809523Y-19962295D01*
X24809523Y-19962295D02*
X24733332Y-20076580D01*
X24733332Y-20076580D02*
X24657142Y-20152771D01*
X24657142Y-20152771D02*
X24580951Y-20190866D01*
X25952380Y-19924200D02*
X25266666Y-20952771D01*
X26676190Y-20762295D02*
X26409523Y-20381342D01*
X26219047Y-20762295D02*
X26219047Y-19962295D01*
X26219047Y-19962295D02*
X26523809Y-19962295D01*
X26523809Y-19962295D02*
X26599999Y-20000390D01*
X26599999Y-20000390D02*
X26638094Y-20038485D01*
X26638094Y-20038485D02*
X26676190Y-20114676D01*
X26676190Y-20114676D02*
X26676190Y-20228961D01*
X26676190Y-20228961D02*
X26638094Y-20305152D01*
X26638094Y-20305152D02*
X26599999Y-20343247D01*
X26599999Y-20343247D02*
X26523809Y-20381342D01*
X26523809Y-20381342D02*
X26219047Y-20381342D01*
X26980951Y-20038485D02*
X27019047Y-20000390D01*
X27019047Y-20000390D02*
X27095237Y-19962295D01*
X27095237Y-19962295D02*
X27285713Y-19962295D01*
X27285713Y-19962295D02*
X27361904Y-20000390D01*
X27361904Y-20000390D02*
X27399999Y-20038485D01*
X27399999Y-20038485D02*
X27438094Y-20114676D01*
X27438094Y-20114676D02*
X27438094Y-20190866D01*
X27438094Y-20190866D02*
X27399999Y-20305152D01*
X27399999Y-20305152D02*
X26942856Y-20762295D01*
X26942856Y-20762295D02*
X27438094Y-20762295D01*
X28733333Y-20228961D02*
X28733333Y-20762295D01*
X28542857Y-19924200D02*
X28352380Y-20495628D01*
X28352380Y-20495628D02*
X28847619Y-20495628D01*
X29152381Y-20762295D02*
X29152381Y-19962295D01*
X29228571Y-20457533D02*
X29457143Y-20762295D01*
X29457143Y-20228961D02*
X29152381Y-20533723D01*
X29723809Y-19962295D02*
X30257143Y-19962295D01*
X30257143Y-19962295D02*
X29914285Y-20762295D01*
X58933333Y-22022295D02*
X58933333Y-21222295D01*
X58933333Y-21222295D02*
X59238095Y-21222295D01*
X59238095Y-21222295D02*
X59314285Y-21260390D01*
X59314285Y-21260390D02*
X59352380Y-21298485D01*
X59352380Y-21298485D02*
X59390476Y-21374676D01*
X59390476Y-21374676D02*
X59390476Y-21488961D01*
X59390476Y-21488961D02*
X59352380Y-21565152D01*
X59352380Y-21565152D02*
X59314285Y-21603247D01*
X59314285Y-21603247D02*
X59238095Y-21641342D01*
X59238095Y-21641342D02*
X58933333Y-21641342D01*
X59657142Y-21222295D02*
X59847618Y-22022295D01*
X59847618Y-22022295D02*
X59999999Y-21450866D01*
X59999999Y-21450866D02*
X60152380Y-22022295D01*
X60152380Y-22022295D02*
X60342857Y-21222295D01*
X61104762Y-22022295D02*
X60838095Y-21641342D01*
X60647619Y-22022295D02*
X60647619Y-21222295D01*
X60647619Y-21222295D02*
X60952381Y-21222295D01*
X60952381Y-21222295D02*
X61028571Y-21260390D01*
X61028571Y-21260390D02*
X61066666Y-21298485D01*
X61066666Y-21298485D02*
X61104762Y-21374676D01*
X61104762Y-21374676D02*
X61104762Y-21488961D01*
X61104762Y-21488961D02*
X61066666Y-21565152D01*
X61066666Y-21565152D02*
X61028571Y-21603247D01*
X61028571Y-21603247D02*
X60952381Y-21641342D01*
X60952381Y-21641342D02*
X60647619Y-21641342D01*
X32971428Y-20465700D02*
X33657143Y-20465700D01*
X33314285Y-20808557D02*
X33314285Y-20122842D01*
X34771428Y-20337128D02*
X35457143Y-20337128D01*
X35457143Y-20594271D02*
X34771428Y-20594271D01*
X36485714Y-19908557D02*
X37042857Y-19908557D01*
X37042857Y-19908557D02*
X36742857Y-20251414D01*
X36742857Y-20251414D02*
X36871428Y-20251414D01*
X36871428Y-20251414D02*
X36957143Y-20294271D01*
X36957143Y-20294271D02*
X37000000Y-20337128D01*
X37000000Y-20337128D02*
X37042857Y-20422842D01*
X37042857Y-20422842D02*
X37042857Y-20637128D01*
X37042857Y-20637128D02*
X37000000Y-20722842D01*
X37000000Y-20722842D02*
X36957143Y-20765700D01*
X36957143Y-20765700D02*
X36871428Y-20808557D01*
X36871428Y-20808557D02*
X36614285Y-20808557D01*
X36614285Y-20808557D02*
X36528571Y-20765700D01*
X36528571Y-20765700D02*
X36485714Y-20722842D01*
X37300000Y-19908557D02*
X37600000Y-20808557D01*
X37600000Y-20808557D02*
X37900000Y-19908557D01*
X38114286Y-19908557D02*
X38671429Y-19908557D01*
X38671429Y-19908557D02*
X38371429Y-20251414D01*
X38371429Y-20251414D02*
X38500000Y-20251414D01*
X38500000Y-20251414D02*
X38585715Y-20294271D01*
X38585715Y-20294271D02*
X38628572Y-20337128D01*
X38628572Y-20337128D02*
X38671429Y-20422842D01*
X38671429Y-20422842D02*
X38671429Y-20637128D01*
X38671429Y-20637128D02*
X38628572Y-20722842D01*
X38628572Y-20722842D02*
X38585715Y-20765700D01*
X38585715Y-20765700D02*
X38500000Y-20808557D01*
X38500000Y-20808557D02*
X38242857Y-20808557D01*
X38242857Y-20808557D02*
X38157143Y-20765700D01*
X38157143Y-20765700D02*
X38114286Y-20722842D01*
X41114285Y-20465700D02*
X41800000Y-20465700D01*
X42914285Y-20337128D02*
X43600000Y-20337128D01*
X43600000Y-20594271D02*
X42914285Y-20594271D01*
X45185714Y-19951414D02*
X45100000Y-19908557D01*
X45100000Y-19908557D02*
X44971428Y-19908557D01*
X44971428Y-19908557D02*
X44842857Y-19951414D01*
X44842857Y-19951414D02*
X44757142Y-20037128D01*
X44757142Y-20037128D02*
X44714285Y-20122842D01*
X44714285Y-20122842D02*
X44671428Y-20294271D01*
X44671428Y-20294271D02*
X44671428Y-20422842D01*
X44671428Y-20422842D02*
X44714285Y-20594271D01*
X44714285Y-20594271D02*
X44757142Y-20679985D01*
X44757142Y-20679985D02*
X44842857Y-20765700D01*
X44842857Y-20765700D02*
X44971428Y-20808557D01*
X44971428Y-20808557D02*
X45057142Y-20808557D01*
X45057142Y-20808557D02*
X45185714Y-20765700D01*
X45185714Y-20765700D02*
X45228571Y-20722842D01*
X45228571Y-20722842D02*
X45228571Y-20422842D01*
X45228571Y-20422842D02*
X45057142Y-20422842D01*
X45614285Y-20808557D02*
X45614285Y-19908557D01*
X45614285Y-19908557D02*
X46128571Y-20808557D01*
X46128571Y-20808557D02*
X46128571Y-19908557D01*
X46557142Y-20808557D02*
X46557142Y-19908557D01*
X46557142Y-19908557D02*
X46771428Y-19908557D01*
X46771428Y-19908557D02*
X46899999Y-19951414D01*
X46899999Y-19951414D02*
X46985714Y-20037128D01*
X46985714Y-20037128D02*
X47028571Y-20122842D01*
X47028571Y-20122842D02*
X47071428Y-20294271D01*
X47071428Y-20294271D02*
X47071428Y-20422842D01*
X47071428Y-20422842D02*
X47028571Y-20594271D01*
X47028571Y-20594271D02*
X46985714Y-20679985D01*
X46985714Y-20679985D02*
X46899999Y-20765700D01*
X46899999Y-20765700D02*
X46771428Y-20808557D01*
X46771428Y-20808557D02*
X46557142Y-20808557D01*
X75157142Y-24865700D02*
X75842857Y-24865700D01*
X75157142Y-27405700D02*
X75842857Y-27405700D01*
X75499999Y-27748557D02*
X75499999Y-27062842D01*
X74407142Y-30245700D02*
X74535714Y-30288557D01*
X74535714Y-30288557D02*
X74749999Y-30288557D01*
X74749999Y-30288557D02*
X74835714Y-30245700D01*
X74835714Y-30245700D02*
X74878571Y-30202842D01*
X74878571Y-30202842D02*
X74921428Y-30117128D01*
X74921428Y-30117128D02*
X74921428Y-30031414D01*
X74921428Y-30031414D02*
X74878571Y-29945700D01*
X74878571Y-29945700D02*
X74835714Y-29902842D01*
X74835714Y-29902842D02*
X74749999Y-29859985D01*
X74749999Y-29859985D02*
X74578571Y-29817128D01*
X74578571Y-29817128D02*
X74492856Y-29774271D01*
X74492856Y-29774271D02*
X74449999Y-29731414D01*
X74449999Y-29731414D02*
X74407142Y-29645700D01*
X74407142Y-29645700D02*
X74407142Y-29559985D01*
X74407142Y-29559985D02*
X74449999Y-29474271D01*
X74449999Y-29474271D02*
X74492856Y-29431414D01*
X74492856Y-29431414D02*
X74578571Y-29388557D01*
X74578571Y-29388557D02*
X74792856Y-29388557D01*
X74792856Y-29388557D02*
X74921428Y-29431414D01*
X75307142Y-30288557D02*
X75307142Y-29388557D01*
X75307142Y-29388557D02*
X75521428Y-29388557D01*
X75521428Y-29388557D02*
X75649999Y-29431414D01*
X75649999Y-29431414D02*
X75735714Y-29517128D01*
X75735714Y-29517128D02*
X75778571Y-29602842D01*
X75778571Y-29602842D02*
X75821428Y-29774271D01*
X75821428Y-29774271D02*
X75821428Y-29902842D01*
X75821428Y-29902842D02*
X75778571Y-30074271D01*
X75778571Y-30074271D02*
X75735714Y-30159985D01*
X75735714Y-30159985D02*
X75649999Y-30245700D01*
X75649999Y-30245700D02*
X75521428Y-30288557D01*
X75521428Y-30288557D02*
X75307142Y-30288557D01*
X76164285Y-30031414D02*
X76592857Y-30031414D01*
X76078571Y-30288557D02*
X76378571Y-29388557D01*
X76378571Y-29388557D02*
X76678571Y-30288557D01*
X74428571Y-32785699D02*
X74557143Y-32828556D01*
X74557143Y-32828556D02*
X74771428Y-32828556D01*
X74771428Y-32828556D02*
X74857143Y-32785699D01*
X74857143Y-32785699D02*
X74900000Y-32742841D01*
X74900000Y-32742841D02*
X74942857Y-32657127D01*
X74942857Y-32657127D02*
X74942857Y-32571413D01*
X74942857Y-32571413D02*
X74900000Y-32485699D01*
X74900000Y-32485699D02*
X74857143Y-32442841D01*
X74857143Y-32442841D02*
X74771428Y-32399984D01*
X74771428Y-32399984D02*
X74600000Y-32357127D01*
X74600000Y-32357127D02*
X74514285Y-32314270D01*
X74514285Y-32314270D02*
X74471428Y-32271413D01*
X74471428Y-32271413D02*
X74428571Y-32185699D01*
X74428571Y-32185699D02*
X74428571Y-32099984D01*
X74428571Y-32099984D02*
X74471428Y-32014270D01*
X74471428Y-32014270D02*
X74514285Y-31971413D01*
X74514285Y-31971413D02*
X74600000Y-31928556D01*
X74600000Y-31928556D02*
X74814285Y-31928556D01*
X74814285Y-31928556D02*
X74942857Y-31971413D01*
X75842857Y-32742841D02*
X75800000Y-32785699D01*
X75800000Y-32785699D02*
X75671428Y-32828556D01*
X75671428Y-32828556D02*
X75585714Y-32828556D01*
X75585714Y-32828556D02*
X75457143Y-32785699D01*
X75457143Y-32785699D02*
X75371428Y-32699984D01*
X75371428Y-32699984D02*
X75328571Y-32614270D01*
X75328571Y-32614270D02*
X75285714Y-32442841D01*
X75285714Y-32442841D02*
X75285714Y-32314270D01*
X75285714Y-32314270D02*
X75328571Y-32142841D01*
X75328571Y-32142841D02*
X75371428Y-32057127D01*
X75371428Y-32057127D02*
X75457143Y-31971413D01*
X75457143Y-31971413D02*
X75585714Y-31928556D01*
X75585714Y-31928556D02*
X75671428Y-31928556D01*
X75671428Y-31928556D02*
X75800000Y-31971413D01*
X75800000Y-31971413D02*
X75842857Y-32014270D01*
X76657143Y-32828556D02*
X76228571Y-32828556D01*
X76228571Y-32828556D02*
X76228571Y-31928556D01*
X74428571Y-49165700D02*
X74557143Y-49208557D01*
X74557143Y-49208557D02*
X74771428Y-49208557D01*
X74771428Y-49208557D02*
X74857143Y-49165700D01*
X74857143Y-49165700D02*
X74900000Y-49122842D01*
X74900000Y-49122842D02*
X74942857Y-49037128D01*
X74942857Y-49037128D02*
X74942857Y-48951414D01*
X74942857Y-48951414D02*
X74900000Y-48865700D01*
X74900000Y-48865700D02*
X74857143Y-48822842D01*
X74857143Y-48822842D02*
X74771428Y-48779985D01*
X74771428Y-48779985D02*
X74600000Y-48737128D01*
X74600000Y-48737128D02*
X74514285Y-48694271D01*
X74514285Y-48694271D02*
X74471428Y-48651414D01*
X74471428Y-48651414D02*
X74428571Y-48565700D01*
X74428571Y-48565700D02*
X74428571Y-48479985D01*
X74428571Y-48479985D02*
X74471428Y-48394271D01*
X74471428Y-48394271D02*
X74514285Y-48351414D01*
X74514285Y-48351414D02*
X74600000Y-48308557D01*
X74600000Y-48308557D02*
X74814285Y-48308557D01*
X74814285Y-48308557D02*
X74942857Y-48351414D01*
X75842857Y-49122842D02*
X75800000Y-49165700D01*
X75800000Y-49165700D02*
X75671428Y-49208557D01*
X75671428Y-49208557D02*
X75585714Y-49208557D01*
X75585714Y-49208557D02*
X75457143Y-49165700D01*
X75457143Y-49165700D02*
X75371428Y-49079985D01*
X75371428Y-49079985D02*
X75328571Y-48994271D01*
X75328571Y-48994271D02*
X75285714Y-48822842D01*
X75285714Y-48822842D02*
X75285714Y-48694271D01*
X75285714Y-48694271D02*
X75328571Y-48522842D01*
X75328571Y-48522842D02*
X75371428Y-48437128D01*
X75371428Y-48437128D02*
X75457143Y-48351414D01*
X75457143Y-48351414D02*
X75585714Y-48308557D01*
X75585714Y-48308557D02*
X75671428Y-48308557D01*
X75671428Y-48308557D02*
X75800000Y-48351414D01*
X75800000Y-48351414D02*
X75842857Y-48394271D01*
X76657143Y-49208557D02*
X76228571Y-49208557D01*
X76228571Y-49208557D02*
X76228571Y-48308557D01*
X74407142Y-51705700D02*
X74535714Y-51748557D01*
X74535714Y-51748557D02*
X74749999Y-51748557D01*
X74749999Y-51748557D02*
X74835714Y-51705700D01*
X74835714Y-51705700D02*
X74878571Y-51662842D01*
X74878571Y-51662842D02*
X74921428Y-51577128D01*
X74921428Y-51577128D02*
X74921428Y-51491414D01*
X74921428Y-51491414D02*
X74878571Y-51405700D01*
X74878571Y-51405700D02*
X74835714Y-51362842D01*
X74835714Y-51362842D02*
X74749999Y-51319985D01*
X74749999Y-51319985D02*
X74578571Y-51277128D01*
X74578571Y-51277128D02*
X74492856Y-51234271D01*
X74492856Y-51234271D02*
X74449999Y-51191414D01*
X74449999Y-51191414D02*
X74407142Y-51105700D01*
X74407142Y-51105700D02*
X74407142Y-51019985D01*
X74407142Y-51019985D02*
X74449999Y-50934271D01*
X74449999Y-50934271D02*
X74492856Y-50891414D01*
X74492856Y-50891414D02*
X74578571Y-50848557D01*
X74578571Y-50848557D02*
X74792856Y-50848557D01*
X74792856Y-50848557D02*
X74921428Y-50891414D01*
X75307142Y-51748557D02*
X75307142Y-50848557D01*
X75307142Y-50848557D02*
X75521428Y-50848557D01*
X75521428Y-50848557D02*
X75649999Y-50891414D01*
X75649999Y-50891414D02*
X75735714Y-50977128D01*
X75735714Y-50977128D02*
X75778571Y-51062842D01*
X75778571Y-51062842D02*
X75821428Y-51234271D01*
X75821428Y-51234271D02*
X75821428Y-51362842D01*
X75821428Y-51362842D02*
X75778571Y-51534271D01*
X75778571Y-51534271D02*
X75735714Y-51619985D01*
X75735714Y-51619985D02*
X75649999Y-51705700D01*
X75649999Y-51705700D02*
X75521428Y-51748557D01*
X75521428Y-51748557D02*
X75307142Y-51748557D01*
X76164285Y-51491414D02*
X76592857Y-51491414D01*
X76078571Y-51748557D02*
X76378571Y-50848557D01*
X76378571Y-50848557D02*
X76678571Y-51748557D01*
X75157142Y-53945699D02*
X75842857Y-53945699D01*
X75499999Y-54288556D02*
X75499999Y-53602841D01*
X75157142Y-56485699D02*
X75842857Y-56485699D01*
X7238094Y-30644819D02*
X6761904Y-30644819D01*
X6761904Y-30644819D02*
X6761904Y-29644819D01*
X7999999Y-30644819D02*
X7999999Y-30121009D01*
X7999999Y-30121009D02*
X7952380Y-30025771D01*
X7952380Y-30025771D02*
X7857142Y-29978152D01*
X7857142Y-29978152D02*
X7666666Y-29978152D01*
X7666666Y-29978152D02*
X7571428Y-30025771D01*
X7999999Y-30597200D02*
X7904761Y-30644819D01*
X7904761Y-30644819D02*
X7666666Y-30644819D01*
X7666666Y-30644819D02*
X7571428Y-30597200D01*
X7571428Y-30597200D02*
X7523809Y-30501961D01*
X7523809Y-30501961D02*
X7523809Y-30406723D01*
X7523809Y-30406723D02*
X7571428Y-30311485D01*
X7571428Y-30311485D02*
X7666666Y-30263866D01*
X7666666Y-30263866D02*
X7904761Y-30263866D01*
X7904761Y-30263866D02*
X7999999Y-30216247D01*
X8476190Y-30644819D02*
X8476190Y-29644819D01*
X8476190Y-30025771D02*
X8571428Y-29978152D01*
X8571428Y-29978152D02*
X8761904Y-29978152D01*
X8761904Y-29978152D02*
X8857142Y-30025771D01*
X8857142Y-30025771D02*
X8904761Y-30073390D01*
X8904761Y-30073390D02*
X8952380Y-30168628D01*
X8952380Y-30168628D02*
X8952380Y-30454342D01*
X8952380Y-30454342D02*
X8904761Y-30549580D01*
X8904761Y-30549580D02*
X8857142Y-30597200D01*
X8857142Y-30597200D02*
X8761904Y-30644819D01*
X8761904Y-30644819D02*
X8571428Y-30644819D01*
X8571428Y-30644819D02*
X8476190Y-30597200D01*
X9666666Y-29644819D02*
X9666666Y-30359104D01*
X9666666Y-30359104D02*
X9619047Y-30501961D01*
X9619047Y-30501961D02*
X9523809Y-30597200D01*
X9523809Y-30597200D02*
X9380952Y-30644819D01*
X9380952Y-30644819D02*
X9285714Y-30644819D01*
X10571428Y-30644819D02*
X10571428Y-30121009D01*
X10571428Y-30121009D02*
X10523809Y-30025771D01*
X10523809Y-30025771D02*
X10428571Y-29978152D01*
X10428571Y-29978152D02*
X10238095Y-29978152D01*
X10238095Y-29978152D02*
X10142857Y-30025771D01*
X10571428Y-30597200D02*
X10476190Y-30644819D01*
X10476190Y-30644819D02*
X10238095Y-30644819D01*
X10238095Y-30644819D02*
X10142857Y-30597200D01*
X10142857Y-30597200D02*
X10095238Y-30501961D01*
X10095238Y-30501961D02*
X10095238Y-30406723D01*
X10095238Y-30406723D02*
X10142857Y-30311485D01*
X10142857Y-30311485D02*
X10238095Y-30263866D01*
X10238095Y-30263866D02*
X10476190Y-30263866D01*
X10476190Y-30263866D02*
X10571428Y-30216247D01*
X11476190Y-30597200D02*
X11380952Y-30644819D01*
X11380952Y-30644819D02*
X11190476Y-30644819D01*
X11190476Y-30644819D02*
X11095238Y-30597200D01*
X11095238Y-30597200D02*
X11047619Y-30549580D01*
X11047619Y-30549580D02*
X11000000Y-30454342D01*
X11000000Y-30454342D02*
X11000000Y-30168628D01*
X11000000Y-30168628D02*
X11047619Y-30073390D01*
X11047619Y-30073390D02*
X11095238Y-30025771D01*
X11095238Y-30025771D02*
X11190476Y-29978152D01*
X11190476Y-29978152D02*
X11380952Y-29978152D01*
X11380952Y-29978152D02*
X11476190Y-30025771D01*
X11904762Y-30644819D02*
X11904762Y-29644819D01*
X12000000Y-30263866D02*
X12285714Y-30644819D01*
X12285714Y-29978152D02*
X11904762Y-30359104D01*
X20955826Y-34304700D02*
X22098684Y-34304700D01*
X20955826Y-39384700D02*
X22098684Y-39384700D01*
X21527255Y-39956128D02*
X21527255Y-38813271D01*
X20884398Y-44964700D02*
X21098684Y-45036128D01*
X21098684Y-45036128D02*
X21455826Y-45036128D01*
X21455826Y-45036128D02*
X21598684Y-44964700D01*
X21598684Y-44964700D02*
X21670112Y-44893271D01*
X21670112Y-44893271D02*
X21741541Y-44750414D01*
X21741541Y-44750414D02*
X21741541Y-44607557D01*
X21741541Y-44607557D02*
X21670112Y-44464700D01*
X21670112Y-44464700D02*
X21598684Y-44393271D01*
X21598684Y-44393271D02*
X21455826Y-44321842D01*
X21455826Y-44321842D02*
X21170112Y-44250414D01*
X21170112Y-44250414D02*
X21027255Y-44178985D01*
X21027255Y-44178985D02*
X20955826Y-44107557D01*
X20955826Y-44107557D02*
X20884398Y-43964700D01*
X20884398Y-43964700D02*
X20884398Y-43821842D01*
X20884398Y-43821842D02*
X20955826Y-43678985D01*
X20955826Y-43678985D02*
X21027255Y-43607557D01*
X21027255Y-43607557D02*
X21170112Y-43536128D01*
X21170112Y-43536128D02*
X21527255Y-43536128D01*
X21527255Y-43536128D02*
X21741541Y-43607557D01*
X22384397Y-45036128D02*
X22384397Y-43536128D01*
X22384397Y-43536128D02*
X22741540Y-43536128D01*
X22741540Y-43536128D02*
X22955826Y-43607557D01*
X22955826Y-43607557D02*
X23098683Y-43750414D01*
X23098683Y-43750414D02*
X23170112Y-43893271D01*
X23170112Y-43893271D02*
X23241540Y-44178985D01*
X23241540Y-44178985D02*
X23241540Y-44393271D01*
X23241540Y-44393271D02*
X23170112Y-44678985D01*
X23170112Y-44678985D02*
X23098683Y-44821842D01*
X23098683Y-44821842D02*
X22955826Y-44964700D01*
X22955826Y-44964700D02*
X22741540Y-45036128D01*
X22741540Y-45036128D02*
X22384397Y-45036128D01*
X23812969Y-44607557D02*
X24527255Y-44607557D01*
X23670112Y-45036128D02*
X24170112Y-43536128D01*
X24170112Y-43536128D02*
X24670112Y-45036128D01*
X20884398Y-50044700D02*
X21098684Y-50116128D01*
X21098684Y-50116128D02*
X21455826Y-50116128D01*
X21455826Y-50116128D02*
X21598684Y-50044700D01*
X21598684Y-50044700D02*
X21670112Y-49973271D01*
X21670112Y-49973271D02*
X21741541Y-49830414D01*
X21741541Y-49830414D02*
X21741541Y-49687557D01*
X21741541Y-49687557D02*
X21670112Y-49544700D01*
X21670112Y-49544700D02*
X21598684Y-49473271D01*
X21598684Y-49473271D02*
X21455826Y-49401842D01*
X21455826Y-49401842D02*
X21170112Y-49330414D01*
X21170112Y-49330414D02*
X21027255Y-49258985D01*
X21027255Y-49258985D02*
X20955826Y-49187557D01*
X20955826Y-49187557D02*
X20884398Y-49044700D01*
X20884398Y-49044700D02*
X20884398Y-48901842D01*
X20884398Y-48901842D02*
X20955826Y-48758985D01*
X20955826Y-48758985D02*
X21027255Y-48687557D01*
X21027255Y-48687557D02*
X21170112Y-48616128D01*
X21170112Y-48616128D02*
X21527255Y-48616128D01*
X21527255Y-48616128D02*
X21741541Y-48687557D01*
X23241540Y-49973271D02*
X23170112Y-50044700D01*
X23170112Y-50044700D02*
X22955826Y-50116128D01*
X22955826Y-50116128D02*
X22812969Y-50116128D01*
X22812969Y-50116128D02*
X22598683Y-50044700D01*
X22598683Y-50044700D02*
X22455826Y-49901842D01*
X22455826Y-49901842D02*
X22384397Y-49758985D01*
X22384397Y-49758985D02*
X22312969Y-49473271D01*
X22312969Y-49473271D02*
X22312969Y-49258985D01*
X22312969Y-49258985D02*
X22384397Y-48973271D01*
X22384397Y-48973271D02*
X22455826Y-48830414D01*
X22455826Y-48830414D02*
X22598683Y-48687557D01*
X22598683Y-48687557D02*
X22812969Y-48616128D01*
X22812969Y-48616128D02*
X22955826Y-48616128D01*
X22955826Y-48616128D02*
X23170112Y-48687557D01*
X23170112Y-48687557D02*
X23241540Y-48758985D01*
X24598683Y-50116128D02*
X23884397Y-50116128D01*
X23884397Y-50116128D02*
X23884397Y-48616128D01*
X31464285Y-18686128D02*
X31464285Y-17186128D01*
X32107143Y-17328985D02*
X32178571Y-17257557D01*
X32178571Y-17257557D02*
X32321429Y-17186128D01*
X32321429Y-17186128D02*
X32678571Y-17186128D01*
X32678571Y-17186128D02*
X32821429Y-17257557D01*
X32821429Y-17257557D02*
X32892857Y-17328985D01*
X32892857Y-17328985D02*
X32964286Y-17471842D01*
X32964286Y-17471842D02*
X32964286Y-17614700D01*
X32964286Y-17614700D02*
X32892857Y-17828985D01*
X32892857Y-17828985D02*
X32035714Y-18686128D01*
X32035714Y-18686128D02*
X32964286Y-18686128D01*
X34464285Y-18543271D02*
X34392857Y-18614700D01*
X34392857Y-18614700D02*
X34178571Y-18686128D01*
X34178571Y-18686128D02*
X34035714Y-18686128D01*
X34035714Y-18686128D02*
X33821428Y-18614700D01*
X33821428Y-18614700D02*
X33678571Y-18471842D01*
X33678571Y-18471842D02*
X33607142Y-18328985D01*
X33607142Y-18328985D02*
X33535714Y-18043271D01*
X33535714Y-18043271D02*
X33535714Y-17828985D01*
X33535714Y-17828985D02*
X33607142Y-17543271D01*
X33607142Y-17543271D02*
X33678571Y-17400414D01*
X33678571Y-17400414D02*
X33821428Y-17257557D01*
X33821428Y-17257557D02*
X34035714Y-17186128D01*
X34035714Y-17186128D02*
X34178571Y-17186128D01*
X34178571Y-17186128D02*
X34392857Y-17257557D01*
X34392857Y-17257557D02*
X34464285Y-17328985D01*
X36749999Y-17900414D02*
X36964285Y-17971842D01*
X36964285Y-17971842D02*
X37035714Y-18043271D01*
X37035714Y-18043271D02*
X37107142Y-18186128D01*
X37107142Y-18186128D02*
X37107142Y-18400414D01*
X37107142Y-18400414D02*
X37035714Y-18543271D01*
X37035714Y-18543271D02*
X36964285Y-18614700D01*
X36964285Y-18614700D02*
X36821428Y-18686128D01*
X36821428Y-18686128D02*
X36249999Y-18686128D01*
X36249999Y-18686128D02*
X36249999Y-17186128D01*
X36249999Y-17186128D02*
X36749999Y-17186128D01*
X36749999Y-17186128D02*
X36892857Y-17257557D01*
X36892857Y-17257557D02*
X36964285Y-17328985D01*
X36964285Y-17328985D02*
X37035714Y-17471842D01*
X37035714Y-17471842D02*
X37035714Y-17614700D01*
X37035714Y-17614700D02*
X36964285Y-17757557D01*
X36964285Y-17757557D02*
X36892857Y-17828985D01*
X36892857Y-17828985D02*
X36749999Y-17900414D01*
X36749999Y-17900414D02*
X36249999Y-17900414D01*
X37749999Y-17186128D02*
X37749999Y-18400414D01*
X37749999Y-18400414D02*
X37821428Y-18543271D01*
X37821428Y-18543271D02*
X37892857Y-18614700D01*
X37892857Y-18614700D02*
X38035714Y-18686128D01*
X38035714Y-18686128D02*
X38321428Y-18686128D01*
X38321428Y-18686128D02*
X38464285Y-18614700D01*
X38464285Y-18614700D02*
X38535714Y-18543271D01*
X38535714Y-18543271D02*
X38607142Y-18400414D01*
X38607142Y-18400414D02*
X38607142Y-17186128D01*
X39250000Y-18614700D02*
X39464286Y-18686128D01*
X39464286Y-18686128D02*
X39821428Y-18686128D01*
X39821428Y-18686128D02*
X39964286Y-18614700D01*
X39964286Y-18614700D02*
X40035714Y-18543271D01*
X40035714Y-18543271D02*
X40107143Y-18400414D01*
X40107143Y-18400414D02*
X40107143Y-18257557D01*
X40107143Y-18257557D02*
X40035714Y-18114700D01*
X40035714Y-18114700D02*
X39964286Y-18043271D01*
X39964286Y-18043271D02*
X39821428Y-17971842D01*
X39821428Y-17971842D02*
X39535714Y-17900414D01*
X39535714Y-17900414D02*
X39392857Y-17828985D01*
X39392857Y-17828985D02*
X39321428Y-17757557D01*
X39321428Y-17757557D02*
X39250000Y-17614700D01*
X39250000Y-17614700D02*
X39250000Y-17471842D01*
X39250000Y-17471842D02*
X39321428Y-17328985D01*
X39321428Y-17328985D02*
X39392857Y-17257557D01*
X39392857Y-17257557D02*
X39535714Y-17186128D01*
X39535714Y-17186128D02*
X39892857Y-17186128D01*
X39892857Y-17186128D02*
X40107143Y-17257557D01*
X42392856Y-17900414D02*
X42607142Y-17971842D01*
X42607142Y-17971842D02*
X42678571Y-18043271D01*
X42678571Y-18043271D02*
X42749999Y-18186128D01*
X42749999Y-18186128D02*
X42749999Y-18400414D01*
X42749999Y-18400414D02*
X42678571Y-18543271D01*
X42678571Y-18543271D02*
X42607142Y-18614700D01*
X42607142Y-18614700D02*
X42464285Y-18686128D01*
X42464285Y-18686128D02*
X41892856Y-18686128D01*
X41892856Y-18686128D02*
X41892856Y-17186128D01*
X41892856Y-17186128D02*
X42392856Y-17186128D01*
X42392856Y-17186128D02*
X42535714Y-17257557D01*
X42535714Y-17257557D02*
X42607142Y-17328985D01*
X42607142Y-17328985D02*
X42678571Y-17471842D01*
X42678571Y-17471842D02*
X42678571Y-17614700D01*
X42678571Y-17614700D02*
X42607142Y-17757557D01*
X42607142Y-17757557D02*
X42535714Y-17828985D01*
X42535714Y-17828985D02*
X42392856Y-17900414D01*
X42392856Y-17900414D02*
X41892856Y-17900414D01*
X43678571Y-17186128D02*
X43964285Y-17186128D01*
X43964285Y-17186128D02*
X44107142Y-17257557D01*
X44107142Y-17257557D02*
X44249999Y-17400414D01*
X44249999Y-17400414D02*
X44321428Y-17686128D01*
X44321428Y-17686128D02*
X44321428Y-18186128D01*
X44321428Y-18186128D02*
X44249999Y-18471842D01*
X44249999Y-18471842D02*
X44107142Y-18614700D01*
X44107142Y-18614700D02*
X43964285Y-18686128D01*
X43964285Y-18686128D02*
X43678571Y-18686128D01*
X43678571Y-18686128D02*
X43535714Y-18614700D01*
X43535714Y-18614700D02*
X43392856Y-18471842D01*
X43392856Y-18471842D02*
X43321428Y-18186128D01*
X43321428Y-18186128D02*
X43321428Y-17686128D01*
X43321428Y-17686128D02*
X43392856Y-17400414D01*
X43392856Y-17400414D02*
X43535714Y-17257557D01*
X43535714Y-17257557D02*
X43678571Y-17186128D01*
X44892857Y-18257557D02*
X45607143Y-18257557D01*
X44750000Y-18686128D02*
X45250000Y-17186128D01*
X45250000Y-17186128D02*
X45750000Y-18686128D01*
X47107142Y-18686128D02*
X46607142Y-17971842D01*
X46249999Y-18686128D02*
X46249999Y-17186128D01*
X46249999Y-17186128D02*
X46821428Y-17186128D01*
X46821428Y-17186128D02*
X46964285Y-17257557D01*
X46964285Y-17257557D02*
X47035714Y-17328985D01*
X47035714Y-17328985D02*
X47107142Y-17471842D01*
X47107142Y-17471842D02*
X47107142Y-17686128D01*
X47107142Y-17686128D02*
X47035714Y-17828985D01*
X47035714Y-17828985D02*
X46964285Y-17900414D01*
X46964285Y-17900414D02*
X46821428Y-17971842D01*
X46821428Y-17971842D02*
X46249999Y-17971842D01*
X47749999Y-18686128D02*
X47749999Y-17186128D01*
X47749999Y-17186128D02*
X48107142Y-17186128D01*
X48107142Y-17186128D02*
X48321428Y-17257557D01*
X48321428Y-17257557D02*
X48464285Y-17400414D01*
X48464285Y-17400414D02*
X48535714Y-17543271D01*
X48535714Y-17543271D02*
X48607142Y-17828985D01*
X48607142Y-17828985D02*
X48607142Y-18043271D01*
X48607142Y-18043271D02*
X48535714Y-18328985D01*
X48535714Y-18328985D02*
X48464285Y-18471842D01*
X48464285Y-18471842D02*
X48321428Y-18614700D01*
X48321428Y-18614700D02*
X48107142Y-18686128D01*
X48107142Y-18686128D02*
X47749999Y-18686128D01*
X40428572Y-24286128D02*
X39571429Y-24286128D01*
X40000000Y-24286128D02*
X40000000Y-22786128D01*
X40000000Y-22786128D02*
X39857143Y-23000414D01*
X39857143Y-23000414D02*
X39714286Y-23143271D01*
X39714286Y-23143271D02*
X39571429Y-23214700D01*
X40285715Y-46786128D02*
X40000000Y-46786128D01*
X40000000Y-46786128D02*
X39857143Y-46857557D01*
X39857143Y-46857557D02*
X39785715Y-46928985D01*
X39785715Y-46928985D02*
X39642857Y-47143271D01*
X39642857Y-47143271D02*
X39571429Y-47428985D01*
X39571429Y-47428985D02*
X39571429Y-48000414D01*
X39571429Y-48000414D02*
X39642857Y-48143271D01*
X39642857Y-48143271D02*
X39714286Y-48214700D01*
X39714286Y-48214700D02*
X39857143Y-48286128D01*
X39857143Y-48286128D02*
X40142857Y-48286128D01*
X40142857Y-48286128D02*
X40285715Y-48214700D01*
X40285715Y-48214700D02*
X40357143Y-48143271D01*
X40357143Y-48143271D02*
X40428572Y-48000414D01*
X40428572Y-48000414D02*
X40428572Y-47643271D01*
X40428572Y-47643271D02*
X40357143Y-47500414D01*
X40357143Y-47500414D02*
X40285715Y-47428985D01*
X40285715Y-47428985D02*
X40142857Y-47357557D01*
X40142857Y-47357557D02*
X39857143Y-47357557D01*
X39857143Y-47357557D02*
X39714286Y-47428985D01*
X39714286Y-47428985D02*
X39642857Y-47500414D01*
X39642857Y-47500414D02*
X39571429Y-47643271D01*
X49571429Y-22928985D02*
X49642857Y-22857557D01*
X49642857Y-22857557D02*
X49785715Y-22786128D01*
X49785715Y-22786128D02*
X50142857Y-22786128D01*
X50142857Y-22786128D02*
X50285715Y-22857557D01*
X50285715Y-22857557D02*
X50357143Y-22928985D01*
X50357143Y-22928985D02*
X50428572Y-23071842D01*
X50428572Y-23071842D02*
X50428572Y-23214700D01*
X50428572Y-23214700D02*
X50357143Y-23428985D01*
X50357143Y-23428985D02*
X49500000Y-24286128D01*
X49500000Y-24286128D02*
X50428572Y-24286128D01*
X49500000Y-46786128D02*
X50500000Y-46786128D01*
X50500000Y-46786128D02*
X49857143Y-48286128D01*
X59500000Y-22786128D02*
X60428572Y-22786128D01*
X60428572Y-22786128D02*
X59928572Y-23357557D01*
X59928572Y-23357557D02*
X60142857Y-23357557D01*
X60142857Y-23357557D02*
X60285715Y-23428985D01*
X60285715Y-23428985D02*
X60357143Y-23500414D01*
X60357143Y-23500414D02*
X60428572Y-23643271D01*
X60428572Y-23643271D02*
X60428572Y-24000414D01*
X60428572Y-24000414D02*
X60357143Y-24143271D01*
X60357143Y-24143271D02*
X60285715Y-24214700D01*
X60285715Y-24214700D02*
X60142857Y-24286128D01*
X60142857Y-24286128D02*
X59714286Y-24286128D01*
X59714286Y-24286128D02*
X59571429Y-24214700D01*
X59571429Y-24214700D02*
X59500000Y-24143271D01*
X59857143Y-47428985D02*
X59714286Y-47357557D01*
X59714286Y-47357557D02*
X59642857Y-47286128D01*
X59642857Y-47286128D02*
X59571429Y-47143271D01*
X59571429Y-47143271D02*
X59571429Y-47071842D01*
X59571429Y-47071842D02*
X59642857Y-46928985D01*
X59642857Y-46928985D02*
X59714286Y-46857557D01*
X59714286Y-46857557D02*
X59857143Y-46786128D01*
X59857143Y-46786128D02*
X60142857Y-46786128D01*
X60142857Y-46786128D02*
X60285715Y-46857557D01*
X60285715Y-46857557D02*
X60357143Y-46928985D01*
X60357143Y-46928985D02*
X60428572Y-47071842D01*
X60428572Y-47071842D02*
X60428572Y-47143271D01*
X60428572Y-47143271D02*
X60357143Y-47286128D01*
X60357143Y-47286128D02*
X60285715Y-47357557D01*
X60285715Y-47357557D02*
X60142857Y-47428985D01*
X60142857Y-47428985D02*
X59857143Y-47428985D01*
X59857143Y-47428985D02*
X59714286Y-47500414D01*
X59714286Y-47500414D02*
X59642857Y-47571842D01*
X59642857Y-47571842D02*
X59571429Y-47714700D01*
X59571429Y-47714700D02*
X59571429Y-48000414D01*
X59571429Y-48000414D02*
X59642857Y-48143271D01*
X59642857Y-48143271D02*
X59714286Y-48214700D01*
X59714286Y-48214700D02*
X59857143Y-48286128D01*
X59857143Y-48286128D02*
X60142857Y-48286128D01*
X60142857Y-48286128D02*
X60285715Y-48214700D01*
X60285715Y-48214700D02*
X60357143Y-48143271D01*
X60357143Y-48143271D02*
X60428572Y-48000414D01*
X60428572Y-48000414D02*
X60428572Y-47714700D01*
X60428572Y-47714700D02*
X60357143Y-47571842D01*
X60357143Y-47571842D02*
X60285715Y-47500414D01*
X60285715Y-47500414D02*
X60142857Y-47428985D01*
X70285715Y-23286128D02*
X70285715Y-24286128D01*
X69928572Y-22714700D02*
X69571429Y-23786128D01*
X69571429Y-23786128D02*
X70500000Y-23786128D01*
X69714286Y-48286128D02*
X70000000Y-48286128D01*
X70000000Y-48286128D02*
X70142857Y-48214700D01*
X70142857Y-48214700D02*
X70214286Y-48143271D01*
X70214286Y-48143271D02*
X70357143Y-47928985D01*
X70357143Y-47928985D02*
X70428572Y-47643271D01*
X70428572Y-47643271D02*
X70428572Y-47071842D01*
X70428572Y-47071842D02*
X70357143Y-46928985D01*
X70357143Y-46928985D02*
X70285715Y-46857557D01*
X70285715Y-46857557D02*
X70142857Y-46786128D01*
X70142857Y-46786128D02*
X69857143Y-46786128D01*
X69857143Y-46786128D02*
X69714286Y-46857557D01*
X69714286Y-46857557D02*
X69642857Y-46928985D01*
X69642857Y-46928985D02*
X69571429Y-47071842D01*
X69571429Y-47071842D02*
X69571429Y-47428985D01*
X69571429Y-47428985D02*
X69642857Y-47571842D01*
X69642857Y-47571842D02*
X69714286Y-47643271D01*
X69714286Y-47643271D02*
X69857143Y-47714700D01*
X69857143Y-47714700D02*
X70142857Y-47714700D01*
X70142857Y-47714700D02*
X70285715Y-47643271D01*
X70285715Y-47643271D02*
X70357143Y-47571842D01*
X70357143Y-47571842D02*
X70428572Y-47428985D01*
X80357143Y-22786128D02*
X79642857Y-22786128D01*
X79642857Y-22786128D02*
X79571429Y-23500414D01*
X79571429Y-23500414D02*
X79642857Y-23428985D01*
X79642857Y-23428985D02*
X79785715Y-23357557D01*
X79785715Y-23357557D02*
X80142857Y-23357557D01*
X80142857Y-23357557D02*
X80285715Y-23428985D01*
X80285715Y-23428985D02*
X80357143Y-23500414D01*
X80357143Y-23500414D02*
X80428572Y-23643271D01*
X80428572Y-23643271D02*
X80428572Y-24000414D01*
X80428572Y-24000414D02*
X80357143Y-24143271D01*
X80357143Y-24143271D02*
X80285715Y-24214700D01*
X80285715Y-24214700D02*
X80142857Y-24286128D01*
X80142857Y-24286128D02*
X79785715Y-24286128D01*
X79785715Y-24286128D02*
X79642857Y-24214700D01*
X79642857Y-24214700D02*
X79571429Y-24143271D01*
X79714286Y-48286128D02*
X78857143Y-48286128D01*
X79285714Y-48286128D02*
X79285714Y-46786128D01*
X79285714Y-46786128D02*
X79142857Y-47000414D01*
X79142857Y-47000414D02*
X79000000Y-47143271D01*
X79000000Y-47143271D02*
X78857143Y-47214700D01*
X80642857Y-46786128D02*
X80785714Y-46786128D01*
X80785714Y-46786128D02*
X80928571Y-46857557D01*
X80928571Y-46857557D02*
X81000000Y-46928985D01*
X81000000Y-46928985D02*
X81071428Y-47071842D01*
X81071428Y-47071842D02*
X81142857Y-47357557D01*
X81142857Y-47357557D02*
X81142857Y-47714700D01*
X81142857Y-47714700D02*
X81071428Y-48000414D01*
X81071428Y-48000414D02*
X81000000Y-48143271D01*
X81000000Y-48143271D02*
X80928571Y-48214700D01*
X80928571Y-48214700D02*
X80785714Y-48286128D01*
X80785714Y-48286128D02*
X80642857Y-48286128D01*
X80642857Y-48286128D02*
X80500000Y-48214700D01*
X80500000Y-48214700D02*
X80428571Y-48143271D01*
X80428571Y-48143271D02*
X80357142Y-48000414D01*
X80357142Y-48000414D02*
X80285714Y-47714700D01*
X80285714Y-47714700D02*
X80285714Y-47357557D01*
X80285714Y-47357557D02*
X80357142Y-47071842D01*
X80357142Y-47071842D02*
X80428571Y-46928985D01*
X80428571Y-46928985D02*
X80500000Y-46857557D01*
X80500000Y-46857557D02*
X80642857Y-46786128D01*
X53084819Y-26166666D02*
X52608628Y-26499999D01*
X53084819Y-26738094D02*
X52084819Y-26738094D01*
X52084819Y-26738094D02*
X52084819Y-26357142D01*
X52084819Y-26357142D02*
X52132438Y-26261904D01*
X52132438Y-26261904D02*
X52180057Y-26214285D01*
X52180057Y-26214285D02*
X52275295Y-26166666D01*
X52275295Y-26166666D02*
X52418152Y-26166666D01*
X52418152Y-26166666D02*
X52513390Y-26214285D01*
X52513390Y-26214285D02*
X52561009Y-26261904D01*
X52561009Y-26261904D02*
X52608628Y-26357142D01*
X52608628Y-26357142D02*
X52608628Y-26738094D01*
X52084819Y-25833332D02*
X52084819Y-25214285D01*
X52084819Y-25214285D02*
X52465771Y-25547618D01*
X52465771Y-25547618D02*
X52465771Y-25404761D01*
X52465771Y-25404761D02*
X52513390Y-25309523D01*
X52513390Y-25309523D02*
X52561009Y-25261904D01*
X52561009Y-25261904D02*
X52656247Y-25214285D01*
X52656247Y-25214285D02*
X52894342Y-25214285D01*
X52894342Y-25214285D02*
X52989580Y-25261904D01*
X52989580Y-25261904D02*
X53037200Y-25309523D01*
X53037200Y-25309523D02*
X53084819Y-25404761D01*
X53084819Y-25404761D02*
X53084819Y-25690475D01*
X53084819Y-25690475D02*
X53037200Y-25785713D01*
X53037200Y-25785713D02*
X52989580Y-25833332D01*
X47859580Y-27416666D02*
X47907200Y-27464285D01*
X47907200Y-27464285D02*
X47954819Y-27607142D01*
X47954819Y-27607142D02*
X47954819Y-27702380D01*
X47954819Y-27702380D02*
X47907200Y-27845237D01*
X47907200Y-27845237D02*
X47811961Y-27940475D01*
X47811961Y-27940475D02*
X47716723Y-27988094D01*
X47716723Y-27988094D02*
X47526247Y-28035713D01*
X47526247Y-28035713D02*
X47383390Y-28035713D01*
X47383390Y-28035713D02*
X47192914Y-27988094D01*
X47192914Y-27988094D02*
X47097676Y-27940475D01*
X47097676Y-27940475D02*
X47002438Y-27845237D01*
X47002438Y-27845237D02*
X46954819Y-27702380D01*
X46954819Y-27702380D02*
X46954819Y-27607142D01*
X46954819Y-27607142D02*
X47002438Y-27464285D01*
X47002438Y-27464285D02*
X47050057Y-27416666D01*
X47954819Y-26464285D02*
X47954819Y-27035713D01*
X47954819Y-26749999D02*
X46954819Y-26749999D01*
X46954819Y-26749999D02*
X47097676Y-26845237D01*
X47097676Y-26845237D02*
X47192914Y-26940475D01*
X47192914Y-26940475D02*
X47240533Y-27035713D01*
X36824819Y-31246666D02*
X36348628Y-31579999D01*
X36824819Y-31818094D02*
X35824819Y-31818094D01*
X35824819Y-31818094D02*
X35824819Y-31437142D01*
X35824819Y-31437142D02*
X35872438Y-31341904D01*
X35872438Y-31341904D02*
X35920057Y-31294285D01*
X35920057Y-31294285D02*
X36015295Y-31246666D01*
X36015295Y-31246666D02*
X36158152Y-31246666D01*
X36158152Y-31246666D02*
X36253390Y-31294285D01*
X36253390Y-31294285D02*
X36301009Y-31341904D01*
X36301009Y-31341904D02*
X36348628Y-31437142D01*
X36348628Y-31437142D02*
X36348628Y-31818094D01*
X35920057Y-30865713D02*
X35872438Y-30818094D01*
X35872438Y-30818094D02*
X35824819Y-30722856D01*
X35824819Y-30722856D02*
X35824819Y-30484761D01*
X35824819Y-30484761D02*
X35872438Y-30389523D01*
X35872438Y-30389523D02*
X35920057Y-30341904D01*
X35920057Y-30341904D02*
X36015295Y-30294285D01*
X36015295Y-30294285D02*
X36110533Y-30294285D01*
X36110533Y-30294285D02*
X36253390Y-30341904D01*
X36253390Y-30341904D02*
X36824819Y-30913332D01*
X36824819Y-30913332D02*
X36824819Y-30294285D01*
X7238095Y-13304819D02*
X7238095Y-12304819D01*
X7238095Y-12781009D02*
X7809523Y-12781009D01*
X7809523Y-13304819D02*
X7809523Y-12304819D01*
X8809523Y-13304819D02*
X8238095Y-13304819D01*
X8523809Y-13304819D02*
X8523809Y-12304819D01*
X8523809Y-12304819D02*
X8428571Y-12447676D01*
X8428571Y-12447676D02*
X8333333Y-12542914D01*
X8333333Y-12542914D02*
X8238095Y-12590533D01*
X7238095Y-54304819D02*
X7238095Y-53304819D01*
X7238095Y-53781009D02*
X7809523Y-53781009D01*
X7809523Y-54304819D02*
X7809523Y-53304819D01*
X8714285Y-53638152D02*
X8714285Y-54304819D01*
X8476190Y-53257200D02*
X8238095Y-53971485D01*
X8238095Y-53971485D02*
X8857142Y-53971485D01*
X93238095Y-13304819D02*
X93238095Y-12304819D01*
X93238095Y-12781009D02*
X93809523Y-12781009D01*
X93809523Y-13304819D02*
X93809523Y-12304819D01*
X94238095Y-12400057D02*
X94285714Y-12352438D01*
X94285714Y-12352438D02*
X94380952Y-12304819D01*
X94380952Y-12304819D02*
X94619047Y-12304819D01*
X94619047Y-12304819D02*
X94714285Y-12352438D01*
X94714285Y-12352438D02*
X94761904Y-12400057D01*
X94761904Y-12400057D02*
X94809523Y-12495295D01*
X94809523Y-12495295D02*
X94809523Y-12590533D01*
X94809523Y-12590533D02*
X94761904Y-12733390D01*
X94761904Y-12733390D02*
X94190476Y-13304819D01*
X94190476Y-13304819D02*
X94809523Y-13304819D01*
X62494819Y-25468094D02*
X61494819Y-25468094D01*
X61494819Y-25468094D02*
X61494819Y-25229999D01*
X61494819Y-25229999D02*
X61542438Y-25087142D01*
X61542438Y-25087142D02*
X61637676Y-24991904D01*
X61637676Y-24991904D02*
X61732914Y-24944285D01*
X61732914Y-24944285D02*
X61923390Y-24896666D01*
X61923390Y-24896666D02*
X62066247Y-24896666D01*
X62066247Y-24896666D02*
X62256723Y-24944285D01*
X62256723Y-24944285D02*
X62351961Y-24991904D01*
X62351961Y-24991904D02*
X62447200Y-25087142D01*
X62447200Y-25087142D02*
X62494819Y-25229999D01*
X62494819Y-25229999D02*
X62494819Y-25468094D01*
X62494819Y-23944285D02*
X62494819Y-24515713D01*
X62494819Y-24229999D02*
X61494819Y-24229999D01*
X61494819Y-24229999D02*
X61637676Y-24325237D01*
X61637676Y-24325237D02*
X61732914Y-24420475D01*
X61732914Y-24420475D02*
X61780533Y-24515713D01*
X32824819Y-29976666D02*
X32348628Y-30309999D01*
X32824819Y-30548094D02*
X31824819Y-30548094D01*
X31824819Y-30548094D02*
X31824819Y-30167142D01*
X31824819Y-30167142D02*
X31872438Y-30071904D01*
X31872438Y-30071904D02*
X31920057Y-30024285D01*
X31920057Y-30024285D02*
X32015295Y-29976666D01*
X32015295Y-29976666D02*
X32158152Y-29976666D01*
X32158152Y-29976666D02*
X32253390Y-30024285D01*
X32253390Y-30024285D02*
X32301009Y-30071904D01*
X32301009Y-30071904D02*
X32348628Y-30167142D01*
X32348628Y-30167142D02*
X32348628Y-30548094D01*
X32824819Y-29024285D02*
X32824819Y-29595713D01*
X32824819Y-29309999D02*
X31824819Y-29309999D01*
X31824819Y-29309999D02*
X31967676Y-29405237D01*
X31967676Y-29405237D02*
X32062914Y-29500475D01*
X32062914Y-29500475D02*
X32110533Y-29595713D01*
X93238095Y-54304819D02*
X93238095Y-53304819D01*
X93238095Y-53781009D02*
X93809523Y-53781009D01*
X93809523Y-54304819D02*
X93809523Y-53304819D01*
X94190476Y-53304819D02*
X94809523Y-53304819D01*
X94809523Y-53304819D02*
X94476190Y-53685771D01*
X94476190Y-53685771D02*
X94619047Y-53685771D01*
X94619047Y-53685771D02*
X94714285Y-53733390D01*
X94714285Y-53733390D02*
X94761904Y-53781009D01*
X94761904Y-53781009D02*
X94809523Y-53876247D01*
X94809523Y-53876247D02*
X94809523Y-54114342D01*
X94809523Y-54114342D02*
X94761904Y-54209580D01*
X94761904Y-54209580D02*
X94714285Y-54257200D01*
X94714285Y-54257200D02*
X94619047Y-54304819D01*
X94619047Y-54304819D02*
X94333333Y-54304819D01*
X94333333Y-54304819D02*
X94238095Y-54257200D01*
X94238095Y-54257200D02*
X94190476Y-54209580D01*
%TO.C,R3*%
D11*
X55000000Y-27170000D02*
X55000000Y-24560000D01*
X56370000Y-28540000D02*
G75*
G02*
X53630000Y-28540000I-1370000J0D01*
G01*
X53630000Y-28540000D02*
G75*
G02*
X56370000Y-28540000I1370000J0D01*
G01*
%TO.C,J5*%
X78620000Y-24620000D02*
X80000000Y-24620000D01*
X78620000Y-26000000D02*
X78620000Y-24620000D01*
X78620000Y-27270000D02*
X78620000Y-35000000D01*
X78620000Y-27270000D02*
X81380000Y-27270000D01*
X78620000Y-35000000D02*
X81380000Y-35000000D01*
X81380000Y-27270000D02*
X81380000Y-35000000D01*
%TO.C,C1*%
X43630000Y-24630000D02*
X46370000Y-24630000D01*
X43630000Y-29870000D02*
X43630000Y-24630000D01*
X46370000Y-24630000D02*
X46370000Y-29870000D01*
X46370000Y-29870000D02*
X43630000Y-29870000D01*
%TO.C,J7*%
X48620000Y-48620000D02*
X50000000Y-48620000D01*
X48620000Y-50000000D02*
X48620000Y-48620000D01*
X48620000Y-51270000D02*
X48620000Y-59000000D01*
X48620000Y-51270000D02*
X51380000Y-51270000D01*
X48620000Y-59000000D02*
X51380000Y-59000000D01*
X51380000Y-51270000D02*
X51380000Y-59000000D01*
%TO.C,J4*%
X68620000Y-24620000D02*
X70000000Y-24620000D01*
X68620000Y-26000000D02*
X68620000Y-24620000D01*
X68620000Y-27270000D02*
X68620000Y-35000000D01*
X68620000Y-27270000D02*
X71380000Y-27270000D01*
X68620000Y-35000000D02*
X71380000Y-35000000D01*
X71380000Y-27270000D02*
X71380000Y-35000000D01*
%TO.C,J9*%
X68620000Y-48620000D02*
X70000000Y-48620000D01*
X68620000Y-50000000D02*
X68620000Y-48620000D01*
X68620000Y-51270000D02*
X68620000Y-59000000D01*
X68620000Y-51270000D02*
X71380000Y-51270000D01*
X68620000Y-59000000D02*
X71380000Y-59000000D01*
X71380000Y-51270000D02*
X71380000Y-59000000D01*
%TO.C,J_LJ*%
X9280000Y-31530000D02*
X19320000Y-31530000D01*
X9280000Y-33890000D02*
X9280000Y-31530000D01*
X9280000Y-52090000D02*
X9280000Y-34490000D01*
X9900000Y-31530000D02*
X9900000Y-52090000D01*
X11400000Y-31530000D02*
X11400000Y-52090000D01*
X16300000Y-31530000D02*
X16300000Y-52090000D01*
X19320000Y-31530000D02*
X19320000Y-52090000D01*
X19320000Y-52090000D02*
X9280000Y-52090000D01*
X9280000Y-34190000D02*
X8670000Y-34630000D01*
X8670000Y-33750000D01*
X9280000Y-34190000D01*
G36*
X9280000Y-34190000D02*
G01*
X8670000Y-34630000D01*
X8670000Y-33750000D01*
X9280000Y-34190000D01*
G37*
%TO.C,R2*%
X34000000Y-29910000D02*
X34000000Y-32520000D01*
X35370000Y-28540000D02*
G75*
G02*
X32630000Y-28540000I-1370000J0D01*
G01*
X32630000Y-28540000D02*
G75*
G02*
X35370000Y-28540000I1370000J0D01*
G01*
%TO.C,J10*%
X78620000Y-48620000D02*
X80000000Y-48620000D01*
X78620000Y-50000000D02*
X78620000Y-48620000D01*
X78620000Y-51270000D02*
X78620000Y-59000000D01*
X78620000Y-51270000D02*
X81380000Y-51270000D01*
X78620000Y-59000000D02*
X81380000Y-59000000D01*
X81380000Y-51270000D02*
X81380000Y-59000000D01*
%TO.C,J3*%
X58620000Y-24620000D02*
X60000000Y-24620000D01*
X58620000Y-26000000D02*
X58620000Y-24620000D01*
X58620000Y-27270000D02*
X58620000Y-35000000D01*
X58620000Y-27270000D02*
X61380000Y-27270000D01*
X58620000Y-35000000D02*
X61380000Y-35000000D01*
X61380000Y-27270000D02*
X61380000Y-35000000D01*
%TO.C,D1*%
X63764000Y-26290000D02*
X63920000Y-26290000D01*
X66080000Y-26290000D02*
X66236000Y-26290000D01*
X63764484Y-26290000D02*
G75*
G02*
X63920000Y-23058563I1235516J1560000D01*
G01*
X63920000Y-25770961D02*
G75*
G02*
X63920000Y-23689039I1080000J1040961D01*
G01*
X66080000Y-23058563D02*
G75*
G02*
X66235516Y-26290000I-1080000J-1671437D01*
G01*
X66080000Y-23689039D02*
G75*
G02*
X66080000Y-25770961I-1080000J-1040961D01*
G01*
%TO.C,J1*%
X38620000Y-24620000D02*
X40000000Y-24620000D01*
X38620000Y-26000000D02*
X38620000Y-24620000D01*
X38620000Y-27270000D02*
X38620000Y-35000000D01*
X38620000Y-27270000D02*
X41380000Y-27270000D01*
X38620000Y-35000000D02*
X41380000Y-35000000D01*
X41380000Y-27270000D02*
X41380000Y-35000000D01*
%TO.C,J6*%
X38620000Y-48620000D02*
X40000000Y-48620000D01*
X38620000Y-50000000D02*
X38620000Y-48620000D01*
X38620000Y-51270000D02*
X38620000Y-59000000D01*
X38620000Y-51270000D02*
X41380000Y-51270000D01*
X38620000Y-59000000D02*
X41380000Y-59000000D01*
X41380000Y-51270000D02*
X41380000Y-59000000D01*
%TO.C,J8*%
X58620000Y-48620000D02*
X60000000Y-48620000D01*
X58620000Y-50000000D02*
X58620000Y-48620000D01*
X58620000Y-51270000D02*
X58620000Y-59000000D01*
X58620000Y-51270000D02*
X61380000Y-51270000D01*
X58620000Y-59000000D02*
X61380000Y-59000000D01*
X61380000Y-51270000D02*
X61380000Y-59000000D01*
%TO.C,R1*%
X30000000Y-29910000D02*
X30000000Y-29980000D01*
X31370000Y-28540000D02*
G75*
G02*
X28630000Y-28540000I-1370000J0D01*
G01*
X28630000Y-28540000D02*
G75*
G02*
X31370000Y-28540000I1370000J0D01*
G01*
%TO.C,J2*%
X48620000Y-24620000D02*
X50000000Y-24620000D01*
X48620000Y-26000000D02*
X48620000Y-24620000D01*
X48620000Y-27270000D02*
X48620000Y-35000000D01*
X48620000Y-27270000D02*
X51380000Y-27270000D01*
X48620000Y-35000000D02*
X51380000Y-35000000D01*
X51380000Y-27270000D02*
X51380000Y-35000000D01*
%TD*%
M02*
