M48
; DRILL file KiCad 10.0.4 date 2026-07-01T13:46:50
; FORMAT={-:-/ absolute / metric / decimal}
; #@! TF.CreationDate,2026-07-01T13:46:50+02:00
; #@! TF.GenerationSoftware,Kicad,Pcbnew,10.0.4
; #@! TF.FileFunction,MixedPlating,1,2
FMAT,2
METRIC
; #@! TA.AperFunction,Plated,PTH,ComponentDrill
T1C1.000
; #@! TA.AperFunction,Plated,PTH,ComponentDrill
T2C1.300
%
G90
G05
T1
X30.0Y-22.54
X30.0Y-25.08
X34.0Y-22.54
X34.0Y-27.62
X45.0Y-20.0
X45.0Y-22.54
X45.0Y-25.08
X45.0Y-27.62
X52.62Y-20.0
X52.62Y-22.54
X52.62Y-25.08
X52.62Y-27.62
X60.24Y-20.0
X60.24Y-22.54
X60.24Y-25.08
X60.24Y-27.62
X67.86Y-20.0
X67.86Y-22.54
X67.86Y-25.08
X67.86Y-27.62
X75.48Y-20.0
X75.48Y-22.54
X75.48Y-25.08
X75.48Y-27.62
X83.1Y-20.0
X83.1Y-22.54
X83.1Y-25.08
X83.1Y-27.62
X90.72Y-20.0
X90.72Y-22.54
X90.72Y-25.08
X90.72Y-27.62
X98.34Y-20.0
X98.34Y-22.54
X98.34Y-25.08
X98.34Y-27.62
X105.96Y-20.0
X105.96Y-22.54
X105.96Y-25.08
X105.96Y-27.62
X113.58Y-20.0
X113.58Y-22.54
X113.58Y-25.08
X113.58Y-27.62
X120.0Y-31.0
X120.0Y-35.0
X125.0Y-31.0
X127.62Y-35.0
X131.46Y-35.0
X134.0Y-35.0
T2
X9.0Y-16.19
X9.0Y-21.27
X9.0Y-26.35
X9.0Y-31.43
M30
