M48
; DRILL file KiCad 10.0.4 date 2026-07-09T12:11:49
; FORMAT={-:-/ absolute / metric / decimal}
; #@! TF.CreationDate,2026-07-09T12:11:49+02:00
; #@! TF.GenerationSoftware,Kicad,Pcbnew,10.0.4
; #@! TF.FileFunction,MixedPlating,1,2
FMAT,2
METRIC
; #@! TA.AperFunction,Plated,PTH,ComponentDrill
T1C1.000
; #@! TA.AperFunction,Plated,PTH,ComponentDrill
T2C1.300
; #@! TA.AperFunction,NonPlated,NPTH,ComponentDrill
T3C3.200
%
G90
G05
T1
X30.0Y-28.54
X30.0Y-31.08
X34.0Y-28.54
X34.0Y-33.62
X40.0Y-26.0
X40.0Y-28.54
X40.0Y-31.08
X40.0Y-33.62
X40.0Y-50.0
X40.0Y-52.54
X40.0Y-55.08
X40.0Y-57.62
X45.0Y-26.0
X45.0Y-28.5
X50.0Y-26.0
X50.0Y-28.54
X50.0Y-31.08
X50.0Y-33.62
X50.0Y-50.0
X50.0Y-52.54
X50.0Y-55.08
X50.0Y-57.62
X55.0Y-23.46
X55.0Y-28.54
X60.0Y-26.0
X60.0Y-28.54
X60.0Y-31.08
X60.0Y-33.62
X60.0Y-50.0
X60.0Y-52.54
X60.0Y-55.08
X60.0Y-57.62
X65.0Y-23.46
X65.0Y-26.0
X70.0Y-26.0
X70.0Y-28.54
X70.0Y-31.08
X70.0Y-33.62
X70.0Y-50.0
X70.0Y-52.54
X70.0Y-55.08
X70.0Y-57.62
X80.0Y-26.0
X80.0Y-28.54
X80.0Y-31.08
X80.0Y-33.62
X80.0Y-50.0
X80.0Y-52.54
X80.0Y-55.08
X80.0Y-57.62
T2
X14.0Y-34.19
X14.0Y-39.27
X14.0Y-44.35
X14.0Y-49.43
T3
X8.0Y-17.0
X8.0Y-58.0
X94.0Y-17.0
X94.0Y-58.0
M30
