%TF.GenerationSoftware,KiCad,Pcbnew,10.0.4*%
%TF.CreationDate,2026-07-01T13:46:50+02:00*%
%TF.ProjectId,i2c_bus_board,6932635f-6275-4735-9f62-6f6172642e6b,rev?*%
%TF.SameCoordinates,Original*%
%TF.FileFunction,Copper,L1,Top*%
%TF.FilePolarity,Positive*%
%FSLAX46Y46*%
G04 Gerber Fmt 4.6, Leading zero omitted, Abs format (unit mm)*
G04 Created by KiCad (PCBNEW 10.0.4) date 2026-07-01 13:46:50*
%MOMM*%
%LPD*%
G01*
G04 APERTURE LIST*
G04 Aperture macros list*
%AMRoundRect*
0 Rectangle with rounded corners*
0 $1 Rounding radius*
0 $2 $3 $4 $5 $6 $7 $8 $9 X,Y pos of 4 corners*
0 Add a 4 corners polygon primitive as box body*
4,1,4,$2,$3,$4,$5,$6,$7,$8,$9,$2,$3,0*
0 Add four circle primitives for the rounded corners*
1,1,$1+$1,$2,$3*
1,1,$1+$1,$4,$5*
1,1,$1+$1,$6,$7*
1,1,$1+$1,$8,$9*
0 Add four rect primitives between the rounded corners*
20,1,$1+$1,$2,$3,$4,$5,0*
20,1,$1+$1,$4,$5,$6,$7,0*
20,1,$1+$1,$6,$7,$8,$9,0*
20,1,$1+$1,$8,$9,$2,$3,0*%
G04 Aperture macros list end*
%TA.AperFunction,ComponentPad*%
%ADD10RoundRect,0.250000X-1.050000X1.050000X-1.050000X-1.050000X1.050000X-1.050000X1.050000X1.050000X0*%
%TD*%
%TA.AperFunction,ComponentPad*%
%ADD11C,2.600000*%
%TD*%
%TA.AperFunction,ComponentPad*%
%ADD12R,1.700000X1.700000*%
%TD*%
%TA.AperFunction,ComponentPad*%
%ADD13C,1.700000*%
%TD*%
%TA.AperFunction,ComponentPad*%
%ADD14R,1.900000X1.900000*%
%TD*%
%TA.AperFunction,ComponentPad*%
%ADD15C,1.900000*%
%TD*%
%TA.AperFunction,Conductor*%
%ADD16C,0.600000*%
%TD*%
%TA.AperFunction,Conductor*%
%ADD17C,0.800000*%
%TD*%
%TA.AperFunction,Conductor*%
%ADD18C,1.000000*%
%TD*%
G04 APERTURE END LIST*
D10*
%TO.P,J_LJ,1*%
%TO.N,GND*%
X9000000Y-16190000D03*
D11*
%TO.P,J_LJ,2*%
%TO.N,3V3*%
X9000000Y-21270000D03*
%TO.P,J_LJ,3*%
%TO.N,SDA*%
X9000000Y-26350000D03*
%TO.P,J_LJ,4*%
%TO.N,SCL*%
X9000000Y-31430000D03*
%TD*%
D12*
%TO.P,J6,1*%
%TO.N,GND*%
X83100000Y-20000000D03*
D13*
%TO.P,J6,2*%
%TO.N,3V3*%
X83100000Y-22540000D03*
%TO.P,J6,3*%
%TO.N,SDA*%
X83100000Y-25080000D03*
%TO.P,J6,4*%
%TO.N,SCL*%
X83100000Y-27620000D03*
%TD*%
D14*
%TO.P,D1,1*%
%TO.N,GND*%
X134000000Y-35000000D03*
D15*
%TO.P,D1,2*%
%TO.N,LED_A*%
X131460000Y-35000000D03*
%TD*%
%TO.P,C1,1*%
%TO.N,3V3*%
X120000000Y-31000000D03*
%TO.P,C1,2*%
%TO.N,GND*%
X125000000Y-31000000D03*
%TD*%
D12*
%TO.P,J9,1*%
%TO.N,GND*%
X105960000Y-20000000D03*
D13*
%TO.P,J9,2*%
%TO.N,3V3*%
X105960000Y-22540000D03*
%TO.P,J9,3*%
%TO.N,SDA*%
X105960000Y-25080000D03*
%TO.P,J9,4*%
%TO.N,SCL*%
X105960000Y-27620000D03*
%TD*%
D15*
%TO.P,R1,1*%
%TO.N,3V3*%
X30000000Y-22540000D03*
%TO.P,R1,2*%
%TO.N,SDA*%
X30000000Y-25080000D03*
%TD*%
D12*
%TO.P,J2,1*%
%TO.N,GND*%
X52620000Y-20000000D03*
D13*
%TO.P,J2,2*%
%TO.N,3V3*%
X52620000Y-22540000D03*
%TO.P,J2,3*%
%TO.N,SDA*%
X52620000Y-25080000D03*
%TO.P,J2,4*%
%TO.N,SCL*%
X52620000Y-27620000D03*
%TD*%
D12*
%TO.P,J3,1*%
%TO.N,GND*%
X60240000Y-20000000D03*
D13*
%TO.P,J3,2*%
%TO.N,3V3*%
X60240000Y-22540000D03*
%TO.P,J3,3*%
%TO.N,SDA*%
X60240000Y-25080000D03*
%TO.P,J3,4*%
%TO.N,SCL*%
X60240000Y-27620000D03*
%TD*%
D12*
%TO.P,J8,1*%
%TO.N,GND*%
X98340000Y-20000000D03*
D13*
%TO.P,J8,2*%
%TO.N,3V3*%
X98340000Y-22540000D03*
%TO.P,J8,3*%
%TO.N,SDA*%
X98340000Y-25080000D03*
%TO.P,J8,4*%
%TO.N,SCL*%
X98340000Y-27620000D03*
%TD*%
D12*
%TO.P,J10,1*%
%TO.N,GND*%
X113580000Y-20000000D03*
D13*
%TO.P,J10,2*%
%TO.N,3V3*%
X113580000Y-22540000D03*
%TO.P,J10,3*%
%TO.N,SDA*%
X113580000Y-25080000D03*
%TO.P,J10,4*%
%TO.N,SCL*%
X113580000Y-27620000D03*
%TD*%
D12*
%TO.P,J5,1*%
%TO.N,GND*%
X75480000Y-20000000D03*
D13*
%TO.P,J5,2*%
%TO.N,3V3*%
X75480000Y-22540000D03*
%TO.P,J5,3*%
%TO.N,SDA*%
X75480000Y-25080000D03*
%TO.P,J5,4*%
%TO.N,SCL*%
X75480000Y-27620000D03*
%TD*%
D12*
%TO.P,J1,1*%
%TO.N,GND*%
X45000000Y-20000000D03*
D13*
%TO.P,J1,2*%
%TO.N,3V3*%
X45000000Y-22540000D03*
%TO.P,J1,3*%
%TO.N,SDA*%
X45000000Y-25080000D03*
%TO.P,J1,4*%
%TO.N,SCL*%
X45000000Y-27620000D03*
%TD*%
D12*
%TO.P,J4,1*%
%TO.N,GND*%
X67860000Y-20000000D03*
D13*
%TO.P,J4,2*%
%TO.N,3V3*%
X67860000Y-22540000D03*
%TO.P,J4,3*%
%TO.N,SDA*%
X67860000Y-25080000D03*
%TO.P,J4,4*%
%TO.N,SCL*%
X67860000Y-27620000D03*
%TD*%
D15*
%TO.P,R3,1*%
%TO.N,3V3*%
X120000000Y-35000000D03*
%TO.P,R3,2*%
%TO.N,LED_A*%
X127620000Y-35000000D03*
%TD*%
D12*
%TO.P,J7,1*%
%TO.N,GND*%
X90720000Y-20000000D03*
D13*
%TO.P,J7,2*%
%TO.N,3V3*%
X90720000Y-22540000D03*
%TO.P,J7,3*%
%TO.N,SDA*%
X90720000Y-25080000D03*
%TO.P,J7,4*%
%TO.N,SCL*%
X90720000Y-27620000D03*
%TD*%
D15*
%TO.P,R2,1*%
%TO.N,3V3*%
X34000000Y-22540000D03*
%TO.P,R2,2*%
%TO.N,SCL*%
X34000000Y-27620000D03*
%TD*%
%TO.N,GND*%
D16*
X134000000Y-35000000D02*
X134000000Y-35000000D01*
D17*
X9000000Y-16190000D02*
X11500000Y-16190000D01*
D16*
X125000000Y-31000000D02*
X134000000Y-31000000D01*
D17*
X11500000Y-20000000D02*
X15000000Y-20000000D01*
D18*
X15000000Y-20000000D02*
X134000000Y-20000000D01*
D17*
X11500000Y-16190000D02*
X11500000Y-20000000D01*
D16*
X134000000Y-20000000D02*
X134000000Y-35000000D01*
%TO.N,3V3*%
D17*
X9000000Y-21270000D02*
X12200000Y-21270000D01*
X12200000Y-21270000D02*
X12200000Y-22540000D01*
D18*
X15000000Y-22540000D02*
X120000000Y-22540000D01*
D17*
X12200000Y-22540000D02*
X15000000Y-22540000D01*
D16*
X120000000Y-22540000D02*
X120000000Y-35000000D01*
%TO.N,SDA*%
D18*
X15000000Y-25080000D02*
X115580000Y-25080000D01*
D17*
X9000000Y-26350000D02*
X12900000Y-26350000D01*
X12900000Y-26350000D02*
X12900000Y-25080000D01*
X12900000Y-25080000D02*
X15000000Y-25080000D01*
%TO.N,SCL*%
X13600000Y-31430000D02*
X13600000Y-27620000D01*
D18*
X15000000Y-27620000D02*
X115580000Y-27620000D01*
D17*
X9000000Y-31430000D02*
X13600000Y-31430000D01*
X13600000Y-27620000D02*
X15000000Y-27620000D01*
%TO.N,LED_A*%
D16*
X127620000Y-35000000D02*
X131460000Y-35000000D01*
%TD*%
M02*
