%TF.GenerationSoftware,KiCad,Pcbnew,10.0.4*%
%TF.CreationDate,2026-07-01T13:46:50+02:00*%
%TF.ProjectId,i2c_bus_board,6932635f-6275-4735-9f62-6f6172642e6b,rev?*%
%TF.SameCoordinates,Original*%
%TF.FileFunction,Legend,Top*%
%TF.FilePolarity,Positive*%
%FSLAX46Y46*%
G04 Gerber Fmt 4.6, Leading zero omitted, Abs format (unit mm)*
G04 Created by KiCad (PCBNEW 10.0.4) date 2026-07-01 13:46:50*
%MOMM*%
%LPD*%
G01*
G04 APERTURE LIST*
%ADD10C,0.150000*%
%ADD11C,0.120000*%
G04 APERTURE END LIST*
D10*
X10865350Y-16239366D02*
X11398684Y-16239366D01*
X10865350Y-21319366D02*
X11398684Y-21319366D01*
X11132017Y-21586033D02*
X11132017Y-21052700D01*
X10832017Y-26632700D02*
X10932017Y-26666033D01*
X10932017Y-26666033D02*
X11098684Y-26666033D01*
X11098684Y-26666033D02*
X11165350Y-26632700D01*
X11165350Y-26632700D02*
X11198684Y-26599366D01*
X11198684Y-26599366D02*
X11232017Y-26532700D01*
X11232017Y-26532700D02*
X11232017Y-26466033D01*
X11232017Y-26466033D02*
X11198684Y-26399366D01*
X11198684Y-26399366D02*
X11165350Y-26366033D01*
X11165350Y-26366033D02*
X11098684Y-26332700D01*
X11098684Y-26332700D02*
X10965350Y-26299366D01*
X10965350Y-26299366D02*
X10898684Y-26266033D01*
X10898684Y-26266033D02*
X10865350Y-26232700D01*
X10865350Y-26232700D02*
X10832017Y-26166033D01*
X10832017Y-26166033D02*
X10832017Y-26099366D01*
X10832017Y-26099366D02*
X10865350Y-26032700D01*
X10865350Y-26032700D02*
X10898684Y-25999366D01*
X10898684Y-25999366D02*
X10965350Y-25966033D01*
X10965350Y-25966033D02*
X11132017Y-25966033D01*
X11132017Y-25966033D02*
X11232017Y-25999366D01*
X11532017Y-26666033D02*
X11532017Y-25966033D01*
X11532017Y-25966033D02*
X11698684Y-25966033D01*
X11698684Y-25966033D02*
X11798684Y-25999366D01*
X11798684Y-25999366D02*
X11865351Y-26066033D01*
X11865351Y-26066033D02*
X11898684Y-26132700D01*
X11898684Y-26132700D02*
X11932017Y-26266033D01*
X11932017Y-26266033D02*
X11932017Y-26366033D01*
X11932017Y-26366033D02*
X11898684Y-26499366D01*
X11898684Y-26499366D02*
X11865351Y-26566033D01*
X11865351Y-26566033D02*
X11798684Y-26632700D01*
X11798684Y-26632700D02*
X11698684Y-26666033D01*
X11698684Y-26666033D02*
X11532017Y-26666033D01*
X12198684Y-26466033D02*
X12532017Y-26466033D01*
X12132017Y-26666033D02*
X12365351Y-25966033D01*
X12365351Y-25966033D02*
X12598684Y-26666033D01*
X10832017Y-31712700D02*
X10932017Y-31746033D01*
X10932017Y-31746033D02*
X11098684Y-31746033D01*
X11098684Y-31746033D02*
X11165350Y-31712700D01*
X11165350Y-31712700D02*
X11198684Y-31679366D01*
X11198684Y-31679366D02*
X11232017Y-31612700D01*
X11232017Y-31612700D02*
X11232017Y-31546033D01*
X11232017Y-31546033D02*
X11198684Y-31479366D01*
X11198684Y-31479366D02*
X11165350Y-31446033D01*
X11165350Y-31446033D02*
X11098684Y-31412700D01*
X11098684Y-31412700D02*
X10965350Y-31379366D01*
X10965350Y-31379366D02*
X10898684Y-31346033D01*
X10898684Y-31346033D02*
X10865350Y-31312700D01*
X10865350Y-31312700D02*
X10832017Y-31246033D01*
X10832017Y-31246033D02*
X10832017Y-31179366D01*
X10832017Y-31179366D02*
X10865350Y-31112700D01*
X10865350Y-31112700D02*
X10898684Y-31079366D01*
X10898684Y-31079366D02*
X10965350Y-31046033D01*
X10965350Y-31046033D02*
X11132017Y-31046033D01*
X11132017Y-31046033D02*
X11232017Y-31079366D01*
X11932017Y-31679366D02*
X11898684Y-31712700D01*
X11898684Y-31712700D02*
X11798684Y-31746033D01*
X11798684Y-31746033D02*
X11732017Y-31746033D01*
X11732017Y-31746033D02*
X11632017Y-31712700D01*
X11632017Y-31712700D02*
X11565351Y-31646033D01*
X11565351Y-31646033D02*
X11532017Y-31579366D01*
X11532017Y-31579366D02*
X11498684Y-31446033D01*
X11498684Y-31446033D02*
X11498684Y-31346033D01*
X11498684Y-31346033D02*
X11532017Y-31212700D01*
X11532017Y-31212700D02*
X11565351Y-31146033D01*
X11565351Y-31146033D02*
X11632017Y-31079366D01*
X11632017Y-31079366D02*
X11732017Y-31046033D01*
X11732017Y-31046033D02*
X11798684Y-31046033D01*
X11798684Y-31046033D02*
X11898684Y-31079366D01*
X11898684Y-31079366D02*
X11932017Y-31112700D01*
X12565351Y-31746033D02*
X12232017Y-31746033D01*
X12232017Y-31746033D02*
X12232017Y-31046033D01*
X46765350Y-20049366D02*
X47298684Y-20049366D01*
X46765350Y-22589366D02*
X47298684Y-22589366D01*
X47032017Y-22856033D02*
X47032017Y-22322700D01*
X46732017Y-25362700D02*
X46832017Y-25396033D01*
X46832017Y-25396033D02*
X46998684Y-25396033D01*
X46998684Y-25396033D02*
X47065350Y-25362700D01*
X47065350Y-25362700D02*
X47098684Y-25329366D01*
X47098684Y-25329366D02*
X47132017Y-25262700D01*
X47132017Y-25262700D02*
X47132017Y-25196033D01*
X47132017Y-25196033D02*
X47098684Y-25129366D01*
X47098684Y-25129366D02*
X47065350Y-25096033D01*
X47065350Y-25096033D02*
X46998684Y-25062700D01*
X46998684Y-25062700D02*
X46865350Y-25029366D01*
X46865350Y-25029366D02*
X46798684Y-24996033D01*
X46798684Y-24996033D02*
X46765350Y-24962700D01*
X46765350Y-24962700D02*
X46732017Y-24896033D01*
X46732017Y-24896033D02*
X46732017Y-24829366D01*
X46732017Y-24829366D02*
X46765350Y-24762700D01*
X46765350Y-24762700D02*
X46798684Y-24729366D01*
X46798684Y-24729366D02*
X46865350Y-24696033D01*
X46865350Y-24696033D02*
X47032017Y-24696033D01*
X47032017Y-24696033D02*
X47132017Y-24729366D01*
X47432017Y-25396033D02*
X47432017Y-24696033D01*
X47432017Y-24696033D02*
X47598684Y-24696033D01*
X47598684Y-24696033D02*
X47698684Y-24729366D01*
X47698684Y-24729366D02*
X47765351Y-24796033D01*
X47765351Y-24796033D02*
X47798684Y-24862700D01*
X47798684Y-24862700D02*
X47832017Y-24996033D01*
X47832017Y-24996033D02*
X47832017Y-25096033D01*
X47832017Y-25096033D02*
X47798684Y-25229366D01*
X47798684Y-25229366D02*
X47765351Y-25296033D01*
X47765351Y-25296033D02*
X47698684Y-25362700D01*
X47698684Y-25362700D02*
X47598684Y-25396033D01*
X47598684Y-25396033D02*
X47432017Y-25396033D01*
X48098684Y-25196033D02*
X48432017Y-25196033D01*
X48032017Y-25396033D02*
X48265351Y-24696033D01*
X48265351Y-24696033D02*
X48498684Y-25396033D01*
X46732017Y-27902700D02*
X46832017Y-27936033D01*
X46832017Y-27936033D02*
X46998684Y-27936033D01*
X46998684Y-27936033D02*
X47065350Y-27902700D01*
X47065350Y-27902700D02*
X47098684Y-27869366D01*
X47098684Y-27869366D02*
X47132017Y-27802700D01*
X47132017Y-27802700D02*
X47132017Y-27736033D01*
X47132017Y-27736033D02*
X47098684Y-27669366D01*
X47098684Y-27669366D02*
X47065350Y-27636033D01*
X47065350Y-27636033D02*
X46998684Y-27602700D01*
X46998684Y-27602700D02*
X46865350Y-27569366D01*
X46865350Y-27569366D02*
X46798684Y-27536033D01*
X46798684Y-27536033D02*
X46765350Y-27502700D01*
X46765350Y-27502700D02*
X46732017Y-27436033D01*
X46732017Y-27436033D02*
X46732017Y-27369366D01*
X46732017Y-27369366D02*
X46765350Y-27302700D01*
X46765350Y-27302700D02*
X46798684Y-27269366D01*
X46798684Y-27269366D02*
X46865350Y-27236033D01*
X46865350Y-27236033D02*
X47032017Y-27236033D01*
X47032017Y-27236033D02*
X47132017Y-27269366D01*
X47832017Y-27869366D02*
X47798684Y-27902700D01*
X47798684Y-27902700D02*
X47698684Y-27936033D01*
X47698684Y-27936033D02*
X47632017Y-27936033D01*
X47632017Y-27936033D02*
X47532017Y-27902700D01*
X47532017Y-27902700D02*
X47465351Y-27836033D01*
X47465351Y-27836033D02*
X47432017Y-27769366D01*
X47432017Y-27769366D02*
X47398684Y-27636033D01*
X47398684Y-27636033D02*
X47398684Y-27536033D01*
X47398684Y-27536033D02*
X47432017Y-27402700D01*
X47432017Y-27402700D02*
X47465351Y-27336033D01*
X47465351Y-27336033D02*
X47532017Y-27269366D01*
X47532017Y-27269366D02*
X47632017Y-27236033D01*
X47632017Y-27236033D02*
X47698684Y-27236033D01*
X47698684Y-27236033D02*
X47798684Y-27269366D01*
X47798684Y-27269366D02*
X47832017Y-27302700D01*
X48465351Y-27936033D02*
X48132017Y-27936033D01*
X48132017Y-27936033D02*
X48132017Y-27236033D01*
X54385350Y-20049366D02*
X54918684Y-20049366D01*
X54385350Y-22589366D02*
X54918684Y-22589366D01*
X54652017Y-22856033D02*
X54652017Y-22322700D01*
X54352017Y-25362700D02*
X54452017Y-25396033D01*
X54452017Y-25396033D02*
X54618684Y-25396033D01*
X54618684Y-25396033D02*
X54685350Y-25362700D01*
X54685350Y-25362700D02*
X54718684Y-25329366D01*
X54718684Y-25329366D02*
X54752017Y-25262700D01*
X54752017Y-25262700D02*
X54752017Y-25196033D01*
X54752017Y-25196033D02*
X54718684Y-25129366D01*
X54718684Y-25129366D02*
X54685350Y-25096033D01*
X54685350Y-25096033D02*
X54618684Y-25062700D01*
X54618684Y-25062700D02*
X54485350Y-25029366D01*
X54485350Y-25029366D02*
X54418684Y-24996033D01*
X54418684Y-24996033D02*
X54385350Y-24962700D01*
X54385350Y-24962700D02*
X54352017Y-24896033D01*
X54352017Y-24896033D02*
X54352017Y-24829366D01*
X54352017Y-24829366D02*
X54385350Y-24762700D01*
X54385350Y-24762700D02*
X54418684Y-24729366D01*
X54418684Y-24729366D02*
X54485350Y-24696033D01*
X54485350Y-24696033D02*
X54652017Y-24696033D01*
X54652017Y-24696033D02*
X54752017Y-24729366D01*
X55052017Y-25396033D02*
X55052017Y-24696033D01*
X55052017Y-24696033D02*
X55218684Y-24696033D01*
X55218684Y-24696033D02*
X55318684Y-24729366D01*
X55318684Y-24729366D02*
X55385351Y-24796033D01*
X55385351Y-24796033D02*
X55418684Y-24862700D01*
X55418684Y-24862700D02*
X55452017Y-24996033D01*
X55452017Y-24996033D02*
X55452017Y-25096033D01*
X55452017Y-25096033D02*
X55418684Y-25229366D01*
X55418684Y-25229366D02*
X55385351Y-25296033D01*
X55385351Y-25296033D02*
X55318684Y-25362700D01*
X55318684Y-25362700D02*
X55218684Y-25396033D01*
X55218684Y-25396033D02*
X55052017Y-25396033D01*
X55718684Y-25196033D02*
X56052017Y-25196033D01*
X55652017Y-25396033D02*
X55885351Y-24696033D01*
X55885351Y-24696033D02*
X56118684Y-25396033D01*
X54352017Y-27902700D02*
X54452017Y-27936033D01*
X54452017Y-27936033D02*
X54618684Y-27936033D01*
X54618684Y-27936033D02*
X54685350Y-27902700D01*
X54685350Y-27902700D02*
X54718684Y-27869366D01*
X54718684Y-27869366D02*
X54752017Y-27802700D01*
X54752017Y-27802700D02*
X54752017Y-27736033D01*
X54752017Y-27736033D02*
X54718684Y-27669366D01*
X54718684Y-27669366D02*
X54685350Y-27636033D01*
X54685350Y-27636033D02*
X54618684Y-27602700D01*
X54618684Y-27602700D02*
X54485350Y-27569366D01*
X54485350Y-27569366D02*
X54418684Y-27536033D01*
X54418684Y-27536033D02*
X54385350Y-27502700D01*
X54385350Y-27502700D02*
X54352017Y-27436033D01*
X54352017Y-27436033D02*
X54352017Y-27369366D01*
X54352017Y-27369366D02*
X54385350Y-27302700D01*
X54385350Y-27302700D02*
X54418684Y-27269366D01*
X54418684Y-27269366D02*
X54485350Y-27236033D01*
X54485350Y-27236033D02*
X54652017Y-27236033D01*
X54652017Y-27236033D02*
X54752017Y-27269366D01*
X55452017Y-27869366D02*
X55418684Y-27902700D01*
X55418684Y-27902700D02*
X55318684Y-27936033D01*
X55318684Y-27936033D02*
X55252017Y-27936033D01*
X55252017Y-27936033D02*
X55152017Y-27902700D01*
X55152017Y-27902700D02*
X55085351Y-27836033D01*
X55085351Y-27836033D02*
X55052017Y-27769366D01*
X55052017Y-27769366D02*
X55018684Y-27636033D01*
X55018684Y-27636033D02*
X55018684Y-27536033D01*
X55018684Y-27536033D02*
X55052017Y-27402700D01*
X55052017Y-27402700D02*
X55085351Y-27336033D01*
X55085351Y-27336033D02*
X55152017Y-27269366D01*
X55152017Y-27269366D02*
X55252017Y-27236033D01*
X55252017Y-27236033D02*
X55318684Y-27236033D01*
X55318684Y-27236033D02*
X55418684Y-27269366D01*
X55418684Y-27269366D02*
X55452017Y-27302700D01*
X56085351Y-27936033D02*
X55752017Y-27936033D01*
X55752017Y-27936033D02*
X55752017Y-27236033D01*
X62005350Y-20049366D02*
X62538684Y-20049366D01*
X62005350Y-22589366D02*
X62538684Y-22589366D01*
X62272017Y-22856033D02*
X62272017Y-22322700D01*
X61972017Y-25362700D02*
X62072017Y-25396033D01*
X62072017Y-25396033D02*
X62238684Y-25396033D01*
X62238684Y-25396033D02*
X62305350Y-25362700D01*
X62305350Y-25362700D02*
X62338684Y-25329366D01*
X62338684Y-25329366D02*
X62372017Y-25262700D01*
X62372017Y-25262700D02*
X62372017Y-25196033D01*
X62372017Y-25196033D02*
X62338684Y-25129366D01*
X62338684Y-25129366D02*
X62305350Y-25096033D01*
X62305350Y-25096033D02*
X62238684Y-25062700D01*
X62238684Y-25062700D02*
X62105350Y-25029366D01*
X62105350Y-25029366D02*
X62038684Y-24996033D01*
X62038684Y-24996033D02*
X62005350Y-24962700D01*
X62005350Y-24962700D02*
X61972017Y-24896033D01*
X61972017Y-24896033D02*
X61972017Y-24829366D01*
X61972017Y-24829366D02*
X62005350Y-24762700D01*
X62005350Y-24762700D02*
X62038684Y-24729366D01*
X62038684Y-24729366D02*
X62105350Y-24696033D01*
X62105350Y-24696033D02*
X62272017Y-24696033D01*
X62272017Y-24696033D02*
X62372017Y-24729366D01*
X62672017Y-25396033D02*
X62672017Y-24696033D01*
X62672017Y-24696033D02*
X62838684Y-24696033D01*
X62838684Y-24696033D02*
X62938684Y-24729366D01*
X62938684Y-24729366D02*
X63005351Y-24796033D01*
X63005351Y-24796033D02*
X63038684Y-24862700D01*
X63038684Y-24862700D02*
X63072017Y-24996033D01*
X63072017Y-24996033D02*
X63072017Y-25096033D01*
X63072017Y-25096033D02*
X63038684Y-25229366D01*
X63038684Y-25229366D02*
X63005351Y-25296033D01*
X63005351Y-25296033D02*
X62938684Y-25362700D01*
X62938684Y-25362700D02*
X62838684Y-25396033D01*
X62838684Y-25396033D02*
X62672017Y-25396033D01*
X63338684Y-25196033D02*
X63672017Y-25196033D01*
X63272017Y-25396033D02*
X63505351Y-24696033D01*
X63505351Y-24696033D02*
X63738684Y-25396033D01*
X61972017Y-27902700D02*
X62072017Y-27936033D01*
X62072017Y-27936033D02*
X62238684Y-27936033D01*
X62238684Y-27936033D02*
X62305350Y-27902700D01*
X62305350Y-27902700D02*
X62338684Y-27869366D01*
X62338684Y-27869366D02*
X62372017Y-27802700D01*
X62372017Y-27802700D02*
X62372017Y-27736033D01*
X62372017Y-27736033D02*
X62338684Y-27669366D01*
X62338684Y-27669366D02*
X62305350Y-27636033D01*
X62305350Y-27636033D02*
X62238684Y-27602700D01*
X62238684Y-27602700D02*
X62105350Y-27569366D01*
X62105350Y-27569366D02*
X62038684Y-27536033D01*
X62038684Y-27536033D02*
X62005350Y-27502700D01*
X62005350Y-27502700D02*
X61972017Y-27436033D01*
X61972017Y-27436033D02*
X61972017Y-27369366D01*
X61972017Y-27369366D02*
X62005350Y-27302700D01*
X62005350Y-27302700D02*
X62038684Y-27269366D01*
X62038684Y-27269366D02*
X62105350Y-27236033D01*
X62105350Y-27236033D02*
X62272017Y-27236033D01*
X62272017Y-27236033D02*
X62372017Y-27269366D01*
X63072017Y-27869366D02*
X63038684Y-27902700D01*
X63038684Y-27902700D02*
X62938684Y-27936033D01*
X62938684Y-27936033D02*
X62872017Y-27936033D01*
X62872017Y-27936033D02*
X62772017Y-27902700D01*
X62772017Y-27902700D02*
X62705351Y-27836033D01*
X62705351Y-27836033D02*
X62672017Y-27769366D01*
X62672017Y-27769366D02*
X62638684Y-27636033D01*
X62638684Y-27636033D02*
X62638684Y-27536033D01*
X62638684Y-27536033D02*
X62672017Y-27402700D01*
X62672017Y-27402700D02*
X62705351Y-27336033D01*
X62705351Y-27336033D02*
X62772017Y-27269366D01*
X62772017Y-27269366D02*
X62872017Y-27236033D01*
X62872017Y-27236033D02*
X62938684Y-27236033D01*
X62938684Y-27236033D02*
X63038684Y-27269366D01*
X63038684Y-27269366D02*
X63072017Y-27302700D01*
X63705351Y-27936033D02*
X63372017Y-27936033D01*
X63372017Y-27936033D02*
X63372017Y-27236033D01*
X69625350Y-20049366D02*
X70158684Y-20049366D01*
X69625350Y-22589366D02*
X70158684Y-22589366D01*
X69892017Y-22856033D02*
X69892017Y-22322700D01*
X69592017Y-25362700D02*
X69692017Y-25396033D01*
X69692017Y-25396033D02*
X69858684Y-25396033D01*
X69858684Y-25396033D02*
X69925350Y-25362700D01*
X69925350Y-25362700D02*
X69958684Y-25329366D01*
X69958684Y-25329366D02*
X69992017Y-25262700D01*
X69992017Y-25262700D02*
X69992017Y-25196033D01*
X69992017Y-25196033D02*
X69958684Y-25129366D01*
X69958684Y-25129366D02*
X69925350Y-25096033D01*
X69925350Y-25096033D02*
X69858684Y-25062700D01*
X69858684Y-25062700D02*
X69725350Y-25029366D01*
X69725350Y-25029366D02*
X69658684Y-24996033D01*
X69658684Y-24996033D02*
X69625350Y-24962700D01*
X69625350Y-24962700D02*
X69592017Y-24896033D01*
X69592017Y-24896033D02*
X69592017Y-24829366D01*
X69592017Y-24829366D02*
X69625350Y-24762700D01*
X69625350Y-24762700D02*
X69658684Y-24729366D01*
X69658684Y-24729366D02*
X69725350Y-24696033D01*
X69725350Y-24696033D02*
X69892017Y-24696033D01*
X69892017Y-24696033D02*
X69992017Y-24729366D01*
X70292017Y-25396033D02*
X70292017Y-24696033D01*
X70292017Y-24696033D02*
X70458684Y-24696033D01*
X70458684Y-24696033D02*
X70558684Y-24729366D01*
X70558684Y-24729366D02*
X70625351Y-24796033D01*
X70625351Y-24796033D02*
X70658684Y-24862700D01*
X70658684Y-24862700D02*
X70692017Y-24996033D01*
X70692017Y-24996033D02*
X70692017Y-25096033D01*
X70692017Y-25096033D02*
X70658684Y-25229366D01*
X70658684Y-25229366D02*
X70625351Y-25296033D01*
X70625351Y-25296033D02*
X70558684Y-25362700D01*
X70558684Y-25362700D02*
X70458684Y-25396033D01*
X70458684Y-25396033D02*
X70292017Y-25396033D01*
X70958684Y-25196033D02*
X71292017Y-25196033D01*
X70892017Y-25396033D02*
X71125351Y-24696033D01*
X71125351Y-24696033D02*
X71358684Y-25396033D01*
X69592017Y-27902700D02*
X69692017Y-27936033D01*
X69692017Y-27936033D02*
X69858684Y-27936033D01*
X69858684Y-27936033D02*
X69925350Y-27902700D01*
X69925350Y-27902700D02*
X69958684Y-27869366D01*
X69958684Y-27869366D02*
X69992017Y-27802700D01*
X69992017Y-27802700D02*
X69992017Y-27736033D01*
X69992017Y-27736033D02*
X69958684Y-27669366D01*
X69958684Y-27669366D02*
X69925350Y-27636033D01*
X69925350Y-27636033D02*
X69858684Y-27602700D01*
X69858684Y-27602700D02*
X69725350Y-27569366D01*
X69725350Y-27569366D02*
X69658684Y-27536033D01*
X69658684Y-27536033D02*
X69625350Y-27502700D01*
X69625350Y-27502700D02*
X69592017Y-27436033D01*
X69592017Y-27436033D02*
X69592017Y-27369366D01*
X69592017Y-27369366D02*
X69625350Y-27302700D01*
X69625350Y-27302700D02*
X69658684Y-27269366D01*
X69658684Y-27269366D02*
X69725350Y-27236033D01*
X69725350Y-27236033D02*
X69892017Y-27236033D01*
X69892017Y-27236033D02*
X69992017Y-27269366D01*
X70692017Y-27869366D02*
X70658684Y-27902700D01*
X70658684Y-27902700D02*
X70558684Y-27936033D01*
X70558684Y-27936033D02*
X70492017Y-27936033D01*
X70492017Y-27936033D02*
X70392017Y-27902700D01*
X70392017Y-27902700D02*
X70325351Y-27836033D01*
X70325351Y-27836033D02*
X70292017Y-27769366D01*
X70292017Y-27769366D02*
X70258684Y-27636033D01*
X70258684Y-27636033D02*
X70258684Y-27536033D01*
X70258684Y-27536033D02*
X70292017Y-27402700D01*
X70292017Y-27402700D02*
X70325351Y-27336033D01*
X70325351Y-27336033D02*
X70392017Y-27269366D01*
X70392017Y-27269366D02*
X70492017Y-27236033D01*
X70492017Y-27236033D02*
X70558684Y-27236033D01*
X70558684Y-27236033D02*
X70658684Y-27269366D01*
X70658684Y-27269366D02*
X70692017Y-27302700D01*
X71325351Y-27936033D02*
X70992017Y-27936033D01*
X70992017Y-27936033D02*
X70992017Y-27236033D01*
X77245350Y-20049366D02*
X77778684Y-20049366D01*
X77245350Y-22589366D02*
X77778684Y-22589366D01*
X77512017Y-22856033D02*
X77512017Y-22322700D01*
X77212017Y-25362700D02*
X77312017Y-25396033D01*
X77312017Y-25396033D02*
X77478684Y-25396033D01*
X77478684Y-25396033D02*
X77545350Y-25362700D01*
X77545350Y-25362700D02*
X77578684Y-25329366D01*
X77578684Y-25329366D02*
X77612017Y-25262700D01*
X77612017Y-25262700D02*
X77612017Y-25196033D01*
X77612017Y-25196033D02*
X77578684Y-25129366D01*
X77578684Y-25129366D02*
X77545350Y-25096033D01*
X77545350Y-25096033D02*
X77478684Y-25062700D01*
X77478684Y-25062700D02*
X77345350Y-25029366D01*
X77345350Y-25029366D02*
X77278684Y-24996033D01*
X77278684Y-24996033D02*
X77245350Y-24962700D01*
X77245350Y-24962700D02*
X77212017Y-24896033D01*
X77212017Y-24896033D02*
X77212017Y-24829366D01*
X77212017Y-24829366D02*
X77245350Y-24762700D01*
X77245350Y-24762700D02*
X77278684Y-24729366D01*
X77278684Y-24729366D02*
X77345350Y-24696033D01*
X77345350Y-24696033D02*
X77512017Y-24696033D01*
X77512017Y-24696033D02*
X77612017Y-24729366D01*
X77912017Y-25396033D02*
X77912017Y-24696033D01*
X77912017Y-24696033D02*
X78078684Y-24696033D01*
X78078684Y-24696033D02*
X78178684Y-24729366D01*
X78178684Y-24729366D02*
X78245351Y-24796033D01*
X78245351Y-24796033D02*
X78278684Y-24862700D01*
X78278684Y-24862700D02*
X78312017Y-24996033D01*
X78312017Y-24996033D02*
X78312017Y-25096033D01*
X78312017Y-25096033D02*
X78278684Y-25229366D01*
X78278684Y-25229366D02*
X78245351Y-25296033D01*
X78245351Y-25296033D02*
X78178684Y-25362700D01*
X78178684Y-25362700D02*
X78078684Y-25396033D01*
X78078684Y-25396033D02*
X77912017Y-25396033D01*
X78578684Y-25196033D02*
X78912017Y-25196033D01*
X78512017Y-25396033D02*
X78745351Y-24696033D01*
X78745351Y-24696033D02*
X78978684Y-25396033D01*
X77212017Y-27902700D02*
X77312017Y-27936033D01*
X77312017Y-27936033D02*
X77478684Y-27936033D01*
X77478684Y-27936033D02*
X77545350Y-27902700D01*
X77545350Y-27902700D02*
X77578684Y-27869366D01*
X77578684Y-27869366D02*
X77612017Y-27802700D01*
X77612017Y-27802700D02*
X77612017Y-27736033D01*
X77612017Y-27736033D02*
X77578684Y-27669366D01*
X77578684Y-27669366D02*
X77545350Y-27636033D01*
X77545350Y-27636033D02*
X77478684Y-27602700D01*
X77478684Y-27602700D02*
X77345350Y-27569366D01*
X77345350Y-27569366D02*
X77278684Y-27536033D01*
X77278684Y-27536033D02*
X77245350Y-27502700D01*
X77245350Y-27502700D02*
X77212017Y-27436033D01*
X77212017Y-27436033D02*
X77212017Y-27369366D01*
X77212017Y-27369366D02*
X77245350Y-27302700D01*
X77245350Y-27302700D02*
X77278684Y-27269366D01*
X77278684Y-27269366D02*
X77345350Y-27236033D01*
X77345350Y-27236033D02*
X77512017Y-27236033D01*
X77512017Y-27236033D02*
X77612017Y-27269366D01*
X78312017Y-27869366D02*
X78278684Y-27902700D01*
X78278684Y-27902700D02*
X78178684Y-27936033D01*
X78178684Y-27936033D02*
X78112017Y-27936033D01*
X78112017Y-27936033D02*
X78012017Y-27902700D01*
X78012017Y-27902700D02*
X77945351Y-27836033D01*
X77945351Y-27836033D02*
X77912017Y-27769366D01*
X77912017Y-27769366D02*
X77878684Y-27636033D01*
X77878684Y-27636033D02*
X77878684Y-27536033D01*
X77878684Y-27536033D02*
X77912017Y-27402700D01*
X77912017Y-27402700D02*
X77945351Y-27336033D01*
X77945351Y-27336033D02*
X78012017Y-27269366D01*
X78012017Y-27269366D02*
X78112017Y-27236033D01*
X78112017Y-27236033D02*
X78178684Y-27236033D01*
X78178684Y-27236033D02*
X78278684Y-27269366D01*
X78278684Y-27269366D02*
X78312017Y-27302700D01*
X78945351Y-27936033D02*
X78612017Y-27936033D01*
X78612017Y-27936033D02*
X78612017Y-27236033D01*
X84865350Y-20049366D02*
X85398684Y-20049366D01*
X84865350Y-22589366D02*
X85398684Y-22589366D01*
X85132017Y-22856033D02*
X85132017Y-22322700D01*
X84832017Y-25362700D02*
X84932017Y-25396033D01*
X84932017Y-25396033D02*
X85098684Y-25396033D01*
X85098684Y-25396033D02*
X85165350Y-25362700D01*
X85165350Y-25362700D02*
X85198684Y-25329366D01*
X85198684Y-25329366D02*
X85232017Y-25262700D01*
X85232017Y-25262700D02*
X85232017Y-25196033D01*
X85232017Y-25196033D02*
X85198684Y-25129366D01*
X85198684Y-25129366D02*
X85165350Y-25096033D01*
X85165350Y-25096033D02*
X85098684Y-25062700D01*
X85098684Y-25062700D02*
X84965350Y-25029366D01*
X84965350Y-25029366D02*
X84898684Y-24996033D01*
X84898684Y-24996033D02*
X84865350Y-24962700D01*
X84865350Y-24962700D02*
X84832017Y-24896033D01*
X84832017Y-24896033D02*
X84832017Y-24829366D01*
X84832017Y-24829366D02*
X84865350Y-24762700D01*
X84865350Y-24762700D02*
X84898684Y-24729366D01*
X84898684Y-24729366D02*
X84965350Y-24696033D01*
X84965350Y-24696033D02*
X85132017Y-24696033D01*
X85132017Y-24696033D02*
X85232017Y-24729366D01*
X85532017Y-25396033D02*
X85532017Y-24696033D01*
X85532017Y-24696033D02*
X85698684Y-24696033D01*
X85698684Y-24696033D02*
X85798684Y-24729366D01*
X85798684Y-24729366D02*
X85865351Y-24796033D01*
X85865351Y-24796033D02*
X85898684Y-24862700D01*
X85898684Y-24862700D02*
X85932017Y-24996033D01*
X85932017Y-24996033D02*
X85932017Y-25096033D01*
X85932017Y-25096033D02*
X85898684Y-25229366D01*
X85898684Y-25229366D02*
X85865351Y-25296033D01*
X85865351Y-25296033D02*
X85798684Y-25362700D01*
X85798684Y-25362700D02*
X85698684Y-25396033D01*
X85698684Y-25396033D02*
X85532017Y-25396033D01*
X86198684Y-25196033D02*
X86532017Y-25196033D01*
X86132017Y-25396033D02*
X86365351Y-24696033D01*
X86365351Y-24696033D02*
X86598684Y-25396033D01*
X84832017Y-27902700D02*
X84932017Y-27936033D01*
X84932017Y-27936033D02*
X85098684Y-27936033D01*
X85098684Y-27936033D02*
X85165350Y-27902700D01*
X85165350Y-27902700D02*
X85198684Y-27869366D01*
X85198684Y-27869366D02*
X85232017Y-27802700D01*
X85232017Y-27802700D02*
X85232017Y-27736033D01*
X85232017Y-27736033D02*
X85198684Y-27669366D01*
X85198684Y-27669366D02*
X85165350Y-27636033D01*
X85165350Y-27636033D02*
X85098684Y-27602700D01*
X85098684Y-27602700D02*
X84965350Y-27569366D01*
X84965350Y-27569366D02*
X84898684Y-27536033D01*
X84898684Y-27536033D02*
X84865350Y-27502700D01*
X84865350Y-27502700D02*
X84832017Y-27436033D01*
X84832017Y-27436033D02*
X84832017Y-27369366D01*
X84832017Y-27369366D02*
X84865350Y-27302700D01*
X84865350Y-27302700D02*
X84898684Y-27269366D01*
X84898684Y-27269366D02*
X84965350Y-27236033D01*
X84965350Y-27236033D02*
X85132017Y-27236033D01*
X85132017Y-27236033D02*
X85232017Y-27269366D01*
X85932017Y-27869366D02*
X85898684Y-27902700D01*
X85898684Y-27902700D02*
X85798684Y-27936033D01*
X85798684Y-27936033D02*
X85732017Y-27936033D01*
X85732017Y-27936033D02*
X85632017Y-27902700D01*
X85632017Y-27902700D02*
X85565351Y-27836033D01*
X85565351Y-27836033D02*
X85532017Y-27769366D01*
X85532017Y-27769366D02*
X85498684Y-27636033D01*
X85498684Y-27636033D02*
X85498684Y-27536033D01*
X85498684Y-27536033D02*
X85532017Y-27402700D01*
X85532017Y-27402700D02*
X85565351Y-27336033D01*
X85565351Y-27336033D02*
X85632017Y-27269366D01*
X85632017Y-27269366D02*
X85732017Y-27236033D01*
X85732017Y-27236033D02*
X85798684Y-27236033D01*
X85798684Y-27236033D02*
X85898684Y-27269366D01*
X85898684Y-27269366D02*
X85932017Y-27302700D01*
X86565351Y-27936033D02*
X86232017Y-27936033D01*
X86232017Y-27936033D02*
X86232017Y-27236033D01*
X92485350Y-20049366D02*
X93018684Y-20049366D01*
X92485350Y-22589366D02*
X93018684Y-22589366D01*
X92752017Y-22856033D02*
X92752017Y-22322700D01*
X92452017Y-25362700D02*
X92552017Y-25396033D01*
X92552017Y-25396033D02*
X92718684Y-25396033D01*
X92718684Y-25396033D02*
X92785350Y-25362700D01*
X92785350Y-25362700D02*
X92818684Y-25329366D01*
X92818684Y-25329366D02*
X92852017Y-25262700D01*
X92852017Y-25262700D02*
X92852017Y-25196033D01*
X92852017Y-25196033D02*
X92818684Y-25129366D01*
X92818684Y-25129366D02*
X92785350Y-25096033D01*
X92785350Y-25096033D02*
X92718684Y-25062700D01*
X92718684Y-25062700D02*
X92585350Y-25029366D01*
X92585350Y-25029366D02*
X92518684Y-24996033D01*
X92518684Y-24996033D02*
X92485350Y-24962700D01*
X92485350Y-24962700D02*
X92452017Y-24896033D01*
X92452017Y-24896033D02*
X92452017Y-24829366D01*
X92452017Y-24829366D02*
X92485350Y-24762700D01*
X92485350Y-24762700D02*
X92518684Y-24729366D01*
X92518684Y-24729366D02*
X92585350Y-24696033D01*
X92585350Y-24696033D02*
X92752017Y-24696033D01*
X92752017Y-24696033D02*
X92852017Y-24729366D01*
X93152017Y-25396033D02*
X93152017Y-24696033D01*
X93152017Y-24696033D02*
X93318684Y-24696033D01*
X93318684Y-24696033D02*
X93418684Y-24729366D01*
X93418684Y-24729366D02*
X93485351Y-24796033D01*
X93485351Y-24796033D02*
X93518684Y-24862700D01*
X93518684Y-24862700D02*
X93552017Y-24996033D01*
X93552017Y-24996033D02*
X93552017Y-25096033D01*
X93552017Y-25096033D02*
X93518684Y-25229366D01*
X93518684Y-25229366D02*
X93485351Y-25296033D01*
X93485351Y-25296033D02*
X93418684Y-25362700D01*
X93418684Y-25362700D02*
X93318684Y-25396033D01*
X93318684Y-25396033D02*
X93152017Y-25396033D01*
X93818684Y-25196033D02*
X94152017Y-25196033D01*
X93752017Y-25396033D02*
X93985351Y-24696033D01*
X93985351Y-24696033D02*
X94218684Y-25396033D01*
X92452017Y-27902700D02*
X92552017Y-27936033D01*
X92552017Y-27936033D02*
X92718684Y-27936033D01*
X92718684Y-27936033D02*
X92785350Y-27902700D01*
X92785350Y-27902700D02*
X92818684Y-27869366D01*
X92818684Y-27869366D02*
X92852017Y-27802700D01*
X92852017Y-27802700D02*
X92852017Y-27736033D01*
X92852017Y-27736033D02*
X92818684Y-27669366D01*
X92818684Y-27669366D02*
X92785350Y-27636033D01*
X92785350Y-27636033D02*
X92718684Y-27602700D01*
X92718684Y-27602700D02*
X92585350Y-27569366D01*
X92585350Y-27569366D02*
X92518684Y-27536033D01*
X92518684Y-27536033D02*
X92485350Y-27502700D01*
X92485350Y-27502700D02*
X92452017Y-27436033D01*
X92452017Y-27436033D02*
X92452017Y-27369366D01*
X92452017Y-27369366D02*
X92485350Y-27302700D01*
X92485350Y-27302700D02*
X92518684Y-27269366D01*
X92518684Y-27269366D02*
X92585350Y-27236033D01*
X92585350Y-27236033D02*
X92752017Y-27236033D01*
X92752017Y-27236033D02*
X92852017Y-27269366D01*
X93552017Y-27869366D02*
X93518684Y-27902700D01*
X93518684Y-27902700D02*
X93418684Y-27936033D01*
X93418684Y-27936033D02*
X93352017Y-27936033D01*
X93352017Y-27936033D02*
X93252017Y-27902700D01*
X93252017Y-27902700D02*
X93185351Y-27836033D01*
X93185351Y-27836033D02*
X93152017Y-27769366D01*
X93152017Y-27769366D02*
X93118684Y-27636033D01*
X93118684Y-27636033D02*
X93118684Y-27536033D01*
X93118684Y-27536033D02*
X93152017Y-27402700D01*
X93152017Y-27402700D02*
X93185351Y-27336033D01*
X93185351Y-27336033D02*
X93252017Y-27269366D01*
X93252017Y-27269366D02*
X93352017Y-27236033D01*
X93352017Y-27236033D02*
X93418684Y-27236033D01*
X93418684Y-27236033D02*
X93518684Y-27269366D01*
X93518684Y-27269366D02*
X93552017Y-27302700D01*
X94185351Y-27936033D02*
X93852017Y-27936033D01*
X93852017Y-27936033D02*
X93852017Y-27236033D01*
X100105350Y-20049366D02*
X100638684Y-20049366D01*
X100105350Y-22589366D02*
X100638684Y-22589366D01*
X100372017Y-22856033D02*
X100372017Y-22322700D01*
X100072017Y-25362700D02*
X100172017Y-25396033D01*
X100172017Y-25396033D02*
X100338684Y-25396033D01*
X100338684Y-25396033D02*
X100405350Y-25362700D01*
X100405350Y-25362700D02*
X100438684Y-25329366D01*
X100438684Y-25329366D02*
X100472017Y-25262700D01*
X100472017Y-25262700D02*
X100472017Y-25196033D01*
X100472017Y-25196033D02*
X100438684Y-25129366D01*
X100438684Y-25129366D02*
X100405350Y-25096033D01*
X100405350Y-25096033D02*
X100338684Y-25062700D01*
X100338684Y-25062700D02*
X100205350Y-25029366D01*
X100205350Y-25029366D02*
X100138684Y-24996033D01*
X100138684Y-24996033D02*
X100105350Y-24962700D01*
X100105350Y-24962700D02*
X100072017Y-24896033D01*
X100072017Y-24896033D02*
X100072017Y-24829366D01*
X100072017Y-24829366D02*
X100105350Y-24762700D01*
X100105350Y-24762700D02*
X100138684Y-24729366D01*
X100138684Y-24729366D02*
X100205350Y-24696033D01*
X100205350Y-24696033D02*
X100372017Y-24696033D01*
X100372017Y-24696033D02*
X100472017Y-24729366D01*
X100772017Y-25396033D02*
X100772017Y-24696033D01*
X100772017Y-24696033D02*
X100938684Y-24696033D01*
X100938684Y-24696033D02*
X101038684Y-24729366D01*
X101038684Y-24729366D02*
X101105351Y-24796033D01*
X101105351Y-24796033D02*
X101138684Y-24862700D01*
X101138684Y-24862700D02*
X101172017Y-24996033D01*
X101172017Y-24996033D02*
X101172017Y-25096033D01*
X101172017Y-25096033D02*
X101138684Y-25229366D01*
X101138684Y-25229366D02*
X101105351Y-25296033D01*
X101105351Y-25296033D02*
X101038684Y-25362700D01*
X101038684Y-25362700D02*
X100938684Y-25396033D01*
X100938684Y-25396033D02*
X100772017Y-25396033D01*
X101438684Y-25196033D02*
X101772017Y-25196033D01*
X101372017Y-25396033D02*
X101605351Y-24696033D01*
X101605351Y-24696033D02*
X101838684Y-25396033D01*
X100072017Y-27902700D02*
X100172017Y-27936033D01*
X100172017Y-27936033D02*
X100338684Y-27936033D01*
X100338684Y-27936033D02*
X100405350Y-27902700D01*
X100405350Y-27902700D02*
X100438684Y-27869366D01*
X100438684Y-27869366D02*
X100472017Y-27802700D01*
X100472017Y-27802700D02*
X100472017Y-27736033D01*
X100472017Y-27736033D02*
X100438684Y-27669366D01*
X100438684Y-27669366D02*
X100405350Y-27636033D01*
X100405350Y-27636033D02*
X100338684Y-27602700D01*
X100338684Y-27602700D02*
X100205350Y-27569366D01*
X100205350Y-27569366D02*
X100138684Y-27536033D01*
X100138684Y-27536033D02*
X100105350Y-27502700D01*
X100105350Y-27502700D02*
X100072017Y-27436033D01*
X100072017Y-27436033D02*
X100072017Y-27369366D01*
X100072017Y-27369366D02*
X100105350Y-27302700D01*
X100105350Y-27302700D02*
X100138684Y-27269366D01*
X100138684Y-27269366D02*
X100205350Y-27236033D01*
X100205350Y-27236033D02*
X100372017Y-27236033D01*
X100372017Y-27236033D02*
X100472017Y-27269366D01*
X101172017Y-27869366D02*
X101138684Y-27902700D01*
X101138684Y-27902700D02*
X101038684Y-27936033D01*
X101038684Y-27936033D02*
X100972017Y-27936033D01*
X100972017Y-27936033D02*
X100872017Y-27902700D01*
X100872017Y-27902700D02*
X100805351Y-27836033D01*
X100805351Y-27836033D02*
X100772017Y-27769366D01*
X100772017Y-27769366D02*
X100738684Y-27636033D01*
X100738684Y-27636033D02*
X100738684Y-27536033D01*
X100738684Y-27536033D02*
X100772017Y-27402700D01*
X100772017Y-27402700D02*
X100805351Y-27336033D01*
X100805351Y-27336033D02*
X100872017Y-27269366D01*
X100872017Y-27269366D02*
X100972017Y-27236033D01*
X100972017Y-27236033D02*
X101038684Y-27236033D01*
X101038684Y-27236033D02*
X101138684Y-27269366D01*
X101138684Y-27269366D02*
X101172017Y-27302700D01*
X101805351Y-27936033D02*
X101472017Y-27936033D01*
X101472017Y-27936033D02*
X101472017Y-27236033D01*
X107725350Y-20049366D02*
X108258684Y-20049366D01*
X107725350Y-22589366D02*
X108258684Y-22589366D01*
X107992017Y-22856033D02*
X107992017Y-22322700D01*
X107692017Y-25362700D02*
X107792017Y-25396033D01*
X107792017Y-25396033D02*
X107958684Y-25396033D01*
X107958684Y-25396033D02*
X108025350Y-25362700D01*
X108025350Y-25362700D02*
X108058684Y-25329366D01*
X108058684Y-25329366D02*
X108092017Y-25262700D01*
X108092017Y-25262700D02*
X108092017Y-25196033D01*
X108092017Y-25196033D02*
X108058684Y-25129366D01*
X108058684Y-25129366D02*
X108025350Y-25096033D01*
X108025350Y-25096033D02*
X107958684Y-25062700D01*
X107958684Y-25062700D02*
X107825350Y-25029366D01*
X107825350Y-25029366D02*
X107758684Y-24996033D01*
X107758684Y-24996033D02*
X107725350Y-24962700D01*
X107725350Y-24962700D02*
X107692017Y-24896033D01*
X107692017Y-24896033D02*
X107692017Y-24829366D01*
X107692017Y-24829366D02*
X107725350Y-24762700D01*
X107725350Y-24762700D02*
X107758684Y-24729366D01*
X107758684Y-24729366D02*
X107825350Y-24696033D01*
X107825350Y-24696033D02*
X107992017Y-24696033D01*
X107992017Y-24696033D02*
X108092017Y-24729366D01*
X108392017Y-25396033D02*
X108392017Y-24696033D01*
X108392017Y-24696033D02*
X108558684Y-24696033D01*
X108558684Y-24696033D02*
X108658684Y-24729366D01*
X108658684Y-24729366D02*
X108725351Y-24796033D01*
X108725351Y-24796033D02*
X108758684Y-24862700D01*
X108758684Y-24862700D02*
X108792017Y-24996033D01*
X108792017Y-24996033D02*
X108792017Y-25096033D01*
X108792017Y-25096033D02*
X108758684Y-25229366D01*
X108758684Y-25229366D02*
X108725351Y-25296033D01*
X108725351Y-25296033D02*
X108658684Y-25362700D01*
X108658684Y-25362700D02*
X108558684Y-25396033D01*
X108558684Y-25396033D02*
X108392017Y-25396033D01*
X109058684Y-25196033D02*
X109392017Y-25196033D01*
X108992017Y-25396033D02*
X109225351Y-24696033D01*
X109225351Y-24696033D02*
X109458684Y-25396033D01*
X107692017Y-27902700D02*
X107792017Y-27936033D01*
X107792017Y-27936033D02*
X107958684Y-27936033D01*
X107958684Y-27936033D02*
X108025350Y-27902700D01*
X108025350Y-27902700D02*
X108058684Y-27869366D01*
X108058684Y-27869366D02*
X108092017Y-27802700D01*
X108092017Y-27802700D02*
X108092017Y-27736033D01*
X108092017Y-27736033D02*
X108058684Y-27669366D01*
X108058684Y-27669366D02*
X108025350Y-27636033D01*
X108025350Y-27636033D02*
X107958684Y-27602700D01*
X107958684Y-27602700D02*
X107825350Y-27569366D01*
X107825350Y-27569366D02*
X107758684Y-27536033D01*
X107758684Y-27536033D02*
X107725350Y-27502700D01*
X107725350Y-27502700D02*
X107692017Y-27436033D01*
X107692017Y-27436033D02*
X107692017Y-27369366D01*
X107692017Y-27369366D02*
X107725350Y-27302700D01*
X107725350Y-27302700D02*
X107758684Y-27269366D01*
X107758684Y-27269366D02*
X107825350Y-27236033D01*
X107825350Y-27236033D02*
X107992017Y-27236033D01*
X107992017Y-27236033D02*
X108092017Y-27269366D01*
X108792017Y-27869366D02*
X108758684Y-27902700D01*
X108758684Y-27902700D02*
X108658684Y-27936033D01*
X108658684Y-27936033D02*
X108592017Y-27936033D01*
X108592017Y-27936033D02*
X108492017Y-27902700D01*
X108492017Y-27902700D02*
X108425351Y-27836033D01*
X108425351Y-27836033D02*
X108392017Y-27769366D01*
X108392017Y-27769366D02*
X108358684Y-27636033D01*
X108358684Y-27636033D02*
X108358684Y-27536033D01*
X108358684Y-27536033D02*
X108392017Y-27402700D01*
X108392017Y-27402700D02*
X108425351Y-27336033D01*
X108425351Y-27336033D02*
X108492017Y-27269366D01*
X108492017Y-27269366D02*
X108592017Y-27236033D01*
X108592017Y-27236033D02*
X108658684Y-27236033D01*
X108658684Y-27236033D02*
X108758684Y-27269366D01*
X108758684Y-27269366D02*
X108792017Y-27302700D01*
X109425351Y-27936033D02*
X109092017Y-27936033D01*
X109092017Y-27936033D02*
X109092017Y-27236033D01*
X115345350Y-20049366D02*
X115878684Y-20049366D01*
X115345350Y-22589366D02*
X115878684Y-22589366D01*
X115612017Y-22856033D02*
X115612017Y-22322700D01*
X115312017Y-25362700D02*
X115412017Y-25396033D01*
X115412017Y-25396033D02*
X115578684Y-25396033D01*
X115578684Y-25396033D02*
X115645350Y-25362700D01*
X115645350Y-25362700D02*
X115678684Y-25329366D01*
X115678684Y-25329366D02*
X115712017Y-25262700D01*
X115712017Y-25262700D02*
X115712017Y-25196033D01*
X115712017Y-25196033D02*
X115678684Y-25129366D01*
X115678684Y-25129366D02*
X115645350Y-25096033D01*
X115645350Y-25096033D02*
X115578684Y-25062700D01*
X115578684Y-25062700D02*
X115445350Y-25029366D01*
X115445350Y-25029366D02*
X115378684Y-24996033D01*
X115378684Y-24996033D02*
X115345350Y-24962700D01*
X115345350Y-24962700D02*
X115312017Y-24896033D01*
X115312017Y-24896033D02*
X115312017Y-24829366D01*
X115312017Y-24829366D02*
X115345350Y-24762700D01*
X115345350Y-24762700D02*
X115378684Y-24729366D01*
X115378684Y-24729366D02*
X115445350Y-24696033D01*
X115445350Y-24696033D02*
X115612017Y-24696033D01*
X115612017Y-24696033D02*
X115712017Y-24729366D01*
X116012017Y-25396033D02*
X116012017Y-24696033D01*
X116012017Y-24696033D02*
X116178684Y-24696033D01*
X116178684Y-24696033D02*
X116278684Y-24729366D01*
X116278684Y-24729366D02*
X116345351Y-24796033D01*
X116345351Y-24796033D02*
X116378684Y-24862700D01*
X116378684Y-24862700D02*
X116412017Y-24996033D01*
X116412017Y-24996033D02*
X116412017Y-25096033D01*
X116412017Y-25096033D02*
X116378684Y-25229366D01*
X116378684Y-25229366D02*
X116345351Y-25296033D01*
X116345351Y-25296033D02*
X116278684Y-25362700D01*
X116278684Y-25362700D02*
X116178684Y-25396033D01*
X116178684Y-25396033D02*
X116012017Y-25396033D01*
X116678684Y-25196033D02*
X117012017Y-25196033D01*
X116612017Y-25396033D02*
X116845351Y-24696033D01*
X116845351Y-24696033D02*
X117078684Y-25396033D01*
X115312017Y-27902700D02*
X115412017Y-27936033D01*
X115412017Y-27936033D02*
X115578684Y-27936033D01*
X115578684Y-27936033D02*
X115645350Y-27902700D01*
X115645350Y-27902700D02*
X115678684Y-27869366D01*
X115678684Y-27869366D02*
X115712017Y-27802700D01*
X115712017Y-27802700D02*
X115712017Y-27736033D01*
X115712017Y-27736033D02*
X115678684Y-27669366D01*
X115678684Y-27669366D02*
X115645350Y-27636033D01*
X115645350Y-27636033D02*
X115578684Y-27602700D01*
X115578684Y-27602700D02*
X115445350Y-27569366D01*
X115445350Y-27569366D02*
X115378684Y-27536033D01*
X115378684Y-27536033D02*
X115345350Y-27502700D01*
X115345350Y-27502700D02*
X115312017Y-27436033D01*
X115312017Y-27436033D02*
X115312017Y-27369366D01*
X115312017Y-27369366D02*
X115345350Y-27302700D01*
X115345350Y-27302700D02*
X115378684Y-27269366D01*
X115378684Y-27269366D02*
X115445350Y-27236033D01*
X115445350Y-27236033D02*
X115612017Y-27236033D01*
X115612017Y-27236033D02*
X115712017Y-27269366D01*
X116412017Y-27869366D02*
X116378684Y-27902700D01*
X116378684Y-27902700D02*
X116278684Y-27936033D01*
X116278684Y-27936033D02*
X116212017Y-27936033D01*
X116212017Y-27936033D02*
X116112017Y-27902700D01*
X116112017Y-27902700D02*
X116045351Y-27836033D01*
X116045351Y-27836033D02*
X116012017Y-27769366D01*
X116012017Y-27769366D02*
X115978684Y-27636033D01*
X115978684Y-27636033D02*
X115978684Y-27536033D01*
X115978684Y-27536033D02*
X116012017Y-27402700D01*
X116012017Y-27402700D02*
X116045351Y-27336033D01*
X116045351Y-27336033D02*
X116112017Y-27269366D01*
X116112017Y-27269366D02*
X116212017Y-27236033D01*
X116212017Y-27236033D02*
X116278684Y-27236033D01*
X116278684Y-27236033D02*
X116378684Y-27269366D01*
X116378684Y-27269366D02*
X116412017Y-27302700D01*
X117045351Y-27936033D02*
X116712017Y-27936033D01*
X116712017Y-27936033D02*
X116712017Y-27236033D01*
X23776190Y-16562295D02*
X23509523Y-16181342D01*
X23319047Y-16562295D02*
X23319047Y-15762295D01*
X23319047Y-15762295D02*
X23623809Y-15762295D01*
X23623809Y-15762295D02*
X23699999Y-15800390D01*
X23699999Y-15800390D02*
X23738094Y-15838485D01*
X23738094Y-15838485D02*
X23776190Y-15914676D01*
X23776190Y-15914676D02*
X23776190Y-16028961D01*
X23776190Y-16028961D02*
X23738094Y-16105152D01*
X23738094Y-16105152D02*
X23699999Y-16143247D01*
X23699999Y-16143247D02*
X23623809Y-16181342D01*
X23623809Y-16181342D02*
X23319047Y-16181342D01*
X24538094Y-16562295D02*
X24080951Y-16562295D01*
X24309523Y-16562295D02*
X24309523Y-15762295D01*
X24309523Y-15762295D02*
X24233332Y-15876580D01*
X24233332Y-15876580D02*
X24157142Y-15952771D01*
X24157142Y-15952771D02*
X24080951Y-15990866D01*
X25452380Y-15724200D02*
X24766666Y-16752771D01*
X26176190Y-16562295D02*
X25909523Y-16181342D01*
X25719047Y-16562295D02*
X25719047Y-15762295D01*
X25719047Y-15762295D02*
X26023809Y-15762295D01*
X26023809Y-15762295D02*
X26099999Y-15800390D01*
X26099999Y-15800390D02*
X26138094Y-15838485D01*
X26138094Y-15838485D02*
X26176190Y-15914676D01*
X26176190Y-15914676D02*
X26176190Y-16028961D01*
X26176190Y-16028961D02*
X26138094Y-16105152D01*
X26138094Y-16105152D02*
X26099999Y-16143247D01*
X26099999Y-16143247D02*
X26023809Y-16181342D01*
X26023809Y-16181342D02*
X25719047Y-16181342D01*
X26480951Y-15838485D02*
X26519047Y-15800390D01*
X26519047Y-15800390D02*
X26595237Y-15762295D01*
X26595237Y-15762295D02*
X26785713Y-15762295D01*
X26785713Y-15762295D02*
X26861904Y-15800390D01*
X26861904Y-15800390D02*
X26899999Y-15838485D01*
X26899999Y-15838485D02*
X26938094Y-15914676D01*
X26938094Y-15914676D02*
X26938094Y-15990866D01*
X26938094Y-15990866D02*
X26899999Y-16105152D01*
X26899999Y-16105152D02*
X26442856Y-16562295D01*
X26442856Y-16562295D02*
X26938094Y-16562295D01*
X28233333Y-16028961D02*
X28233333Y-16562295D01*
X28042857Y-15724200D02*
X27852380Y-16295628D01*
X27852380Y-16295628D02*
X28347619Y-16295628D01*
X28652381Y-16562295D02*
X28652381Y-15762295D01*
X28728571Y-16257533D02*
X28957143Y-16562295D01*
X28957143Y-16028961D02*
X28652381Y-16333723D01*
X29223809Y-15762295D02*
X29757143Y-15762295D01*
X29757143Y-15762295D02*
X29414285Y-16562295D01*
X37971428Y-16265700D02*
X38657143Y-16265700D01*
X38314285Y-16608557D02*
X38314285Y-15922842D01*
X39771428Y-16137128D02*
X40457143Y-16137128D01*
X40457143Y-16394271D02*
X39771428Y-16394271D01*
X41485714Y-15708557D02*
X42042857Y-15708557D01*
X42042857Y-15708557D02*
X41742857Y-16051414D01*
X41742857Y-16051414D02*
X41871428Y-16051414D01*
X41871428Y-16051414D02*
X41957143Y-16094271D01*
X41957143Y-16094271D02*
X42000000Y-16137128D01*
X42000000Y-16137128D02*
X42042857Y-16222842D01*
X42042857Y-16222842D02*
X42042857Y-16437128D01*
X42042857Y-16437128D02*
X42000000Y-16522842D01*
X42000000Y-16522842D02*
X41957143Y-16565700D01*
X41957143Y-16565700D02*
X41871428Y-16608557D01*
X41871428Y-16608557D02*
X41614285Y-16608557D01*
X41614285Y-16608557D02*
X41528571Y-16565700D01*
X41528571Y-16565700D02*
X41485714Y-16522842D01*
X42300000Y-15708557D02*
X42600000Y-16608557D01*
X42600000Y-16608557D02*
X42900000Y-15708557D01*
X43114286Y-15708557D02*
X43671429Y-15708557D01*
X43671429Y-15708557D02*
X43371429Y-16051414D01*
X43371429Y-16051414D02*
X43500000Y-16051414D01*
X43500000Y-16051414D02*
X43585715Y-16094271D01*
X43585715Y-16094271D02*
X43628572Y-16137128D01*
X43628572Y-16137128D02*
X43671429Y-16222842D01*
X43671429Y-16222842D02*
X43671429Y-16437128D01*
X43671429Y-16437128D02*
X43628572Y-16522842D01*
X43628572Y-16522842D02*
X43585715Y-16565700D01*
X43585715Y-16565700D02*
X43500000Y-16608557D01*
X43500000Y-16608557D02*
X43242857Y-16608557D01*
X43242857Y-16608557D02*
X43157143Y-16565700D01*
X43157143Y-16565700D02*
X43114286Y-16522842D01*
X46114285Y-16265700D02*
X46800000Y-16265700D01*
X47914285Y-16137128D02*
X48600000Y-16137128D01*
X48600000Y-16394271D02*
X47914285Y-16394271D01*
X50185714Y-15751414D02*
X50100000Y-15708557D01*
X50100000Y-15708557D02*
X49971428Y-15708557D01*
X49971428Y-15708557D02*
X49842857Y-15751414D01*
X49842857Y-15751414D02*
X49757142Y-15837128D01*
X49757142Y-15837128D02*
X49714285Y-15922842D01*
X49714285Y-15922842D02*
X49671428Y-16094271D01*
X49671428Y-16094271D02*
X49671428Y-16222842D01*
X49671428Y-16222842D02*
X49714285Y-16394271D01*
X49714285Y-16394271D02*
X49757142Y-16479985D01*
X49757142Y-16479985D02*
X49842857Y-16565700D01*
X49842857Y-16565700D02*
X49971428Y-16608557D01*
X49971428Y-16608557D02*
X50057142Y-16608557D01*
X50057142Y-16608557D02*
X50185714Y-16565700D01*
X50185714Y-16565700D02*
X50228571Y-16522842D01*
X50228571Y-16522842D02*
X50228571Y-16222842D01*
X50228571Y-16222842D02*
X50057142Y-16222842D01*
X50614285Y-16608557D02*
X50614285Y-15708557D01*
X50614285Y-15708557D02*
X51128571Y-16608557D01*
X51128571Y-16608557D02*
X51128571Y-15708557D01*
X51557142Y-16608557D02*
X51557142Y-15708557D01*
X51557142Y-15708557D02*
X51771428Y-15708557D01*
X51771428Y-15708557D02*
X51899999Y-15751414D01*
X51899999Y-15751414D02*
X51985714Y-15837128D01*
X51985714Y-15837128D02*
X52028571Y-15922842D01*
X52028571Y-15922842D02*
X52071428Y-16094271D01*
X52071428Y-16094271D02*
X52071428Y-16222842D01*
X52071428Y-16222842D02*
X52028571Y-16394271D01*
X52028571Y-16394271D02*
X51985714Y-16479985D01*
X51985714Y-16479985D02*
X51899999Y-16565700D01*
X51899999Y-16565700D02*
X51771428Y-16608557D01*
X51771428Y-16608557D02*
X51557142Y-16608557D01*
X119800000Y-39608557D02*
X119800000Y-38708557D01*
X119800000Y-38708557D02*
X120142857Y-38708557D01*
X120142857Y-38708557D02*
X120228572Y-38751414D01*
X120228572Y-38751414D02*
X120271429Y-38794271D01*
X120271429Y-38794271D02*
X120314286Y-38879985D01*
X120314286Y-38879985D02*
X120314286Y-39008557D01*
X120314286Y-39008557D02*
X120271429Y-39094271D01*
X120271429Y-39094271D02*
X120228572Y-39137128D01*
X120228572Y-39137128D02*
X120142857Y-39179985D01*
X120142857Y-39179985D02*
X119800000Y-39179985D01*
X120614286Y-38708557D02*
X120828572Y-39608557D01*
X120828572Y-39608557D02*
X121000000Y-38965700D01*
X121000000Y-38965700D02*
X121171429Y-39608557D01*
X121171429Y-39608557D02*
X121385715Y-38708557D01*
X122242857Y-39608557D02*
X121942857Y-39179985D01*
X121728571Y-39608557D02*
X121728571Y-38708557D01*
X121728571Y-38708557D02*
X122071428Y-38708557D01*
X122071428Y-38708557D02*
X122157143Y-38751414D01*
X122157143Y-38751414D02*
X122200000Y-38794271D01*
X122200000Y-38794271D02*
X122242857Y-38879985D01*
X122242857Y-38879985D02*
X122242857Y-39008557D01*
X122242857Y-39008557D02*
X122200000Y-39094271D01*
X122200000Y-39094271D02*
X122157143Y-39137128D01*
X122157143Y-39137128D02*
X122071428Y-39179985D01*
X122071428Y-39179985D02*
X121728571Y-39179985D01*
X2738094Y-13454819D02*
X2261904Y-13454819D01*
X2261904Y-13454819D02*
X2261904Y-12454819D01*
X3499999Y-13454819D02*
X3499999Y-12931009D01*
X3499999Y-12931009D02*
X3452380Y-12835771D01*
X3452380Y-12835771D02*
X3357142Y-12788152D01*
X3357142Y-12788152D02*
X3166666Y-12788152D01*
X3166666Y-12788152D02*
X3071428Y-12835771D01*
X3499999Y-13407200D02*
X3404761Y-13454819D01*
X3404761Y-13454819D02*
X3166666Y-13454819D01*
X3166666Y-13454819D02*
X3071428Y-13407200D01*
X3071428Y-13407200D02*
X3023809Y-13311961D01*
X3023809Y-13311961D02*
X3023809Y-13216723D01*
X3023809Y-13216723D02*
X3071428Y-13121485D01*
X3071428Y-13121485D02*
X3166666Y-13073866D01*
X3166666Y-13073866D02*
X3404761Y-13073866D01*
X3404761Y-13073866D02*
X3499999Y-13026247D01*
X3976190Y-13454819D02*
X3976190Y-12454819D01*
X3976190Y-12835771D02*
X4071428Y-12788152D01*
X4071428Y-12788152D02*
X4261904Y-12788152D01*
X4261904Y-12788152D02*
X4357142Y-12835771D01*
X4357142Y-12835771D02*
X4404761Y-12883390D01*
X4404761Y-12883390D02*
X4452380Y-12978628D01*
X4452380Y-12978628D02*
X4452380Y-13264342D01*
X4452380Y-13264342D02*
X4404761Y-13359580D01*
X4404761Y-13359580D02*
X4357142Y-13407200D01*
X4357142Y-13407200D02*
X4261904Y-13454819D01*
X4261904Y-13454819D02*
X4071428Y-13454819D01*
X4071428Y-13454819D02*
X3976190Y-13407200D01*
X5166666Y-12454819D02*
X5166666Y-13169104D01*
X5166666Y-13169104D02*
X5119047Y-13311961D01*
X5119047Y-13311961D02*
X5023809Y-13407200D01*
X5023809Y-13407200D02*
X4880952Y-13454819D01*
X4880952Y-13454819D02*
X4785714Y-13454819D01*
X6071428Y-13454819D02*
X6071428Y-12931009D01*
X6071428Y-12931009D02*
X6023809Y-12835771D01*
X6023809Y-12835771D02*
X5928571Y-12788152D01*
X5928571Y-12788152D02*
X5738095Y-12788152D01*
X5738095Y-12788152D02*
X5642857Y-12835771D01*
X6071428Y-13407200D02*
X5976190Y-13454819D01*
X5976190Y-13454819D02*
X5738095Y-13454819D01*
X5738095Y-13454819D02*
X5642857Y-13407200D01*
X5642857Y-13407200D02*
X5595238Y-13311961D01*
X5595238Y-13311961D02*
X5595238Y-13216723D01*
X5595238Y-13216723D02*
X5642857Y-13121485D01*
X5642857Y-13121485D02*
X5738095Y-13073866D01*
X5738095Y-13073866D02*
X5976190Y-13073866D01*
X5976190Y-13073866D02*
X6071428Y-13026247D01*
X6976190Y-13407200D02*
X6880952Y-13454819D01*
X6880952Y-13454819D02*
X6690476Y-13454819D01*
X6690476Y-13454819D02*
X6595238Y-13407200D01*
X6595238Y-13407200D02*
X6547619Y-13359580D01*
X6547619Y-13359580D02*
X6500000Y-13264342D01*
X6500000Y-13264342D02*
X6500000Y-12978628D01*
X6500000Y-12978628D02*
X6547619Y-12883390D01*
X6547619Y-12883390D02*
X6595238Y-12835771D01*
X6595238Y-12835771D02*
X6690476Y-12788152D01*
X6690476Y-12788152D02*
X6880952Y-12788152D01*
X6880952Y-12788152D02*
X6976190Y-12835771D01*
X7404762Y-13454819D02*
X7404762Y-12454819D01*
X7500000Y-13073866D02*
X7785714Y-13454819D01*
X7785714Y-12788152D02*
X7404762Y-13169104D01*
X36464285Y-14486128D02*
X36464285Y-12986128D01*
X37107143Y-13128985D02*
X37178571Y-13057557D01*
X37178571Y-13057557D02*
X37321429Y-12986128D01*
X37321429Y-12986128D02*
X37678571Y-12986128D01*
X37678571Y-12986128D02*
X37821429Y-13057557D01*
X37821429Y-13057557D02*
X37892857Y-13128985D01*
X37892857Y-13128985D02*
X37964286Y-13271842D01*
X37964286Y-13271842D02*
X37964286Y-13414700D01*
X37964286Y-13414700D02*
X37892857Y-13628985D01*
X37892857Y-13628985D02*
X37035714Y-14486128D01*
X37035714Y-14486128D02*
X37964286Y-14486128D01*
X39464285Y-14343271D02*
X39392857Y-14414700D01*
X39392857Y-14414700D02*
X39178571Y-14486128D01*
X39178571Y-14486128D02*
X39035714Y-14486128D01*
X39035714Y-14486128D02*
X38821428Y-14414700D01*
X38821428Y-14414700D02*
X38678571Y-14271842D01*
X38678571Y-14271842D02*
X38607142Y-14128985D01*
X38607142Y-14128985D02*
X38535714Y-13843271D01*
X38535714Y-13843271D02*
X38535714Y-13628985D01*
X38535714Y-13628985D02*
X38607142Y-13343271D01*
X38607142Y-13343271D02*
X38678571Y-13200414D01*
X38678571Y-13200414D02*
X38821428Y-13057557D01*
X38821428Y-13057557D02*
X39035714Y-12986128D01*
X39035714Y-12986128D02*
X39178571Y-12986128D01*
X39178571Y-12986128D02*
X39392857Y-13057557D01*
X39392857Y-13057557D02*
X39464285Y-13128985D01*
X41749999Y-13700414D02*
X41964285Y-13771842D01*
X41964285Y-13771842D02*
X42035714Y-13843271D01*
X42035714Y-13843271D02*
X42107142Y-13986128D01*
X42107142Y-13986128D02*
X42107142Y-14200414D01*
X42107142Y-14200414D02*
X42035714Y-14343271D01*
X42035714Y-14343271D02*
X41964285Y-14414700D01*
X41964285Y-14414700D02*
X41821428Y-14486128D01*
X41821428Y-14486128D02*
X41249999Y-14486128D01*
X41249999Y-14486128D02*
X41249999Y-12986128D01*
X41249999Y-12986128D02*
X41749999Y-12986128D01*
X41749999Y-12986128D02*
X41892857Y-13057557D01*
X41892857Y-13057557D02*
X41964285Y-13128985D01*
X41964285Y-13128985D02*
X42035714Y-13271842D01*
X42035714Y-13271842D02*
X42035714Y-13414700D01*
X42035714Y-13414700D02*
X41964285Y-13557557D01*
X41964285Y-13557557D02*
X41892857Y-13628985D01*
X41892857Y-13628985D02*
X41749999Y-13700414D01*
X41749999Y-13700414D02*
X41249999Y-13700414D01*
X42749999Y-12986128D02*
X42749999Y-14200414D01*
X42749999Y-14200414D02*
X42821428Y-14343271D01*
X42821428Y-14343271D02*
X42892857Y-14414700D01*
X42892857Y-14414700D02*
X43035714Y-14486128D01*
X43035714Y-14486128D02*
X43321428Y-14486128D01*
X43321428Y-14486128D02*
X43464285Y-14414700D01*
X43464285Y-14414700D02*
X43535714Y-14343271D01*
X43535714Y-14343271D02*
X43607142Y-14200414D01*
X43607142Y-14200414D02*
X43607142Y-12986128D01*
X44250000Y-14414700D02*
X44464286Y-14486128D01*
X44464286Y-14486128D02*
X44821428Y-14486128D01*
X44821428Y-14486128D02*
X44964286Y-14414700D01*
X44964286Y-14414700D02*
X45035714Y-14343271D01*
X45035714Y-14343271D02*
X45107143Y-14200414D01*
X45107143Y-14200414D02*
X45107143Y-14057557D01*
X45107143Y-14057557D02*
X45035714Y-13914700D01*
X45035714Y-13914700D02*
X44964286Y-13843271D01*
X44964286Y-13843271D02*
X44821428Y-13771842D01*
X44821428Y-13771842D02*
X44535714Y-13700414D01*
X44535714Y-13700414D02*
X44392857Y-13628985D01*
X44392857Y-13628985D02*
X44321428Y-13557557D01*
X44321428Y-13557557D02*
X44250000Y-13414700D01*
X44250000Y-13414700D02*
X44250000Y-13271842D01*
X44250000Y-13271842D02*
X44321428Y-13128985D01*
X44321428Y-13128985D02*
X44392857Y-13057557D01*
X44392857Y-13057557D02*
X44535714Y-12986128D01*
X44535714Y-12986128D02*
X44892857Y-12986128D01*
X44892857Y-12986128D02*
X45107143Y-13057557D01*
X47392856Y-13700414D02*
X47607142Y-13771842D01*
X47607142Y-13771842D02*
X47678571Y-13843271D01*
X47678571Y-13843271D02*
X47749999Y-13986128D01*
X47749999Y-13986128D02*
X47749999Y-14200414D01*
X47749999Y-14200414D02*
X47678571Y-14343271D01*
X47678571Y-14343271D02*
X47607142Y-14414700D01*
X47607142Y-14414700D02*
X47464285Y-14486128D01*
X47464285Y-14486128D02*
X46892856Y-14486128D01*
X46892856Y-14486128D02*
X46892856Y-12986128D01*
X46892856Y-12986128D02*
X47392856Y-12986128D01*
X47392856Y-12986128D02*
X47535714Y-13057557D01*
X47535714Y-13057557D02*
X47607142Y-13128985D01*
X47607142Y-13128985D02*
X47678571Y-13271842D01*
X47678571Y-13271842D02*
X47678571Y-13414700D01*
X47678571Y-13414700D02*
X47607142Y-13557557D01*
X47607142Y-13557557D02*
X47535714Y-13628985D01*
X47535714Y-13628985D02*
X47392856Y-13700414D01*
X47392856Y-13700414D02*
X46892856Y-13700414D01*
X48678571Y-12986128D02*
X48964285Y-12986128D01*
X48964285Y-12986128D02*
X49107142Y-13057557D01*
X49107142Y-13057557D02*
X49249999Y-13200414D01*
X49249999Y-13200414D02*
X49321428Y-13486128D01*
X49321428Y-13486128D02*
X49321428Y-13986128D01*
X49321428Y-13986128D02*
X49249999Y-14271842D01*
X49249999Y-14271842D02*
X49107142Y-14414700D01*
X49107142Y-14414700D02*
X48964285Y-14486128D01*
X48964285Y-14486128D02*
X48678571Y-14486128D01*
X48678571Y-14486128D02*
X48535714Y-14414700D01*
X48535714Y-14414700D02*
X48392856Y-14271842D01*
X48392856Y-14271842D02*
X48321428Y-13986128D01*
X48321428Y-13986128D02*
X48321428Y-13486128D01*
X48321428Y-13486128D02*
X48392856Y-13200414D01*
X48392856Y-13200414D02*
X48535714Y-13057557D01*
X48535714Y-13057557D02*
X48678571Y-12986128D01*
X49892857Y-14057557D02*
X50607143Y-14057557D01*
X49750000Y-14486128D02*
X50250000Y-12986128D01*
X50250000Y-12986128D02*
X50750000Y-14486128D01*
X52107142Y-14486128D02*
X51607142Y-13771842D01*
X51249999Y-14486128D02*
X51249999Y-12986128D01*
X51249999Y-12986128D02*
X51821428Y-12986128D01*
X51821428Y-12986128D02*
X51964285Y-13057557D01*
X51964285Y-13057557D02*
X52035714Y-13128985D01*
X52035714Y-13128985D02*
X52107142Y-13271842D01*
X52107142Y-13271842D02*
X52107142Y-13486128D01*
X52107142Y-13486128D02*
X52035714Y-13628985D01*
X52035714Y-13628985D02*
X51964285Y-13700414D01*
X51964285Y-13700414D02*
X51821428Y-13771842D01*
X51821428Y-13771842D02*
X51249999Y-13771842D01*
X52749999Y-14486128D02*
X52749999Y-12986128D01*
X52749999Y-12986128D02*
X53107142Y-12986128D01*
X53107142Y-12986128D02*
X53321428Y-13057557D01*
X53321428Y-13057557D02*
X53464285Y-13200414D01*
X53464285Y-13200414D02*
X53535714Y-13343271D01*
X53535714Y-13343271D02*
X53607142Y-13628985D01*
X53607142Y-13628985D02*
X53607142Y-13843271D01*
X53607142Y-13843271D02*
X53535714Y-14128985D01*
X53535714Y-14128985D02*
X53464285Y-14271842D01*
X53464285Y-14271842D02*
X53321428Y-14414700D01*
X53321428Y-14414700D02*
X53107142Y-14486128D01*
X53107142Y-14486128D02*
X52749999Y-14486128D01*
X45457142Y-18332390D02*
X44542856Y-18332390D01*
X44999999Y-18332390D02*
X44999999Y-16732390D01*
X44999999Y-16732390D02*
X44847618Y-16960961D01*
X44847618Y-16960961D02*
X44695237Y-17113342D01*
X44695237Y-17113342D02*
X44542856Y-17189533D01*
X52162856Y-16884771D02*
X52239047Y-16808580D01*
X52239047Y-16808580D02*
X52391428Y-16732390D01*
X52391428Y-16732390D02*
X52772380Y-16732390D01*
X52772380Y-16732390D02*
X52924761Y-16808580D01*
X52924761Y-16808580D02*
X53000952Y-16884771D01*
X53000952Y-16884771D02*
X53077142Y-17037152D01*
X53077142Y-17037152D02*
X53077142Y-17189533D01*
X53077142Y-17189533D02*
X53000952Y-17418104D01*
X53000952Y-17418104D02*
X52086666Y-18332390D01*
X52086666Y-18332390D02*
X53077142Y-18332390D01*
X59706666Y-16732390D02*
X60697142Y-16732390D01*
X60697142Y-16732390D02*
X60163809Y-17341914D01*
X60163809Y-17341914D02*
X60392380Y-17341914D01*
X60392380Y-17341914D02*
X60544761Y-17418104D01*
X60544761Y-17418104D02*
X60620952Y-17494295D01*
X60620952Y-17494295D02*
X60697142Y-17646676D01*
X60697142Y-17646676D02*
X60697142Y-18027628D01*
X60697142Y-18027628D02*
X60620952Y-18180009D01*
X60620952Y-18180009D02*
X60544761Y-18256200D01*
X60544761Y-18256200D02*
X60392380Y-18332390D01*
X60392380Y-18332390D02*
X59935237Y-18332390D01*
X59935237Y-18332390D02*
X59782856Y-18256200D01*
X59782856Y-18256200D02*
X59706666Y-18180009D01*
X68164761Y-17265723D02*
X68164761Y-18332390D01*
X67783809Y-16656200D02*
X67402856Y-17799057D01*
X67402856Y-17799057D02*
X68393333Y-17799057D01*
X75860952Y-16732390D02*
X75099047Y-16732390D01*
X75099047Y-16732390D02*
X75022856Y-17494295D01*
X75022856Y-17494295D02*
X75099047Y-17418104D01*
X75099047Y-17418104D02*
X75251428Y-17341914D01*
X75251428Y-17341914D02*
X75632380Y-17341914D01*
X75632380Y-17341914D02*
X75784761Y-17418104D01*
X75784761Y-17418104D02*
X75860952Y-17494295D01*
X75860952Y-17494295D02*
X75937142Y-17646676D01*
X75937142Y-17646676D02*
X75937142Y-18027628D01*
X75937142Y-18027628D02*
X75860952Y-18180009D01*
X75860952Y-18180009D02*
X75784761Y-18256200D01*
X75784761Y-18256200D02*
X75632380Y-18332390D01*
X75632380Y-18332390D02*
X75251428Y-18332390D01*
X75251428Y-18332390D02*
X75099047Y-18256200D01*
X75099047Y-18256200D02*
X75022856Y-18180009D01*
X83404761Y-16732390D02*
X83099999Y-16732390D01*
X83099999Y-16732390D02*
X82947618Y-16808580D01*
X82947618Y-16808580D02*
X82871428Y-16884771D01*
X82871428Y-16884771D02*
X82719047Y-17113342D01*
X82719047Y-17113342D02*
X82642856Y-17418104D01*
X82642856Y-17418104D02*
X82642856Y-18027628D01*
X82642856Y-18027628D02*
X82719047Y-18180009D01*
X82719047Y-18180009D02*
X82795237Y-18256200D01*
X82795237Y-18256200D02*
X82947618Y-18332390D01*
X82947618Y-18332390D02*
X83252380Y-18332390D01*
X83252380Y-18332390D02*
X83404761Y-18256200D01*
X83404761Y-18256200D02*
X83480952Y-18180009D01*
X83480952Y-18180009D02*
X83557142Y-18027628D01*
X83557142Y-18027628D02*
X83557142Y-17646676D01*
X83557142Y-17646676D02*
X83480952Y-17494295D01*
X83480952Y-17494295D02*
X83404761Y-17418104D01*
X83404761Y-17418104D02*
X83252380Y-17341914D01*
X83252380Y-17341914D02*
X82947618Y-17341914D01*
X82947618Y-17341914D02*
X82795237Y-17418104D01*
X82795237Y-17418104D02*
X82719047Y-17494295D01*
X82719047Y-17494295D02*
X82642856Y-17646676D01*
X90186666Y-16732390D02*
X91253333Y-16732390D01*
X91253333Y-16732390D02*
X90567618Y-18332390D01*
X98187618Y-17418104D02*
X98035237Y-17341914D01*
X98035237Y-17341914D02*
X97959047Y-17265723D01*
X97959047Y-17265723D02*
X97882856Y-17113342D01*
X97882856Y-17113342D02*
X97882856Y-17037152D01*
X97882856Y-17037152D02*
X97959047Y-16884771D01*
X97959047Y-16884771D02*
X98035237Y-16808580D01*
X98035237Y-16808580D02*
X98187618Y-16732390D01*
X98187618Y-16732390D02*
X98492380Y-16732390D01*
X98492380Y-16732390D02*
X98644761Y-16808580D01*
X98644761Y-16808580D02*
X98720952Y-16884771D01*
X98720952Y-16884771D02*
X98797142Y-17037152D01*
X98797142Y-17037152D02*
X98797142Y-17113342D01*
X98797142Y-17113342D02*
X98720952Y-17265723D01*
X98720952Y-17265723D02*
X98644761Y-17341914D01*
X98644761Y-17341914D02*
X98492380Y-17418104D01*
X98492380Y-17418104D02*
X98187618Y-17418104D01*
X98187618Y-17418104D02*
X98035237Y-17494295D01*
X98035237Y-17494295D02*
X97959047Y-17570485D01*
X97959047Y-17570485D02*
X97882856Y-17722866D01*
X97882856Y-17722866D02*
X97882856Y-18027628D01*
X97882856Y-18027628D02*
X97959047Y-18180009D01*
X97959047Y-18180009D02*
X98035237Y-18256200D01*
X98035237Y-18256200D02*
X98187618Y-18332390D01*
X98187618Y-18332390D02*
X98492380Y-18332390D01*
X98492380Y-18332390D02*
X98644761Y-18256200D01*
X98644761Y-18256200D02*
X98720952Y-18180009D01*
X98720952Y-18180009D02*
X98797142Y-18027628D01*
X98797142Y-18027628D02*
X98797142Y-17722866D01*
X98797142Y-17722866D02*
X98720952Y-17570485D01*
X98720952Y-17570485D02*
X98644761Y-17494295D01*
X98644761Y-17494295D02*
X98492380Y-17418104D01*
X105655237Y-18332390D02*
X105959999Y-18332390D01*
X105959999Y-18332390D02*
X106112380Y-18256200D01*
X106112380Y-18256200D02*
X106188571Y-18180009D01*
X106188571Y-18180009D02*
X106340952Y-17951438D01*
X106340952Y-17951438D02*
X106417142Y-17646676D01*
X106417142Y-17646676D02*
X106417142Y-17037152D01*
X106417142Y-17037152D02*
X106340952Y-16884771D01*
X106340952Y-16884771D02*
X106264761Y-16808580D01*
X106264761Y-16808580D02*
X106112380Y-16732390D01*
X106112380Y-16732390D02*
X105807618Y-16732390D01*
X105807618Y-16732390D02*
X105655237Y-16808580D01*
X105655237Y-16808580D02*
X105579047Y-16884771D01*
X105579047Y-16884771D02*
X105502856Y-17037152D01*
X105502856Y-17037152D02*
X105502856Y-17418104D01*
X105502856Y-17418104D02*
X105579047Y-17570485D01*
X105579047Y-17570485D02*
X105655237Y-17646676D01*
X105655237Y-17646676D02*
X105807618Y-17722866D01*
X105807618Y-17722866D02*
X106112380Y-17722866D01*
X106112380Y-17722866D02*
X106264761Y-17646676D01*
X106264761Y-17646676D02*
X106340952Y-17570485D01*
X106340952Y-17570485D02*
X106417142Y-17418104D01*
X113275237Y-18332390D02*
X112360951Y-18332390D01*
X112818094Y-18332390D02*
X112818094Y-16732390D01*
X112818094Y-16732390D02*
X112665713Y-16960961D01*
X112665713Y-16960961D02*
X112513332Y-17113342D01*
X112513332Y-17113342D02*
X112360951Y-17189533D01*
X114265714Y-16732390D02*
X114418095Y-16732390D01*
X114418095Y-16732390D02*
X114570476Y-16808580D01*
X114570476Y-16808580D02*
X114646666Y-16884771D01*
X114646666Y-16884771D02*
X114722857Y-17037152D01*
X114722857Y-17037152D02*
X114799047Y-17341914D01*
X114799047Y-17341914D02*
X114799047Y-17722866D01*
X114799047Y-17722866D02*
X114722857Y-18027628D01*
X114722857Y-18027628D02*
X114646666Y-18180009D01*
X114646666Y-18180009D02*
X114570476Y-18256200D01*
X114570476Y-18256200D02*
X114418095Y-18332390D01*
X114418095Y-18332390D02*
X114265714Y-18332390D01*
X114265714Y-18332390D02*
X114113333Y-18256200D01*
X114113333Y-18256200D02*
X114037142Y-18180009D01*
X114037142Y-18180009D02*
X113960952Y-18027628D01*
X113960952Y-18027628D02*
X113884761Y-17722866D01*
X113884761Y-17722866D02*
X113884761Y-17341914D01*
X113884761Y-17341914D02*
X113960952Y-17037152D01*
X113960952Y-17037152D02*
X114037142Y-16884771D01*
X114037142Y-16884771D02*
X114113333Y-16808580D01*
X114113333Y-16808580D02*
X114265714Y-16732390D01*
X131991905Y-38414819D02*
X131991905Y-37414819D01*
X131991905Y-37414819D02*
X132230000Y-37414819D01*
X132230000Y-37414819D02*
X132372857Y-37462438D01*
X132372857Y-37462438D02*
X132468095Y-37557676D01*
X132468095Y-37557676D02*
X132515714Y-37652914D01*
X132515714Y-37652914D02*
X132563333Y-37843390D01*
X132563333Y-37843390D02*
X132563333Y-37986247D01*
X132563333Y-37986247D02*
X132515714Y-38176723D01*
X132515714Y-38176723D02*
X132468095Y-38271961D01*
X132468095Y-38271961D02*
X132372857Y-38367200D01*
X132372857Y-38367200D02*
X132230000Y-38414819D01*
X132230000Y-38414819D02*
X131991905Y-38414819D01*
X133515714Y-38414819D02*
X132944286Y-38414819D01*
X133230000Y-38414819D02*
X133230000Y-37414819D01*
X133230000Y-37414819D02*
X133134762Y-37557676D01*
X133134762Y-37557676D02*
X133039524Y-37652914D01*
X133039524Y-37652914D02*
X132944286Y-37700533D01*
X122333333Y-28859580D02*
X122285714Y-28907200D01*
X122285714Y-28907200D02*
X122142857Y-28954819D01*
X122142857Y-28954819D02*
X122047619Y-28954819D01*
X122047619Y-28954819D02*
X121904762Y-28907200D01*
X121904762Y-28907200D02*
X121809524Y-28811961D01*
X121809524Y-28811961D02*
X121761905Y-28716723D01*
X121761905Y-28716723D02*
X121714286Y-28526247D01*
X121714286Y-28526247D02*
X121714286Y-28383390D01*
X121714286Y-28383390D02*
X121761905Y-28192914D01*
X121761905Y-28192914D02*
X121809524Y-28097676D01*
X121809524Y-28097676D02*
X121904762Y-28002438D01*
X121904762Y-28002438D02*
X122047619Y-27954819D01*
X122047619Y-27954819D02*
X122142857Y-27954819D01*
X122142857Y-27954819D02*
X122285714Y-28002438D01*
X122285714Y-28002438D02*
X122333333Y-28050057D01*
X123285714Y-28954819D02*
X122714286Y-28954819D01*
X123000000Y-28954819D02*
X123000000Y-27954819D01*
X123000000Y-27954819D02*
X122904762Y-28097676D01*
X122904762Y-28097676D02*
X122809524Y-28192914D01*
X122809524Y-28192914D02*
X122714286Y-28240533D01*
X32824819Y-23976666D02*
X32348628Y-24309999D01*
X32824819Y-24548094D02*
X31824819Y-24548094D01*
X31824819Y-24548094D02*
X31824819Y-24167142D01*
X31824819Y-24167142D02*
X31872438Y-24071904D01*
X31872438Y-24071904D02*
X31920057Y-24024285D01*
X31920057Y-24024285D02*
X32015295Y-23976666D01*
X32015295Y-23976666D02*
X32158152Y-23976666D01*
X32158152Y-23976666D02*
X32253390Y-24024285D01*
X32253390Y-24024285D02*
X32301009Y-24071904D01*
X32301009Y-24071904D02*
X32348628Y-24167142D01*
X32348628Y-24167142D02*
X32348628Y-24548094D01*
X32824819Y-23024285D02*
X32824819Y-23595713D01*
X32824819Y-23309999D02*
X31824819Y-23309999D01*
X31824819Y-23309999D02*
X31967676Y-23405237D01*
X31967676Y-23405237D02*
X32062914Y-23500475D01*
X32062914Y-23500475D02*
X32110533Y-23595713D01*
X123643333Y-33084819D02*
X123310000Y-32608628D01*
X123071905Y-33084819D02*
X123071905Y-32084819D01*
X123071905Y-32084819D02*
X123452857Y-32084819D01*
X123452857Y-32084819D02*
X123548095Y-32132438D01*
X123548095Y-32132438D02*
X123595714Y-32180057D01*
X123595714Y-32180057D02*
X123643333Y-32275295D01*
X123643333Y-32275295D02*
X123643333Y-32418152D01*
X123643333Y-32418152D02*
X123595714Y-32513390D01*
X123595714Y-32513390D02*
X123548095Y-32561009D01*
X123548095Y-32561009D02*
X123452857Y-32608628D01*
X123452857Y-32608628D02*
X123071905Y-32608628D01*
X123976667Y-32084819D02*
X124595714Y-32084819D01*
X124595714Y-32084819D02*
X124262381Y-32465771D01*
X124262381Y-32465771D02*
X124405238Y-32465771D01*
X124405238Y-32465771D02*
X124500476Y-32513390D01*
X124500476Y-32513390D02*
X124548095Y-32561009D01*
X124548095Y-32561009D02*
X124595714Y-32656247D01*
X124595714Y-32656247D02*
X124595714Y-32894342D01*
X124595714Y-32894342D02*
X124548095Y-32989580D01*
X124548095Y-32989580D02*
X124500476Y-33037200D01*
X124500476Y-33037200D02*
X124405238Y-33084819D01*
X124405238Y-33084819D02*
X124119524Y-33084819D01*
X124119524Y-33084819D02*
X124024286Y-33037200D01*
X124024286Y-33037200D02*
X123976667Y-32989580D01*
X36824819Y-25246666D02*
X36348628Y-25579999D01*
X36824819Y-25818094D02*
X35824819Y-25818094D01*
X35824819Y-25818094D02*
X35824819Y-25437142D01*
X35824819Y-25437142D02*
X35872438Y-25341904D01*
X35872438Y-25341904D02*
X35920057Y-25294285D01*
X35920057Y-25294285D02*
X36015295Y-25246666D01*
X36015295Y-25246666D02*
X36158152Y-25246666D01*
X36158152Y-25246666D02*
X36253390Y-25294285D01*
X36253390Y-25294285D02*
X36301009Y-25341904D01*
X36301009Y-25341904D02*
X36348628Y-25437142D01*
X36348628Y-25437142D02*
X36348628Y-25818094D01*
X35920057Y-24865713D02*
X35872438Y-24818094D01*
X35872438Y-24818094D02*
X35824819Y-24722856D01*
X35824819Y-24722856D02*
X35824819Y-24484761D01*
X35824819Y-24484761D02*
X35872438Y-24389523D01*
X35872438Y-24389523D02*
X35920057Y-24341904D01*
X35920057Y-24341904D02*
X36015295Y-24294285D01*
X36015295Y-24294285D02*
X36110533Y-24294285D01*
X36110533Y-24294285D02*
X36253390Y-24341904D01*
X36253390Y-24341904D02*
X36824819Y-24913332D01*
X36824819Y-24913332D02*
X36824819Y-24294285D01*
%TO.C,J_LJ*%
D11*
X4280000Y-13530000D02*
X14320000Y-13530000D01*
X4280000Y-15890000D02*
X4280000Y-13530000D01*
X4280000Y-34090000D02*
X4280000Y-16490000D01*
X4900000Y-13530000D02*
X4900000Y-34090000D01*
X6400000Y-13530000D02*
X6400000Y-34090000D01*
X11300000Y-13530000D02*
X11300000Y-34090000D01*
X14320000Y-13530000D02*
X14320000Y-34090000D01*
X14320000Y-34090000D02*
X4280000Y-34090000D01*
X4280000Y-16190000D02*
X3670000Y-16630000D01*
X3670000Y-15750000D01*
X4280000Y-16190000D01*
G36*
X4280000Y-16190000D02*
G01*
X3670000Y-16630000D01*
X3670000Y-15750000D01*
X4280000Y-16190000D01*
G37*
%TO.C,J6*%
X81720000Y-18620000D02*
X83100000Y-18620000D01*
X81720000Y-20000000D02*
X81720000Y-18620000D01*
X81720000Y-21270000D02*
X81720000Y-29000000D01*
X81720000Y-21270000D02*
X84480000Y-21270000D01*
X81720000Y-29000000D02*
X84480000Y-29000000D01*
X84480000Y-21270000D02*
X84480000Y-29000000D01*
%TO.C,D1*%
X134290000Y-33920000D02*
X134290000Y-33764000D01*
X134290000Y-36236000D02*
X134290000Y-36080000D01*
X131058563Y-33920000D02*
G75*
G02*
X134290000Y-33764484I1671437J-1080000D01*
G01*
X131689039Y-33920000D02*
G75*
G02*
X133770961Y-33920000I1040961J-1080000D01*
G01*
X133770961Y-36080000D02*
G75*
G02*
X131689039Y-36080000I-1040961J1080000D01*
G01*
X134290000Y-36235516D02*
G75*
G02*
X131058563Y-36080000I-1560000J1235516D01*
G01*
%TO.C,C1*%
X119880000Y-29630000D02*
X125120000Y-29630000D01*
X119880000Y-29967000D02*
X119880000Y-29630000D01*
X119880000Y-32370000D02*
X119880000Y-32033000D01*
X125120000Y-29630000D02*
X125120000Y-29967000D01*
X125120000Y-32033000D02*
X125120000Y-32370000D01*
X125120000Y-32370000D02*
X119880000Y-32370000D01*
%TO.C,J9*%
X104580000Y-18620000D02*
X105960000Y-18620000D01*
X104580000Y-20000000D02*
X104580000Y-18620000D01*
X104580000Y-21270000D02*
X104580000Y-29000000D01*
X104580000Y-21270000D02*
X107340000Y-21270000D01*
X104580000Y-29000000D02*
X107340000Y-29000000D01*
X107340000Y-21270000D02*
X107340000Y-29000000D01*
%TO.C,R1*%
X30000000Y-23910000D02*
X30000000Y-23980000D01*
X31370000Y-22540000D02*
G75*
G02*
X28630000Y-22540000I-1370000J0D01*
G01*
X28630000Y-22540000D02*
G75*
G02*
X31370000Y-22540000I1370000J0D01*
G01*
%TO.C,J2*%
X51240000Y-18620000D02*
X52620000Y-18620000D01*
X51240000Y-20000000D02*
X51240000Y-18620000D01*
X51240000Y-21270000D02*
X51240000Y-29000000D01*
X51240000Y-21270000D02*
X54000000Y-21270000D01*
X51240000Y-29000000D02*
X54000000Y-29000000D01*
X54000000Y-21270000D02*
X54000000Y-29000000D01*
%TO.C,J3*%
X58860000Y-18620000D02*
X60240000Y-18620000D01*
X58860000Y-20000000D02*
X58860000Y-18620000D01*
X58860000Y-21270000D02*
X58860000Y-29000000D01*
X58860000Y-21270000D02*
X61620000Y-21270000D01*
X58860000Y-29000000D02*
X61620000Y-29000000D01*
X61620000Y-21270000D02*
X61620000Y-29000000D01*
%TO.C,J8*%
X96960000Y-18620000D02*
X98340000Y-18620000D01*
X96960000Y-20000000D02*
X96960000Y-18620000D01*
X96960000Y-21270000D02*
X96960000Y-29000000D01*
X96960000Y-21270000D02*
X99720000Y-21270000D01*
X96960000Y-29000000D02*
X99720000Y-29000000D01*
X99720000Y-21270000D02*
X99720000Y-29000000D01*
%TO.C,J10*%
X112200000Y-18620000D02*
X113580000Y-18620000D01*
X112200000Y-20000000D02*
X112200000Y-18620000D01*
X112200000Y-21270000D02*
X112200000Y-29000000D01*
X112200000Y-21270000D02*
X114960000Y-21270000D01*
X112200000Y-29000000D02*
X114960000Y-29000000D01*
X114960000Y-21270000D02*
X114960000Y-29000000D01*
%TO.C,J5*%
X74100000Y-18620000D02*
X75480000Y-18620000D01*
X74100000Y-20000000D02*
X74100000Y-18620000D01*
X74100000Y-21270000D02*
X74100000Y-29000000D01*
X74100000Y-21270000D02*
X76860000Y-21270000D01*
X74100000Y-29000000D02*
X76860000Y-29000000D01*
X76860000Y-21270000D02*
X76860000Y-29000000D01*
%TO.C,J1*%
X43620000Y-18620000D02*
X45000000Y-18620000D01*
X43620000Y-20000000D02*
X43620000Y-18620000D01*
X43620000Y-21270000D02*
X43620000Y-29000000D01*
X43620000Y-21270000D02*
X46380000Y-21270000D01*
X43620000Y-29000000D02*
X46380000Y-29000000D01*
X46380000Y-21270000D02*
X46380000Y-29000000D01*
%TO.C,J4*%
X66480000Y-18620000D02*
X67860000Y-18620000D01*
X66480000Y-20000000D02*
X66480000Y-18620000D01*
X66480000Y-21270000D02*
X66480000Y-29000000D01*
X66480000Y-21270000D02*
X69240000Y-21270000D01*
X66480000Y-29000000D02*
X69240000Y-29000000D01*
X69240000Y-21270000D02*
X69240000Y-29000000D01*
%TO.C,R3*%
X120540000Y-33630000D02*
X127080000Y-33630000D01*
X120540000Y-33960000D02*
X120540000Y-33630000D01*
X120540000Y-36040000D02*
X120540000Y-36370000D01*
X120540000Y-36370000D02*
X127080000Y-36370000D01*
X127080000Y-33630000D02*
X127080000Y-33960000D01*
X127080000Y-36370000D02*
X127080000Y-36040000D01*
%TO.C,J7*%
X89340000Y-18620000D02*
X90720000Y-18620000D01*
X89340000Y-20000000D02*
X89340000Y-18620000D01*
X89340000Y-21270000D02*
X89340000Y-29000000D01*
X89340000Y-21270000D02*
X92100000Y-21270000D01*
X89340000Y-29000000D02*
X92100000Y-29000000D01*
X92100000Y-21270000D02*
X92100000Y-29000000D01*
%TO.C,R2*%
X34000000Y-23910000D02*
X34000000Y-26520000D01*
X35370000Y-22540000D02*
G75*
G02*
X32630000Y-22540000I-1370000J0D01*
G01*
X32630000Y-22540000D02*
G75*
G02*
X35370000Y-22540000I1370000J0D01*
G01*
%TD*%
M02*
